<!DOCTYPE svg PUBLIC "-//W3C//DTD SVG 20010904//EN" "http://www.w3.org/TR/2001/REC-SVG-20010904/DTD/svg10.dtd">
<svg version="1.0" xmlns="http://www.w3.org/2000/svg" width="1228px" height="1228px" viewBox="0 0 12280 12280" preserveAspectRatio="xMidYMid meet">
<g id="layerbg1" fill="#6b5e3c" stroke="none">
 <path d="M3705 9518 c-3 -7 -4 -778 -3 -1713 l3 -1700 1174 -3 c646 -1 1179 -6 1185 -10 13 -10 384 -8 406 1 8 4 548 8 1200 10 l1185 2 3 1699 c1 1247 -1 1702 -9 1712 -16 20 -5137 21 -5144 2z m2594 -1184 c3 -3 8 -42 11 -87 3 -45 7 -81 10 -80 3 0 22 4 43 8 67 13 156 -49 176 -122 15 -53 14 -68 -9 -119 -38 -82 -132 -126 -192 -90 -13 8 -24 7 -38 -2 -31 -19 -88 -15 -100 7 -11 21 -14 429 -4 468 3 12 13 24 23 27 18 5 72 -1 80 -10z m-1099 -149 c8 -1 22 -2 31 -3 20 -2 98 -79 109 -106 6 -17 7 -100 1 -142 -3 -23 -80 -93 -112 -102 -91 -25 -195 15 -231 88 -21 41 -24 131 -5 161 39 67 117 122 146 105 5 -4 12 -2 16 4 4 6 12 7 18 3 7 -4 19 -8 27 -8z m773 9 c4 -4 21 -8 38 -9 63 -5 117 -65 124 -139 10 -98 -42 -149 -177 -171 -22 -4 -44 -16 -53 -28 -13 -19 -13 -23 7 -44 27 -29 49 -29 97 -1 37 21 40 21 65 5 14 -10 29 -29 32 -44 9 -35 -32 -69 -104 -84 -79 -16 -155 6 -188 56 -22 34 -27 130 -8 166 17 34 36 46 134 79 71 24 75 27 78 58 3 27 -1 34 -23 42 -40 15 -50 13 -100 -26 -36 -27 -53 -34 -71 -30 -27 7 -47 46 -37 73 17 43 99 100 128 89 7 -2 18 0 26 5 17 11 24 11 32 3z m-1165 -10 c34 -7 98 -63 112 -98 11 -31 3 -125 -15 -152 -9 -14 -10 -25 -3 -38 18 -31 13 -109 -7 -144 -33 -55 -84 -72 -217 -72 -93 0 -120 3 -132 16 -14 13 -16 48 -16 227 0 228 3 254 29 260 25 7 215 8 249 1z m689 -44 c25 -27 48 -50 51 -50 4 0 31 23 60 50 30 28 61 50 70 50 15 0 62 -56 62 -74 0 -4 -23 -32 -52 -62 l-52 -55 53 -50 c57 -53 60 -76 19 -111 -30 -27 -41 -23 -103 34 l-57 52 -49 -52 c-27 -29 -54 -52 -60 -52 -6 0 -24 14 -39 30 -26 28 -27 32 -15 58 8 15 30 42 49 61 l34 33 -49 64 c-42 53 -49 66 -39 83 11 22 38 40 58 41 8 0 34 -22 59 -50z m1200 42 c9 -5 14 -44 17 -114 2 -58 7 -111 11 -118 5 -9 24 -11 61 -7 48 5 54 3 68 -18 24 -37 21 -81 -6 -89 -37 -10 -67 -7 -97 9 -26 13 -30 13 -41 0 -13 -15 -49 -19 -85 -9 -19 5 -20 13 -18 171 1 124 5 168 15 174 17 11 59 11 75 1z m482 -18 c17 -10 44 -39 58 -64 70 -125 -10 -267 -157 -275 -106 -7 -189 77 -184 185 5 115 74 180 190 176 38 -2 72 -10 93 -22z m343 8 c35 -18 37 -18 52 0 9 10 28 18 43 18 56 0 58 -6 61 -173 4 -169 -2 -187 -54 -187 -58 0 -64 12 -64 120 l0 99 -30 16 c-21 11 -35 13 -48 6 -39 -21 -47 -43 -52 -140 l-5 -96 -47 -3 c-29 -2 -48 1 -49 7 -3 65 1 213 7 236 12 48 35 76 79 96 50 23 62 23 107 1z m448 5 c8 -7 16 -29 17 -49 1 -34 -1 -39 -25 -44 -50 -10 -57 -19 -60 -73 -4 -63 7 -79 48 -73 40 6 58 -11 58 -53 0 -43 -17 -58 -65 -53 l-38 3 -3 -60 c-3 -64 -11 -75 -57 -75 -43 0 -50 9 -50 65 0 47 -2 51 -32 64 -29 13 -33 19 -33 52 0 30 6 41 33 62 31 24 32 27 32 93 -1 38 4 80 9 93 20 45 130 77 166 48z"/>
 <path d="M6325 8040 c-26 -27 -27 -32 -15 -55 7 -14 24 -32 37 -40 22 -15 26 -14 52 4 40 29 44 56 14 91 -31 38 -52 38 -88 0z"/>
 <path d="M5129 8068 c-8 -7 -23 -25 -31 -39 -15 -24 -15 -27 9 -57 45 -59 127 -33 125 39 0 18 -7 38 -14 45 -20 21 -71 27 -89 12z"/>
 <path d="M4652 8068 c-17 -17 -17 -239 0 -256 7 -7 37 -12 68 -12 44 0 61 5 75 20 25 28 13 47 -37 57 -39 8 -43 12 -44 38 -2 37 13 57 37 50 10 -4 27 -1 39 5 28 15 29 85 1 100 -27 14 -124 13 -139 -2z"/>
 <path d="M7032 8057 c-24 -26 -30 -85 -10 -105 17 -17 79 -15 106 4 28 19 29 63 1 98 -26 33 -68 34 -97 3z"/>
 <path d="M7020 3725 c-10 -12 -9 -16 6 -21 11 -4 53 -21 94 -39 384 -165 904 -218 1430 -146 85 12 162 25 170 29 8 5 28 5 45 2 23 -4 -11 -14 -135 -43 -91 -20 -175 -37 -187 -37 -12 0 -24 -4 -28 -10 -3 -5 -12 -7 -19 -4 -7 3 -67 -2 -132 -11 -66 -8 -184 -20 -264 -25 -252 -17 -584 17 -817 84 -152 44 -148 43 -148 28 0 -23 259 -97 403 -116 24 -3 83 -11 130 -17 110 -14 460 -15 572 -1 47 6 117 14 155 18 39 3 73 8 76 10 4 2 27 6 50 9 109 13 448 93 467 110 10 9 10 16 -5 33 -17 21 -22 21 -78 11 -33 -5 -76 -13 -95 -15 -19 -3 -78 -12 -130 -20 -246 -38 -760 -36 -980 4 -203 37 -409 100 -528 161 -35 18 -42 18 -52 6z"/>
 <path d="M5509 2813 c-1 -4 -1 -11 0 -15 0 -4 -5 -5 -13 -2 -8 3 -28 -16 -51 -48 -146 -204 -426 -544 -604 -733 -186 -196 -460 -437 -658 -579 -53 -38 -66 -62 -38 -72 17 -7 192 107 361 236 356 271 738 642 1036 1007 55 67 65 83 53 93 -11 9 -16 6 -26 -12 -14 -26 -131 -166 -258 -308 -240 -269 -545 -550 -821 -756 -86 -64 -153 -109 -108 -72 86 71 233 204 331 298 143 138 429 456 548 611 203 263 266 349 258 354 -5 4 -10 3 -10 -2z"/>
 </g>
<g id="layerbg2" fill="#916653" stroke="none">
 <path d="M6225 8360 c-4 -6 -10 -8 -15 -5 -7 5 -23 -10 -26 -25 0 -3 -4 -12 -8 -20 -11 -25 -2 -455 9 -452 6 1 11 89 12 233 1 141 6 236 12 242 15 15 71 14 83 0 6 -7 11 -50 12 -95 1 -92 -7 -85 79 -70 52 10 46 27 -8 25 l-45 -1 0 57 c0 31 -5 62 -12 69 -7 7 -8 12 -4 12 5 0 3 7 -4 15 -7 8 -16 13 -20 10 -5 -3 -11 -1 -15 5 -3 5 -15 10 -25 10 -10 0 -22 -5 -25 -10z"/>
 <path d="M5157 8213 c-4 -3 -20 -7 -37 -8 -34 -3 -83 -32 -75 -44 2 -5 -3 -8 -13 -7 -11 1 -16 -6 -15 -17 0 -10 -2 -16 -5 -13 -8 9 -32 -15 -26 -26 4 -5 23 7 44 27 65 63 155 78 227 35 18 -10 35 -15 38 -10 8 13 -52 52 -84 55 -15 1 -32 5 -38 8 -6 4 -13 4 -16 0z"/>
 <path d="M5945 8211 c-7 -13 9 -22 48 -28 17 -3 44 -11 59 -19 16 -8 29 -10 33 -4 8 13 -40 42 -75 45 -17 1 -33 5 -37 9 -9 9 -21 8 -28 -3z"/>
 <path d="M4552 8200 c-12 -5 -27 -21 -32 -35 -6 -15 -10 -123 -10 -241 l0 -215 25 -25 c25 -25 28 -26 154 -22 121 3 130 5 170 31 28 19 41 33 37 43 -3 8 -2 12 4 9 10 -6 35 33 26 42 -3 4 -1 12 5 19 13 16 4 48 -11 39 -6 -4 -10 -14 -9 -23 5 -40 -42 -105 -88 -123 -13 -5 -80 -9 -148 -9 -103 0 -124 3 -129 16 -12 31 -7 449 6 462 8 8 52 12 133 12 99 0 128 -3 158 -19 47 -24 57 -10 15 21 -30 21 -45 23 -158 25 -69 2 -135 -2 -148 -7z"/>
 <path d="M5396 8189 c-35 -28 -51 -58 -37 -72 7 -7 13 -2 20 16 14 35 55 55 81 40 25 -16 34 -4 13 19 -21 24 -44 23 -77 -3z"/>
 <path d="M5599 8154 c-32 -31 -56 -61 -53 -66 4 -6 30 13 59 42 37 36 59 51 76 50 38 -3 42 -1 29 15 -22 27 -50 16 -111 -41z"/>
 <path d="M5880 8203 c-29 -11 -70 -45 -65 -53 3 -5 22 0 43 10 20 11 45 22 55 24 10 3 15 10 12 16 -7 11 -21 12 -45 3z"/>
 <path d="M6603 8186 c-21 -19 -25 -27 -16 -36 8 -9 14 -7 22 9 9 16 21 21 49 21 21 0 43 -5 49 -11 7 -7 13 -7 17 -1 9 15 -34 42 -66 42 -15 0 -40 -11 -55 -24z"/>
 <path d="M7007 8199 c-9 -6 -15 -14 -12 -19 7 -11 54 2 55 15 1 14 -22 17 -43 4z"/>
 <path d="M7095 8201 c-7 -12 1 -17 41 -25 17 -4 45 -20 62 -37 19 -19 33 -26 37 -19 10 16 -20 46 -69 70 -47 22 -62 25 -71 11z"/>
 <path d="M7414 8191 c-48 -22 -103 -86 -87 -102 7 -7 17 1 32 26 36 62 133 83 182 39 16 -15 19 -14 31 5 9 15 23 21 50 21 20 0 40 -4 43 -10 8 -12 8 -317 0 -329 -3 -5 -1 -12 5 -16 10 -6 11 -5 14 14 0 5 4 13 9 17 11 11 9 292 -3 299 -6 4 -8 10 -5 15 8 13 -36 40 -65 40 -14 0 -35 -7 -47 -15 -19 -13 -25 -13 -57 0 -45 19 -52 19 -102 -4z"/>
 <path d="M7853 8191 c-43 -20 -86 -73 -81 -100 5 -26 22 -17 30 16 11 42 40 61 107 70 30 5 55 13 55 18 2 18 -68 15 -111 -4z"/>
 <path d="M7977 8184 c-3 -4 -2 -16 4 -26 8 -15 14 -17 22 -9 8 8 7 15 -4 26 -8 9 -18 13 -22 9z"/>
 <path d="M6931 8146 c-18 -19 -29 -36 -23 -39 5 -4 23 9 41 27 18 19 29 36 23 39 -5 4 -23 -9 -41 -27z"/>
 <path d="M6468 8164 c-4 -4 8 -24 26 -45 35 -38 50 -90 44 -151 -4 -39 15 -36 26 4 12 48 -9 113 -52 160 -21 22 -40 36 -44 32z"/>
 <path d="M6097 8154 c-3 -4 4 -25 16 -48 21 -40 29 -109 14 -133 -4 -6 -3 -14 3 -18 5 -3 11 -4 11 -1 1 3 2 9 3 14 1 4 4 12 7 17 10 16 8 74 -2 81 -5 3 -7 10 -3 15 3 5 -4 25 -16 44 -23 38 -24 38 -33 29z"/>
 <path d="M4897 8134 c-3 -4 2 -19 12 -33 10 -14 16 -31 14 -38 -5 -15 14 -26 22 -13 3 5 3 16 -2 23 -4 6 -8 18 -10 26 -2 19 -28 43 -36 35z"/>
 <path d="M5308 8135 c-4 -4 2 -21 13 -38 10 -18 19 -42 19 -54 0 -25 15 -39 25 -23 16 25 -38 133 -57 115z"/>
 <path d="M5734 8123 c-4 -10 -27 -39 -51 -64 -25 -26 -41 -49 -35 -53 10 -6 112 96 112 113 0 19 -20 22 -26 4z"/>
 <path d="M6718 8113 c-8 -19 -2 -153 7 -153 11 0 14 149 3 156 -4 2 -8 1 -10 -3z"/>
 <path d="M7983 8107 c-4 -7 -17 -17 -27 -21 -14 -5 -16 -10 -8 -18 8 -8 18 -7 36 6 15 9 26 21 26 26 0 16 -18 21 -27 7z"/>
 <path d="M5909 8072 c-29 -24 -11 -36 20 -13 14 11 19 21 13 25 -5 3 -20 -2 -33 -12z"/>
 <path d="M5106 8049 c-19 -22 -24 -35 -16 -44 5 -6 7 -15 3 -18 -13 -14 40 -57 69 -57 38 0 78 39 75 74 -2 30 -21 36 -23 7 -2 -40 -13 -51 -48 -51 -24 0 -38 6 -49 23 -14 22 -13 26 9 55 32 41 13 51 -20 11z"/>
 <path d="M7020 8053 c-12 -15 -20 -38 -18 -52 4 -36 22 -33 26 4 2 17 10 37 18 47 9 10 11 18 5 22 -5 3 -19 -6 -31 -21z"/>
 <path d="M5414 8059 c-3 -6 3 -21 15 -32 l21 -21 -42 -43 c-26 -27 -38 -46 -33 -52 6 -5 29 12 58 45 l49 54 -30 30 c-20 19 -33 26 -38 19z"/>
 <path d="M6006 8063 c-3 -3 -6 -15 -6 -25 0 -18 -34 -38 -76 -44 -27 -3 -83 -31 -108 -53 -28 -24 -49 -72 -38 -83 6 -6 16 4 28 29 18 36 37 49 119 84 17 7 34 12 38 11 4 -1 21 5 37 13 21 11 30 23 30 40 0 25 -12 39 -24 28z"/>
 <path d="M6326 8051 c-10 -11 -13 -22 -8 -25 5 -3 17 3 26 13 10 11 13 22 8 25 -5 3 -17 -3 -26 -13z"/>
 <path d="M6387 8063 c-4 -3 0 -15 9 -24 9 -10 17 -28 18 -39 1 -28 21 -25 23 4 2 25 -38 72 -50 59z"/>
 <path d="M7445 8050 c-13 -14 -15 -24 -8 -31 7 -7 15 -2 26 15 21 31 6 43 -18 16z"/>
 <path d="M4795 8047 c-9 -22 -2 -62 10 -60 6 1 11 14 13 29 4 32 -14 56 -23 31z"/>
 <path d="M5776 8051 c-8 -12 41 -51 64 -51 10 0 23 7 30 15 13 16 9 18 -28 15 -13 -1 -32 6 -42 15 -11 10 -20 12 -24 6z"/>
 <path d="M7547 8033 c-14 -13 -8 -178 8 -199 17 -23 17 -23 15 96 -1 90 -8 119 -23 103z"/>
 <path d="M5347 7993 c-2 -4 -8 -23 -12 -41 -8 -39 -47 -87 -87 -108 -16 -8 -26 -19 -23 -24 18 -28 128 76 140 132 7 28 -7 59 -18 41z"/>
 <path d="M4716 7977 c-25 -18 -30 -76 -10 -98 23 -25 35 -14 19 17 -16 32 -9 61 17 67 11 3 17 10 13 16 -8 14 -17 14 -39 -2z"/>
 <path d="M6316 7982 c-3 -5 3 -17 13 -26 11 -10 22 -13 25 -8 3 5 -3 17 -13 26 -11 10 -22 13 -25 8z"/>
 <path d="M6875 7980 c-4 -6 -1 -18 7 -27 7 -9 12 -18 11 -20 -2 -1 -1 -3 2 -3 3 0 8 0 12 0 4 0 2 5 -4 11 -6 6 -9 17 -7 24 7 16 -12 29 -21 15z"/>
 <path d="M4965 7970 c-4 -6 -1 -17 5 -25 7 -8 9 -15 6 -15 -4 0 -2 -9 4 -20 6 -11 15 -18 21 -15 5 4 4 15 -3 28 -7 12 -11 27 -10 34 3 16 -15 26 -23 13z"/>
 <path d="M7766 7961 c-10 -11 -13 -22 -8 -25 5 -3 17 3 26 13 10 11 13 22 8 25 -5 3 -17 -3 -26 -13z"/>
 <path d="M4907 7949 c-15 -21 -14 -66 2 -82 13 -13 23 11 13 30 -7 12 -5 24 5 39 19 29 0 42 -20 13z"/>
 <path d="M6381 7957 c-6 -8 -8 -17 -5 -20 10 -9 45 13 39 24 -9 13 -21 11 -34 -4z"/>
 <path d="M6782 7961 c-49 -9 -39 -26 16 -26 58 0 66 3 51 21 -12 15 -15 15 -67 5z"/>
 <path d="M7082 7961 c-18 -3 -34 -10 -35 -16 -3 -16 58 -18 72 -1 15 18 4 24 -37 17z"/>
 <path d="M7965 7949 c-4 -6 2 -13 13 -16 36 -9 35 -87 -1 -97 -16 -4 -19 -8 -10 -17 14 -14 49 3 57 28 10 34 0 86 -19 99 -23 17 -32 17 -40 3z"/>
 <path d="M5706 7941 c-4 -5 -1 -13 5 -16 24 -16 27 -50 6 -72 -31 -34 -52 -28 -112 28 -29 27 -56 46 -59 41 -7 -12 109 -122 129 -122 16 0 78 50 71 58 -3 3 -1 11 5 18 7 9 7 19 0 32 -15 28 -38 45 -45 33z"/>
 <path d="M6906 7902 c-3 -5 8 -21 23 -36 16 -15 31 -23 35 -18 3 5 -8 21 -23 36 -16 15 -31 23 -35 18z"/>
 <path d="M5976 7881 c-4 -6 -13 -8 -20 -5 -17 6 -31 -12 -16 -21 5 -3 16 -3 22 2 7 4 21 7 30 8 10 0 18 5 18 10 1 14 -27 19 -34 6z"/>
 <path d="M6584 7866 c-7 -18 13 -49 26 -41 10 6 1 43 -11 51 -5 3 -12 -2 -15 -10z"/>
 <path d="M7305 7870 c-8 -12 20 -60 35 -60 17 0 21 20 6 26 -9 3 -16 12 -16 19 0 18 -17 28 -25 15z"/>
 <path d="M5475 7850 c-4 -6 -18 -16 -33 -21 -18 -7 -22 -13 -15 -20 8 -8 17 -8 30 0 29 15 46 38 34 45 -5 4 -13 1 -16 -4z"/>
 <path d="M7411 7841 c-17 -13 -20 -20 -11 -26 7 -4 20 1 32 13 26 26 9 36 -21 13z"/>
 <path d="M6974 7839 c-7 -13 64 -42 84 -34 20 8 8 17 -39 31 -23 7 -41 8 -45 3z"/>
 <path d="M4785 7830 c-4 -7 -34 -10 -73 -9 -53 2 -67 -1 -67 -12 0 -24 116 -25 145 -1 15 12 19 21 12 26 -6 3 -14 1 -17 -4z"/>
 <path d="M5086 7832 c-3 -6 -2 -13 4 -17 5 -3 10 -3 10 1 0 3 7 1 15 -6 8 -6 19 -9 25 -5 14 9 1 28 -15 21 -7 -2 -17 0 -23 6 -6 6 -12 6 -16 0z"/>
 <path d="M6003 7819 c-18 -12 -31 -25 -28 -29 6 -10 86 23 86 36 0 17 -26 14 -58 -7z"/>
 <path d="M6098 7795 c-4 -4 -3 -18 2 -31 8 -19 5 -27 -17 -44 -14 -11 -38 -23 -52 -27 -14 -3 -30 -8 -36 -12 -5 -3 -23 -4 -40 -2 -66 6 -104 22 -133 57 -19 23 -32 32 -37 25 -11 -18 66 -88 110 -100 45 -12 79 -14 88 -5 4 4 21 8 38 9 37 3 101 52 105 81 4 23 -18 59 -28 49z"/>
 <path d="M7775 7730 c-12 -19 31 -50 70 -50 42 0 86 33 68 51 -10 10 -14 9 -19 -4 -9 -23 -82 -23 -99 0 -9 13 -14 13 -20 3z"/>
 <path d="M3707 6114 c-4 -4 -4 -11 -1 -15 3 -5 531 -9 1174 -9 l1168 0 6 -77 c10 -137 15 -243 21 -473 4 -124 10 -239 14 -255 5 -17 9 -72 10 -122 1 -51 4 -103 6 -115 2 -13 6 -113 10 -223 4 -110 8 -202 10 -205 2 -3 6 -116 10 -250 8 -273 6 -290 -61 -487 -50 -151 -95 -254 -187 -433 -123 -240 -306 -543 -377 -624 -15 -17 -28 -35 -27 -40 0 -7 -100 -142 -239 -321 -47 -61 -130 -159 -283 -334 -179 -205 -449 -458 -664 -623 -161 -123 -162 -124 -150 -131 12 -7 114 57 272 173 379 275 730 608 1081 1025 46 55 90 104 97 108 7 4 13 12 13 17 0 5 36 55 80 112 164 210 368 535 498 793 61 123 141 316 156 379 l7 29 87 -87 c94 -95 191 -172 304 -241 73 -44 87 -51 253 -131 169 -81 416 -134 715 -154 164 -11 334 -3 590 30 165 21 557 103 575 121 5 6 5 13 -3 21 -9 9 -66 4 -249 -22 -209 -29 -397 -44 -543 -44 -208 0 -503 36 -681 83 -141 38 -350 119 -364 142 -4 5 -10 7 -15 4 -11 -7 -129 59 -201 112 -183 135 -308 302 -383 511 -44 123 -44 110 -1 1047 15 321 20 421 31 592 l6 93 1189 2 c782 2 1190 6 1192 13 2 11 -2358 20 -2383 8 -21 -9 -401 -10 -406 -1 -6 9 -2348 11 -2357 2z"/>
 </g>
<g id="layerbg3" fill="#889e43" stroke="none">
 <path d="M5495 11959 c-150 -8 -339 -25 -445 -41 -36 -5 -103 -14 -150 -19 -91 -11 -264 -46 -540 -108 -263 -60 -713 -209 -925 -306 -44 -20 -102 -47 -130 -60 -27 -12 -63 -26 -80 -29 -16 -4 -57 -25 -90 -46 -33 -21 -114 -65 -180 -98 -218 -110 -520 -301 -735 -467 -249 -191 -598 -515 -740 -686 -30 -36 -93 -109 -139 -163 -130 -150 -314 -401 -376 -511 -16 -27 -39 -64 -51 -82 -75 -101 -296 -530 -403 -779 -227 -531 -369 -1129 -421 -1771 -21 -257 -10 -880 20 -1105 27 -205 33 -250 52 -336 11 -52 25 -131 32 -175 19 -117 55 -277 68 -301 7 -12 28 -88 49 -171 20 -82 64 -229 97 -325 277 -806 719 -1537 1305 -2161 500 -532 1033 -940 1662 -1273 110 -59 225 -115 255 -127 30 -11 102 -42 160 -68 268 -123 740 -277 1044 -341 50 -11 141 -31 202 -45 360 -82 825 -121 1324 -112 405 8 718 38 1010 97 261 52 269 54 385 83 204 51 544 161 715 232 58 24 137 55 175 70 39 15 90 38 115 51 25 12 101 50 170 83 751 361 1441 908 1992 1579 135 163 459 627 487 697 2 6 16 28 30 50 49 76 192 360 316 630 64 139 157 396 213 590 156 533 219 908 242 1455 11 250 -1 659 -25 845 -7 61 -16 137 -20 170 -23 217 -124 664 -216 957 -201 645 -560 1309 -1003 1858 -206 256 -597 654 -776 790 -25 19 -50 42 -57 51 -7 9 -89 69 -182 133 -94 65 -173 122 -176 127 -12 18 -154 118 -206 145 -30 15 -94 55 -144 89 -49 34 -115 75 -145 90 -30 15 -66 36 -80 45 -31 22 -315 164 -430 215 -47 21 -103 46 -125 55 -61 27 -362 145 -430 168 -396 135 -963 267 -1325 306 -80 9 -183 21 -230 26 -219 27 -829 37 -1145 19z m1325 -685 c235 -18 579 -61 594 -73 6 -5 32 -9 57 -9 25 0 63 -7 84 -16 20 -9 53 -16 72 -16 19 0 49 -6 66 -14 18 -8 55 -17 82 -19 45 -4 404 -122 447 -147 10 -6 26 -10 35 -10 22 0 132 -36 188 -61 22 -10 56 -22 75 -25 40 -8 105 -39 115 -54 3 -5 15 -10 26 -10 11 0 59 -20 107 -44 305 -152 401 -203 423 -222 8 -8 19 -14 22 -14 16 0 175 -102 383 -247 328 -227 602 -469 883 -781 144 -160 187 -215 390 -495 69 -94 171 -250 171 -261 0 -3 14 -25 30 -49 17 -25 30 -48 30 -53 0 -4 6 -15 14 -23 17 -19 67 -112 132 -243 9 -18 21 -44 28 -58 7 -14 33 -65 58 -115 26 -49 54 -117 64 -150 9 -33 34 -94 55 -135 21 -41 49 -118 63 -170 14 -53 30 -109 37 -125 6 -17 20 -59 30 -95 10 -36 27 -92 39 -125 12 -33 23 -78 25 -100 6 -55 36 -178 46 -189 5 -6 9 -26 9 -46 0 -50 20 -152 32 -167 5 -7 10 -36 10 -65 -1 -29 3 -57 8 -63 8 -10 12 -54 25 -244 3 -52 11 -101 17 -108 7 -9 8 -42 4 -99 -5 -58 -4 -90 4 -99 7 -9 9 -63 6 -172 -3 -87 -7 -207 -9 -268 -1 -60 -6 -117 -10 -125 -3 -8 -6 -31 -6 -50 0 -67 -33 -345 -46 -390 -7 -25 -21 -94 -30 -155 -10 -60 -21 -119 -26 -130 -5 -11 -18 -63 -29 -115 -21 -97 -35 -146 -102 -355 -21 -66 -38 -127 -38 -135 0 -9 -6 -24 -14 -35 -7 -11 -19 -38 -25 -60 -7 -22 -16 -49 -22 -60 -19 -43 -89 -220 -89 -226 0 -6 -74 -163 -99 -209 -11 -21 -30 -57 -40 -77 -11 -24 -39 -77 -73 -138 -15 -27 -35 -65 -44 -84 -8 -19 -26 -49 -39 -65 -12 -17 -33 -51 -46 -76 -13 -25 -36 -63 -51 -85 -74 -106 -138 -205 -138 -211 0 -3 -17 -27 -38 -53 -21 -25 -54 -68 -72 -96 -19 -27 -59 -77 -90 -110 -31 -33 -71 -82 -89 -110 -19 -27 -64 -82 -100 -121 -36 -39 -95 -104 -131 -145 -86 -97 -405 -392 -469 -434 -27 -18 -81 -60 -118 -92 -37 -32 -86 -69 -108 -82 -22 -14 -67 -46 -100 -71 -64 -50 -260 -180 -271 -180 -3 0 -27 -15 -53 -34 -25 -18 -67 -42 -92 -53 -25 -11 -83 -46 -128 -77 -45 -31 -87 -56 -93 -56 -6 0 -43 -15 -82 -34 -39 -19 -87 -42 -106 -50 -19 -9 -42 -20 -50 -25 -18 -13 -147 -71 -155 -71 -7 0 -76 -30 -160 -70 -33 -16 -85 -36 -115 -44 -30 -8 -86 -25 -125 -39 -38 -13 -122 -39 -185 -57 -63 -18 -119 -36 -125 -40 -5 -5 -23 -11 -40 -14 -16 -3 -77 -17 -135 -32 -58 -14 -141 -32 -185 -40 -44 -8 -90 -19 -103 -24 -13 -6 -40 -10 -62 -10 -21 0 -42 -4 -45 -10 -3 -5 -32 -10 -63 -10 -31 -1 -88 -8 -127 -17 -38 -8 -94 -15 -123 -14 -29 1 -58 -2 -65 -6 -6 -4 -28 -6 -49 -4 -21 1 -43 -1 -50 -6 -18 -11 -67 -14 -255 -16 -88 -1 -165 -5 -169 -9 -10 -10 -78 -10 -88 -1 -4 5 -88 8 -186 9 -123 0 -183 4 -193 13 -8 6 -39 11 -68 11 -98 -2 -211 8 -222 19 -6 6 -37 11 -69 11 -31 0 -77 6 -100 14 -39 13 -61 17 -163 31 -39 5 -64 11 -98 24 -16 6 -61 16 -100 22 -80 11 -237 54 -396 105 -57 19 -112 34 -123 34 -11 0 -41 11 -67 25 -51 28 -155 65 -181 65 -9 0 -53 18 -98 40 -44 22 -87 40 -94 40 -8 0 -46 16 -85 35 -39 19 -74 35 -77 35 -14 0 -336 166 -471 243 -309 176 -785 529 -991 734 -40 40 -100 95 -133 123 -110 91 -445 479 -566 654 -27 40 -75 106 -105 147 -31 41 -69 96 -85 122 -17 26 -48 74 -70 105 -23 31 -47 71 -54 89 -7 17 -23 41 -37 53 -13 13 -29 39 -35 59 -7 20 -29 62 -49 93 -32 47 -74 136 -174 363 -28 63 -50 112 -71 155 -13 25 -28 63 -35 85 -7 22 -28 72 -46 110 -18 39 -41 102 -53 140 -11 39 -31 103 -45 144 -14 40 -26 86 -26 100 0 15 -4 31 -9 37 -14 14 -78 268 -107 429 -77 417 -95 615 -94 1036 0 277 7 388 36 594 21 148 61 386 78 460 8 33 21 92 30 132 9 40 27 103 40 140 24 65 84 260 91 295 2 9 11 30 19 47 9 17 15 32 14 33 -3 3 43 117 73 184 11 22 19 44 19 48 0 28 232 480 308 601 132 209 165 259 253 374 209 272 377 455 574 626 72 62 157 138 190 169 87 81 217 182 245 191 14 4 49 30 78 56 30 27 59 49 67 49 7 0 19 7 26 16 12 15 61 51 108 79 9 5 34 21 56 35 22 15 47 30 55 33 8 4 29 15 45 25 31 19 100 58 170 97 147 81 473 238 530 255 22 7 62 24 88 37 27 13 51 22 54 19 3 -3 22 3 42 14 57 29 222 87 421 150 74 23 144 46 155 50 32 14 126 38 175 45 25 4 77 16 115 28 39 12 72 22 75 22 3 1 23 6 45 12 22 7 67 17 100 23 90 17 155 30 200 41 41 9 290 44 430 60 258 28 688 49 875 42 58 -2 193 -11 300 -19z"/>
 <path d="M7472 4104 c-12 -8 -22 -12 -22 -8 0 3 -7 1 -15 -6 -8 -7 -15 -9 -15 -5 0 13 -134 -66 -197 -117 -88 -69 -215 -229 -194 -243 6 -3 24 16 42 42 84 124 163 196 297 271 40 23 75 41 77 42 3 0 6 0 8 1 1 0 10 2 21 4 24 5 41 21 29 28 -6 4 -19 -1 -31 -9z"/>
 <path d="M8206 4041 c-8 -13 6 -22 119 -79 55 -28 128 -67 162 -87 70 -40 97 -31 31 11 -86 55 -307 164 -312 155z"/>
 <path d="M8686 3771 c-4 -5 7 -19 23 -30 16 -12 32 -17 35 -12 4 5 -7 19 -23 30 -16 12 -32 17 -35 12z"/>
 <path d="M8756 3721 c-4 -5 7 -19 23 -30 16 -12 32 -17 35 -12 4 5 -7 19 -23 30 -16 12 -32 17 -35 12z"/>
 <path d="M8870 3548 c-36 -28 -129 -93 -208 -145 -78 -52 -140 -99 -136 -104 3 -6 21 0 42 13 140 84 385 265 377 278 -8 13 0 17 -75 -42z"/>
 <path d="M7147 3344 c-3 -4 -2 -16 4 -26 8 -15 14 -17 22 -9 8 8 7 15 -4 26 -8 9 -18 13 -22 9z"/>
 <path d="M8095 3099 c-38 -15 -104 -36 -145 -45 -87 -19 -95 -23 -82 -36 22 -22 320 70 315 97 -3 16 -15 14 -88 -16z"/>
 <path d="M7475 3081 c-10 -17 108 -58 182 -63 74 -5 47 15 -49 37 -51 12 -100 25 -109 29 -10 4 -20 3 -24 -3z"/>
 <path d="M5315 2851 c-6 -11 13 -26 22 -17 3 3 12 1 19 -4 6 -6 16 -10 20 -8 5 1 31 -8 58 -20 33 -15 53 -19 60 -12 11 11 -78 55 -93 45 -5 -3 -13 0 -16 6 -4 5 -13 8 -21 5 -7 -3 -16 -1 -19 4 -8 13 -22 13 -30 1z"/>
 <path d="M4790 2838 c-108 -47 -159 -73 -201 -104 -61 -44 -54 -66 7 -24 39 27 133 74 217 109 15 6 25 16 22 21 -7 12 -13 12 -45 -2z"/>
 <path d="M4401 2572 c-13 -25 2 -38 19 -16 9 10 10 18 3 25 -8 8 -14 5 -22 -9z"/>
 <path d="M5635 2438 c-9 -24 -1 -113 10 -111 14 4 19 103 6 116 -7 7 -12 5 -16 -5z"/>
 <path d="M5624 2256 c-4 -10 -2 -22 4 -28 8 -8 13 -7 18 6 4 10 2 22 -4 28 -8 8 -13 7 -18 -6z"/>
 <path d="M5621 2196 c-7 -8 -13 -25 -15 -38 -1 -13 -6 -30 -10 -37 -5 -7 -4 -17 2 -23 7 -7 14 -3 21 11 7 12 10 21 7 21 -3 0 2 16 9 34 15 36 6 56 -14 32z"/>
 <path d="M4191 2171 c-29 -53 -113 -369 -100 -376 13 -8 24 21 57 145 17 63 40 142 51 175 20 59 14 98 -8 56z"/>
 <path d="M5440 1834 c-9 -10 -10 -18 -3 -25 8 -8 14 -5 22 9 13 25 -2 38 -19 16z"/>
 <path d="M5014 1536 c-29 -12 -59 -28 -68 -35 -9 -7 -16 -10 -16 -6 0 4 -7 1 -17 -6 -9 -8 -18 -13 -20 -11 -1 1 -5 1 -8 1 -3 -1 -9 -2 -15 -3 -5 0 -10 -4 -10 -8 0 -5 0 -11 0 -14 0 -4 7 -1 15 6 8 7 15 9 15 5 0 -4 7 -2 15 5 8 7 15 9 15 5 0 -4 7 -2 15 5 8 7 15 10 15 7 0 -10 127 47 129 58 4 16 -11 14 -65 -9z"/>
 <path d="M4586 1401 c-4 -6 -13 -8 -20 -5 -17 6 -31 -12 -16 -21 5 -3 16 -3 23 2 6 4 17 8 22 8 14 0 19 19 7 23 -6 2 -13 -1 -16 -7z"/>
 <path d="M4151 1317 c-6 -8 -8 -17 -5 -20 10 -9 45 13 39 24 -9 13 -21 11 -34 -4z"/>
 </g>
<g id="layerbg4" fill="#af8733" stroke="none">
 <path d="M3592 10558 c-9 -9 -12 -137 -12 -513 0 -568 -6 -531 82 -536 26 -2 50 0 54 4 9 9 5118 9 5128 0 3 -4 30 -6 59 -4 94 5 87 -35 87 536 0 376 -3 504 -12 513 -17 17 -5369 17 -5386 0z"/>
 </g>
<g id="layerbg5" fill="#ece6b3" stroke="none">
 <path d="M6199 11309 c-211 -8 -391 -20 -554 -38 -140 -16 -389 -51 -430 -60 -45 -11 -110 -24 -200 -41 -33 -6 -78 -16 -100 -23 -22 -6 -42 -11 -45 -12 -3 0 -36 -10 -75 -22 -38 -12 -90 -24 -115 -28 -49 -7 -143 -31 -175 -45 -11 -4 -81 -27 -155 -50 -199 -63 -364 -121 -421 -150 -20 -11 -39 -17 -42 -14 -3 3 -27 -6 -54 -19 -26 -13 -66 -30 -88 -37 -57 -17 -383 -174 -530 -255 -70 -39 -139 -78 -170 -97 -16 -10 -37 -21 -45 -25 -8 -3 -33 -18 -55 -33 -22 -14 -47 -30 -56 -35 -47 -28 -96 -64 -108 -79 -7 -9 -19 -16 -26 -16 -8 0 -37 -22 -67 -49 -29 -26 -64 -52 -78 -56 -29 -9 -160 -111 -245 -190 -33 -31 -118 -107 -190 -169 -197 -171 -406 -400 -602 -657 -81 -107 -115 -158 -245 -364 -76 -121 -308 -573 -308 -601 0 -4 -8 -26 -19 -48 -30 -67 -76 -181 -73 -184 1 -1 -5 -16 -14 -33 -8 -17 -17 -38 -19 -47 -7 -35 -67 -230 -91 -295 -13 -37 -31 -100 -40 -140 -9 -40 -22 -99 -30 -132 -17 -74 -57 -312 -78 -460 -29 -206 -36 -317 -36 -594 -1 -421 17 -619 94 -1036 29 -161 93 -415 107 -429 5 -6 9 -22 9 -37 0 -14 12 -60 26 -100 14 -41 34 -105 45 -144 12 -38 35 -101 53 -140 18 -38 39 -88 46 -110 7 -22 22 -60 35 -85 12 -25 29 -62 38 -82 9 -21 24 -53 32 -70 8 -18 42 -95 76 -171 33 -76 78 -164 99 -195 20 -31 42 -73 49 -93 6 -20 22 -46 35 -59 14 -12 30 -36 37 -53 7 -18 31 -58 54 -89 22 -31 53 -79 70 -105 16 -26 54 -81 85 -122 30 -41 78 -107 105 -146 73 -106 188 -254 233 -300 21 -22 89 -96 149 -165 61 -69 155 -166 209 -215 55 -49 124 -115 154 -145 178 -177 675 -542 965 -707 135 -77 457 -243 471 -243 3 0 38 -16 77 -35 39 -19 77 -35 85 -35 7 0 50 -18 94 -40 45 -22 89 -40 98 -40 26 0 130 -37 181 -65 26 -14 56 -25 67 -25 11 0 66 -15 123 -34 159 -51 316 -94 396 -105 39 -6 84 -16 100 -22 34 -13 59 -19 98 -24 102 -14 124 -18 163 -31 23 -8 69 -14 100 -14 32 0 63 -5 69 -11 11 -11 124 -21 222 -19 29 0 60 -5 68 -11 10 -9 70 -13 193 -13 98 -1 182 -4 186 -9 10 -9 78 -9 88 1 4 4 81 8 169 9 188 2 237 5 255 16 7 5 29 7 50 6 21 -2 43 0 49 4 7 4 36 7 65 6 29 -1 85 6 123 14 39 9 96 16 127 17 31 0 60 4 63 10 3 5 24 10 45 10 22 0 49 4 62 10 13 5 59 16 103 24 44 8 127 26 185 40 58 15 119 29 135 32 17 3 35 9 40 14 6 4 62 22 125 40 63 18 147 44 185 57 39 14 95 31 125 39 30 8 82 28 115 44 84 40 153 70 160 70 8 0 137 58 155 71 8 5 31 16 50 25 19 8 67 31 106 50 39 19 76 34 82 34 6 0 48 25 93 56 45 31 103 66 128 77 25 11 67 35 92 53 26 19 50 34 53 34 11 0 207 130 271 180 33 25 78 57 100 71 22 13 71 50 108 82 37 32 90 73 117 91 139 91 613 567 723 724 22 31 63 82 91 112 29 30 67 78 86 105 18 28 51 71 72 96 21 26 38 50 38 53 0 6 64 105 138 211 15 22 38 60 51 85 13 25 34 59 46 76 13 16 31 46 39 65 9 19 29 57 44 84 34 61 62 114 73 137 10 21 29 57 40 78 25 46 99 203 99 209 0 6 70 183 89 226 6 11 15 38 22 60 6 22 18 49 25 60 8 11 14 26 14 35 0 8 17 69 38 135 67 209 81 258 102 355 11 52 24 104 29 115 5 11 16 70 26 130 9 61 23 130 30 155 13 45 46 323 46 390 0 19 3 42 6 50 4 8 9 65 10 125 2 61 6 181 9 268 3 109 1 163 -6 172 -8 9 -9 41 -4 99 4 57 3 90 -4 99 -6 7 -14 56 -17 108 -13 190 -17 234 -25 244 -5 6 -9 34 -8 63 0 29 -5 58 -10 65 -12 15 -32 117 -32 167 0 20 -4 40 -9 46 -10 11 -40 134 -46 189 -2 22 -13 67 -25 100 -12 33 -29 89 -39 125 -10 36 -24 78 -30 95 -7 16 -23 72 -37 125 -14 52 -42 129 -63 170 -21 41 -46 102 -55 135 -10 33 -38 101 -64 150 -25 50 -51 101 -58 115 -7 14 -19 40 -28 58 -65 131 -115 224 -132 243 -8 8 -14 19 -14 23 0 5 -14 28 -30 53 -17 24 -30 46 -30 49 0 11 -102 167 -171 261 -202 279 -245 334 -387 492 -165 183 -362 375 -562 546 -157 134 -690 505 -727 505 -3 0 -14 6 -22 14 -22 19 -118 70 -423 222 -48 24 -96 44 -107 44 -11 0 -23 5 -26 10 -10 15 -75 46 -115 54 -19 3 -53 15 -75 25 -56 25 -166 61 -188 61 -9 0 -25 4 -35 10 -43 25 -402 143 -447 147 -27 2 -64 11 -82 19 -17 8 -47 14 -66 14 -19 0 -52 7 -72 16 -21 9 -59 16 -84 16 -25 0 -51 4 -57 9 -25 20 -619 82 -894 92 -58 2 -202 0 -321 -4z m2769 -1266 l-3 -508 -50 -3 c-27 -2 -55 -8 -62 -14 -10 -8 -13 -344 -13 -1709 l0 -1699 -1184 0 c-975 0 -1186 -2 -1195 -13 -11 -14 -20 -152 -46 -702 -43 -912 -43 -914 1 -1037 92 -256 274 -467 527 -610 l71 -41 25 30 c14 16 46 58 71 93 76 106 214 205 357 255 97 34 188 47 323 47 103 0 127 -4 235 -37 131 -39 395 -164 505 -237 36 -25 94 -61 129 -81 51 -31 233 -158 264 -186 10 -9 -198 -161 -359 -262 -156 -97 -395 -217 -524 -261 -92 -32 -100 -33 -255 -33 -141 0 -168 3 -231 23 -203 67 -384 226 -485 427 -38 75 -36 74 -199 150 -145 67 -281 165 -417 298 -56 54 -106 96 -111 93 -6 -3 -14 -21 -17 -39 -14 -60 -92 -252 -157 -382 -130 -259 -334 -583 -499 -795 l-82 -104 24 -91 c20 -76 24 -114 24 -240 0 -176 -7 -206 -81 -362 -66 -138 -173 -270 -278 -345 -151 -107 -396 -202 -686 -267 -272 -61 -373 -80 -519 -97 l-53 -7 5 39 c4 21 9 64 12 94 16 133 90 476 139 635 75 249 198 474 309 568 155 130 258 180 432 213 156 29 434 5 548 -47 24 -11 30 -10 53 12 60 56 260 383 391 639 95 185 138 285 191 445 66 198 66 204 53 572 -7 179 -14 335 -16 347 -2 11 -6 110 -10 219 -4 109 -8 203 -9 210 -11 52 -16 128 -21 292 -7 254 -16 438 -24 510 l-6 60 -1172 3 -1173 2 0 1699 c0 1361 -3 1701 -13 1709 -7 6 -33 12 -57 14 l-45 3 -3 508 -2 507 2685 0 2685 0 -2 -507z"/>
 <path d="M6196 8342 c-14 -17 -16 -47 -14 -263 2 -156 7 -243 13 -242 6 2 11 95 13 248 l2 245 40 0 39 0 3 -72 c2 -40 8 -73 13 -73 6 0 11 31 13 69 2 53 -1 72 -14 87 -23 25 -85 25 -108 1z"/>
 <path d="M4547 8189 c-9 -6 -15 -14 -12 -19 3 -5 1 -11 -5 -15 -6 -4 -10 -87 -10 -224 0 -197 2 -221 18 -241 12 -15 23 -20 32 -15 10 6 10 10 -3 20 -14 10 -16 42 -17 241 -1 226 -1 229 20 234 23 5 29 24 8 27 -7 2 -21 -2 -31 -8z"/>
 <path d="M4765 8190 c-7 -12 19 -24 37 -17 7 2 25 -4 40 -15 15 -10 29 -14 32 -9 7 11 -33 43 -45 35 -4 -2 -10 0 -14 6 -8 13 -42 13 -50 0z"/>
 <path d="M5066 8179 c-53 -28 -33 -45 22 -18 23 12 39 25 36 30 -7 12 -13 11 -58 -12z"/>
 <path d="M5206 8191 c-3 -5 12 -18 34 -29 49 -24 64 -10 18 18 -37 22 -44 24 -52 11z"/>
 <path d="M5616 8161 c-21 -21 -34 -41 -29 -44 6 -4 27 11 47 32 21 21 34 41 29 44 -6 4 -27 -11 -47 -32z"/>
 <path d="M5686 8191 c-3 -4 6 -19 19 -31 14 -13 25 -27 25 -32 0 -5 -23 -33 -51 -63 -27 -29 -46 -56 -41 -59 5 -3 31 18 59 47 49 50 51 55 44 108 -2 12 -50 39 -55 30z"/>
 <path d="M5852 8180 c-46 -28 -31 -42 18 -18 22 11 37 24 34 29 -8 13 -15 11 -52 -11z"/>
 <path d="M6005 8190 c-3 -6 6 -15 21 -20 15 -6 30 -13 35 -15 4 -3 10 -1 14 4 3 6 -8 17 -24 26 -35 18 -38 18 -46 5z"/>
 <path d="M6605 8180 c-21 -23 -9 -31 23 -14 30 15 61 10 78 -14 8 -11 13 -12 18 -3 24 39 -86 68 -119 31z"/>
 <path d="M6995 8188 c-58 -32 -122 -115 -111 -145 8 -19 26 -7 26 17 0 27 46 78 92 101 21 11 36 24 33 29 -8 13 -15 12 -40 -2z"/>
 <path d="M7115 8191 c-3 -6 9 -17 27 -24 37 -16 57 -11 36 8 -19 19 -55 27 -63 16z"/>
 <path d="M7446 8192 c-4 -6 -13 -9 -20 -6 -17 7 -88 -54 -80 -68 4 -5 15 -1 28 10 49 45 103 55 151 29 30 -17 46 -17 52 -1 6 16 78 20 88 4 4 -6 11 -8 16 -4 6 4 3 14 -7 25 -24 26 -89 26 -106 -1 -11 -17 -14 -18 -29 -4 -21 19 -84 30 -93 16z"/>
 <path d="M7885 8190 c-4 -6 -10 -8 -15 -5 -15 10 -54 -15 -42 -27 7 -7 18 -6 33 3 25 13 121 20 113 8 -2 -4 0 -10 5 -13 17 -11 21 11 5 25 -20 16 -91 22 -99 9z"/>
 <path d="M5381 8166 c-13 -14 -21 -32 -19 -43 4 -24 22 -22 27 3 1 10 10 26 18 36 23 26 -2 30 -26 4z"/>
 <path d="M6326 8173 c-20 -10 -25 -18 -18 -25 8 -8 15 -8 24 -1 72 56 199 -30 202 -137 1 -19 6 -36 11 -38 12 -3 19 44 9 66 -4 10 -8 25 -9 35 -2 20 -59 82 -90 100 -31 17 -97 17 -129 0z"/>
 <path d="M7789 8126 c-9 -20 -10 -29 -1 -38 8 -8 14 -4 22 17 15 39 -4 58 -21 21z"/>
 <path d="M5296 8132 c-3 -5 3 -17 13 -26 11 -10 22 -13 25 -8 3 5 -3 17 -13 26 -11 10 -22 13 -25 8z"/>
 <path d="M4898 8124 c-10 -10 21 -66 32 -59 6 4 10 10 10 14 0 15 -35 53 -42 45z"/>
 <path d="M7225 8120 c-9 -15 25 -74 37 -62 6 6 4 20 -6 41 -18 33 -22 36 -31 21z"/>
 <path d="M7976 8109 c-15 -23 -12 -44 5 -34 5 4 13 15 19 25 15 28 -6 35 -24 9z"/>
 <path d="M5935 8090 c-8 -12 20 -24 35 -15 6 3 8 11 5 16 -8 12 -32 12 -40 -1z"/>
 <path d="M5145 8080 c-3 -6 -10 -8 -14 -5 -13 7 -54 -42 -46 -55 5 -8 15 -3 30 16 13 16 29 29 36 29 8 0 15 4 17 10 5 14 -15 18 -23 5z"/>
 <path d="M7055 8080 c-3 -6 -10 -8 -14 -5 -16 9 -45 -36 -45 -72 0 -26 7 -42 28 -59 35 -31 67 -30 105 1 33 29 40 77 13 107 -21 25 -33 12 -17 -18 13 -26 11 -47 -8 -71 -13 -18 -62 -16 -81 3 -32 31 -9 98 33 99 11 0 21 5 21 10 1 14 -27 18 -35 5z"/>
 <path d="M5334 8066 c-4 -10 -2 -22 4 -28 8 -8 13 -7 18 6 4 10 2 22 -4 28 -8 8 -13 7 -18 -6z"/>
 <path d="M5886 8061 c-10 -11 -13 -22 -8 -25 5 -3 17 3 26 13 10 11 13 22 8 25 -5 3 -17 -3 -26 -13z"/>
 <path d="M7447 8059 c-12 -10 -18 -18 -13 -19 5 0 4 -6 -2 -13 -6 -7 -11 -51 -12 -97 -2 -109 -3 -105 16 -90 12 11 15 32 13 104 -2 89 -2 91 24 104 19 9 32 10 46 2 22 -11 39 4 19 17 -24 14 -68 11 -91 -8z"/>
 <path d="M7902 8068 c-18 -18 -15 -113 3 -128 8 -7 15 -10 16 -6 2 30 0 138 -3 141 -2 3 -10 -1 -16 -7z"/>
 <path d="M5776 8062 c-3 -5 5 -19 18 -31 13 -13 26 -18 30 -13 3 5 -5 19 -18 31 -13 13 -26 18 -30 13z"/>
 <path d="M4969 8058 c-7 -16 -5 -89 2 -94 5 -3 7 -9 4 -14 -9 -15 25 -74 36 -63 7 7 4 22 -8 44 -11 21 -18 51 -17 76 1 24 -2 45 -7 49 -5 3 -10 4 -10 2z"/>
 <path d="M6406 8052 c-3 -6 -2 -13 4 -17 14 -9 13 -48 -2 -63 -9 -9 -9 -15 -1 -23 12 -12 43 24 43 52 0 24 -35 65 -44 51z"/>
 <path d="M4806 8033 c-3 -3 -6 -14 -6 -24 0 -9 -8 -20 -17 -23 -13 -5 -14 -9 -4 -19 10 -9 17 -7 32 12 10 13 19 29 19 37 0 15 -15 26 -24 17z"/>
 <path d="M7254 8026 c-8 -21 3 -49 16 -41 5 3 10 15 10 25 0 25 -18 36 -26 16z"/>
 <path d="M5224 8016 c-4 -10 -2 -22 4 -28 8 -8 13 -7 18 6 4 10 2 22 -4 28 -8 8 -13 7 -18 -6z"/>
 <path d="M5980 8008 c-14 -6 -36 -15 -50 -21 -14 -5 -33 -11 -43 -12 -42 -4 -120 -86 -100 -106 8 -8 15 -3 24 17 13 25 89 79 114 79 27 1 75 18 85 30 15 18 0 25 -30 13z"/>
 <path d="M7555 8008 c-10 -24 -1 -163 10 -163 13 0 19 155 6 168 -7 7 -12 5 -16 -5z"/>
 <path d="M5441 7986 c-13 -13 -18 -26 -13 -30 5 -3 19 5 31 18 13 13 18 26 13 30 -5 3 -19 -5 -31 -18z"/>
 <path d="M4901 7956 c-17 -35 -20 -49 -12 -65 14 -26 14 -97 0 -123 -8 -14 -8 -23 0 -31 7 -7 15 0 26 26 18 43 19 82 4 125 -9 25 -7 37 7 61 13 22 15 34 7 42 -7 7 -17 -2 -32 -35z"/>
 <path d="M5085 7990 c-11 -18 48 -70 78 -70 12 0 33 7 45 16 27 18 20 39 -8 24 -33 -18 -67 -11 -88 17 -14 19 -21 23 -27 13z"/>
 <path d="M6304 7989 c-9 -15 43 -66 55 -54 6 6 -2 21 -19 38 -19 17 -31 23 -36 16z"/>
 <path d="M4710 7965 c-19 -23 -1 -39 21 -19 10 9 16 21 13 25 -8 13 -20 11 -34 -6z"/>
 <path d="M5675 7971 c-4 -8 5 -25 25 -46 34 -35 33 -54 -4 -84 -9 -8 -13 -18 -10 -23 10 -17 63 42 60 67 -4 33 -61 102 -71 86z"/>
 <path d="M6886 7973 c-10 -11 -7 -27 14 -61 24 -39 45 -34 24 6 -7 15 -14 32 -14 39 0 15 -15 25 -24 16z"/>
 <path d="M7775 7961 c-3 -6 -10 -9 -15 -6 -5 3 -18 -3 -30 -15 -24 -24 -28 -91 -5 -110 17 -14 18 -11 15 43 -2 41 14 69 35 61 17 -7 30 15 17 28 -6 6 -12 6 -17 -1z"/>
 <path d="M6734 7949 c-13 -21 66 -32 136 -20 2 1 -1 6 -8 13 -13 13 -121 18 -128 7z"/>
 <path d="M7236 7929 c-10 -20 -13 -36 -7 -42 6 -6 16 3 26 23 11 21 13 36 7 42 -6 6 -15 -2 -26 -23z"/>
 <path d="M7976 7942 c-2 -4 4 -19 14 -32 17 -22 19 -23 25 -7 11 26 -25 62 -39 39z"/>
 <path d="M5301 7899 c-19 -23 -50 -48 -69 -56 -23 -10 -31 -18 -24 -25 14 -14 61 13 106 62 20 22 34 45 31 50 -8 13 -5 15 -44 -31z"/>
 <path d="M5552 7918 c-7 -7 -12 -8 -12 -3 0 5 -20 -11 -46 -35 -25 -25 -54 -45 -64 -45 -11 0 -21 -4 -22 -10 -2 -5 9 -10 24 -10 20 -1 41 12 75 47 l47 48 47 -46 c26 -25 49 -42 52 -37 4 5 -15 31 -41 56 -37 37 -50 45 -60 35z"/>
 <path d="M6077 7924 c-3 -4 -34 -14 -67 -23 -64 -18 -78 -38 -22 -33 45 4 125 40 117 52 -7 11 -19 13 -28 4z"/>
 <path d="M4706 7902 c-3 -5 3 -17 14 -27 11 -10 20 -15 20 -12 0 4 11 2 25 -3 13 -5 27 -5 30 -1 7 12 -22 34 -37 28 -7 -2 -20 2 -30 10 -9 8 -19 10 -22 5z"/>
 <path d="M5364 7896 c-4 -10 -2 -22 4 -28 8 -8 13 -7 18 6 4 10 2 22 -4 28 -8 8 -13 7 -18 -6z"/>
 <path d="M6486 7881 c-10 -11 -13 -22 -8 -25 5 -3 17 3 26 13 10 11 13 22 8 25 -5 3 -17 -3 -26 -13z"/>
 <path d="M6946 7872 c-3 -5 3 -17 13 -26 11 -10 22 -13 25 -8 3 5 -3 17 -13 26 -11 10 -22 13 -25 8z"/>
 <path d="M7991 7858 c-5 -13 -7 -27 -4 -31 6 -11 33 12 33 29 0 24 -20 26 -29 2z"/>
 <path d="M5036 7861 c-10 -15 74 -55 87 -42 6 6 -3 15 -29 27 -22 10 -42 20 -46 22 -3 1 -9 -2 -12 -7z"/>
 <path d="M6295 7860 c-3 -5 8 -16 24 -25 37 -18 50 -3 16 19 -28 19 -32 19 -40 6z"/>
 <path d="M6596 7861 c-8 -12 10 -42 22 -39 4 1 15 -2 25 -6 9 -5 23 -6 30 -3 6 2 17 5 22 7 18 3 35 22 29 32 -3 5 -12 4 -21 -3 -22 -19 -71 -15 -87 6 -9 13 -15 15 -20 6z"/>
 <path d="M6865 7860 c-4 -6 -18 -16 -33 -21 -18 -7 -22 -13 -15 -20 8 -8 17 -8 30 0 29 15 46 38 34 45 -5 4 -13 1 -16 -4z"/>
 <path d="M7147 7847 c-25 -13 -35 -23 -29 -29 10 -10 65 13 77 31 11 18 -10 17 -48 -2z"/>
 <path d="M6435 7846 c-14 -10 -15 -15 -6 -21 8 -4 19 -1 28 8 20 19 1 30 -22 13z"/>
 <path d="M7664 7850 c-5 -5 -25 -10 -44 -12 -43 -4 -46 -22 -4 -26 32 -3 86 30 67 41 -5 3 -14 2 -19 -3z"/>
 <path d="M5774 7836 c-8 -21 3 -49 16 -41 5 3 10 15 10 25 0 25 -18 36 -26 16z"/>
 <path d="M6225 7830 c-8 -12 20 -24 35 -15 6 3 8 11 5 16 -8 12 -32 12 -40 -1z"/>
 <path d="M7345 7831 c-7 -13 17 -24 40 -19 9 1 16 8 16 13 0 14 -48 19 -56 6z"/>
 <path d="M4774 7816 c-10 -8 -22 -14 -26 -15 -5 0 -8 -3 -8 -6 0 -3 0 -8 0 -12 0 -4 5 -2 11 4 6 6 17 9 24 7 14 -6 40 22 27 30 -5 3 -17 -1 -28 -8z"/>
 <path d="M6055 7821 c-7 -13 12 -24 27 -15 7 5 8 3 4 -5 -5 -7 -1 -20 8 -30 15 -16 14 -19 -7 -39 -30 -28 -73 -44 -124 -46 -24 0 -44 -5 -45 -11 -4 -12 58 -19 80 -9 17 7 27 10 49 12 22 3 83 64 76 76 -4 6 -8 17 -9 24 -3 16 -34 52 -45 52 -4 0 -10 -4 -14 -9z"/>
 <path d="M7895 7818 c-9 -22 -2 -68 10 -71 14 -3 19 63 6 76 -7 7 -12 5 -16 -5z"/>
 <path d="M5905 7800 c-13 -21 69 -36 92 -18 19 15 5 30 -17 18 -12 -6 -28 -7 -44 0 -15 5 -28 5 -31 0z"/>
 <path d="M5796 7752 c-6 -10 67 -82 83 -82 21 0 20 20 -1 31 -13 6 -35 23 -49 36 -15 14 -29 20 -33 15z"/>
 <path d="M7875 7716 c-14 -10 -15 -15 -6 -21 8 -4 19 -1 28 8 20 19 1 30 -22 13z"/>
 </g>
<g id="layerbg6" fill="#fbfbfa" stroke="none">
 <path d="M6202 8338 c-15 -15 -17 -504 -3 -512 21 -13 95 -9 104 5 8 13 15 13 49 -4 38 -19 39 -19 83 0 26 11 58 37 79 64 32 39 36 50 36 104 0 45 -6 69 -23 97 -48 79 -142 116 -193 76 -16 -12 -24 22 -24 98 0 70 -10 84 -60 84 -20 0 -41 -5 -48 -12z m192 -290 c29 -12 40 -38 31 -68 -8 -24 -68 -38 -90 -20 -21 18 -19 56 5 80 23 23 22 23 54 8z"/>
 <path d="M5118 8193 c-68 -19 -138 -86 -148 -141 -14 -81 21 -172 81 -205 64 -37 109 -46 158 -31 47 14 113 70 138 118 23 45 11 137 -24 182 -56 70 -131 99 -205 77z m65 -134 c38 -17 50 -45 35 -80 -16 -36 -52 -48 -87 -28 -21 12 -26 22 -26 54 0 32 5 42 25 52 30 15 24 15 53 2z"/>
 <path d="M5900 8195 c-64 -24 -92 -43 -117 -80 l-25 -37 33 -34 c37 -38 69 -40 99 -5 28 32 65 44 91 31 54 -29 42 -61 -28 -80 -128 -35 -178 -87 -176 -184 1 -29 9 -47 35 -73 49 -51 85 -67 147 -64 65 3 107 19 140 54 23 25 23 27 7 60 -20 44 -57 55 -95 30 -36 -24 -79 -25 -91 -2 -14 25 18 53 78 67 125 29 159 67 149 168 -8 80 -38 115 -121 142 -76 25 -79 25 -126 7z"/>
 <path d="M7048 8200 c-168 -50 -220 -222 -101 -335 71 -68 145 -74 243 -18 45 25 87 103 85 158 -1 22 -14 64 -29 93 -23 45 -35 57 -79 77 -69 31 -87 35 -119 25z m62 -145 c25 -13 29 -20 27 -52 -2 -45 -37 -70 -81 -59 -49 12 -58 98 -12 116 30 12 33 12 66 -5z"/>
 <path d="M4573 8194 c-42 -10 -44 -22 -44 -261 1 -281 -9 -263 157 -263 136 0 182 18 214 81 22 42 26 109 9 140 -8 15 -4 32 16 75 17 36 24 63 19 77 -16 54 -47 99 -84 123 -36 24 -50 27 -152 30 -62 1 -123 0 -135 -2z m221 -150 c29 -29 15 -64 -25 -64 -33 0 -69 -31 -69 -58 0 -25 36 -56 63 -57 16 0 23 -7 25 -27 4 -30 -12 -36 -85 -29 l-43 3 0 124 0 124 59 0 c41 0 65 -5 75 -16z"/>
 <path d="M5397 8172 c-38 -40 -34 -65 19 -122 l47 -50 -47 -43 c-35 -33 -46 -51 -46 -74 0 -54 63 -88 96 -52 10 12 36 35 57 52 l38 30 53 -52 c28 -28 57 -51 63 -51 12 0 73 66 73 80 0 5 -5 12 -10 15 -6 4 -29 29 -51 57 l-40 50 51 54 c27 29 50 57 50 63 0 13 -59 71 -72 71 -5 0 -35 -22 -65 -50 l-56 -49 -54 49 c-30 28 -60 50 -67 50 -7 0 -24 -13 -39 -28z"/>
 <path d="M6640 8193 c-47 -17 -50 -29 -50 -183 0 -131 2 -150 19 -172 16 -20 26 -24 53 -20 18 2 38 9 45 14 8 6 24 4 47 -7 43 -20 85 -13 115 19 45 48 -4 114 -73 100 -58 -10 -66 4 -66 111 0 74 -4 97 -17 113 -20 23 -50 33 -73 25z"/>
 <path d="M7419 8181 c-39 -24 -80 -64 -95 -93 -18 -35 -20 -238 -2 -256 16 -16 95 -15 105 1 4 6 10 56 13 110 6 105 12 117 62 117 40 0 52 -31 58 -140 l5 -95 44 -3 c76 -6 81 6 81 183 0 134 -2 154 -18 168 -24 22 -80 22 -104 1 -14 -14 -20 -14 -33 -4 -27 22 -88 28 -116 11z"/>
 <path d="M7900 8191 c-91 -18 -120 -59 -123 -177 -2 -57 -4 -62 -29 -72 -25 -9 -28 -15 -28 -55 0 -45 27 -86 49 -73 6 4 11 -15 13 -51 3 -58 3 -58 41 -67 31 -8 42 -6 65 11 24 18 27 26 24 67 -4 46 -4 46 25 40 43 -8 77 23 77 71 0 46 -35 78 -76 70 -28 -4 -28 -4 -28 50 0 49 2 55 20 55 28 0 70 44 70 73 0 48 -37 70 -100 58z"/>
 </g>
<g id="layerbg7" fill="#579d42" stroke="none">
 <path d="M7665 4147 c-233 -22 -471 -163 -599 -357 -20 -30 -36 -58 -36 -62 0 -21 214 -106 364 -144 172 -45 304 -64 493 -74 207 -10 548 1 693 24 52 8 111 17 130 20 19 2 62 9 95 15 50 9 61 8 68 -4 4 -8 14 -15 21 -15 19 0 51 39 40 49 -29 28 -283 202 -364 249 -462 268 -636 325 -905 299z"/>
 <path d="M8765 3528 c-89 -24 -287 -66 -344 -73 -23 -3 -46 -7 -50 -9 -3 -2 -37 -7 -76 -10 -38 -4 -108 -12 -155 -18 -112 -14 -462 -13 -572 1 -47 6 -106 14 -130 17 -72 9 -249 51 -316 74 -91 31 -101 24 -62 -48 39 -74 89 -139 165 -214 102 -102 165 -144 280 -187 55 -21 209 -49 275 -50 74 -2 205 26 306 65 38 14 78 28 89 29 39 6 338 163 360 189 6 6 64 47 130 90 142 93 207 144 200 157 -8 11 -14 11 -100 -13z"/>
 <path d="M4917 2865 c-111 -23 -233 -74 -324 -136 -23 -16 -46 -29 -52 -29 -5 0 -18 -11 -29 -25 -11 -14 -24 -25 -29 -25 -10 0 -73 -62 -73 -72 0 -3 -13 -20 -30 -38 -16 -18 -30 -38 -30 -45 0 -7 -7 -18 -16 -26 -28 -23 -131 -242 -139 -294 -2 -11 -12 -49 -23 -85 -56 -175 -103 -363 -142 -565 -20 -101 -29 -220 -18 -232 12 -15 64 -17 73 -3 3 6 17 7 30 4 13 -3 30 -2 37 2 7 5 37 10 67 11 31 2 100 14 156 27 55 14 156 36 225 51 126 27 280 72 355 104 22 10 60 25 85 35 126 50 238 115 303 178 86 82 178 203 221 289 25 50 46 99 46 109 0 11 5 22 10 25 6 4 8 11 4 16 -3 5 2 23 10 40 9 18 13 42 10 54 -3 13 -2 25 3 28 11 7 10 227 0 245 -5 6 -6 16 -2 21 8 14 -25 138 -40 151 -11 9 -28 -6 -77 -67 -284 -350 -672 -727 -1022 -993 -152 -116 -345 -244 -354 -236 -4 4 1 12 10 17 10 5 89 66 175 134 236 185 501 441 705 680 159 187 384 472 431 546 l19 28 -33 20 c-92 56 -393 87 -542 56z"/>
 </g>
<g id="layer101" fill="#6b5e3c" stroke="none">
 <path d="M3705 9518 c-3 -7 -4 -778 -3 -1713 l3 -1700 1170 -3 c759 -1 1173 -6 1179 -12 13 -13 409 -13 422 0 6 6 425 11 1194 12 l1185 3 0 1710 0 1710 -2573 3 c-2053 2 -2574 0 -2577 -10z m2590 -1189 c5 -5 11 -42 13 -82 2 -39 7 -75 11 -80 4 -4 22 -2 39 4 62 21 159 -48 182 -129 13 -48 13 -46 -9 -95 -20 -43 -46 -72 -92 -101 -22 -14 -33 -15 -78 -4 -41 9 -57 9 -72 0 -30 -19 -66 -14 -83 10 -13 19 -16 58 -16 230 0 213 6 253 37 261 21 5 54 -2 68 -14z m-1496 -145 c48 -10 121 -85 122 -126 2 -62 -3 -93 -18 -116 -12 -19 -12 -29 -3 -52 31 -74 0 -154 -74 -189 -35 -17 -62 -21 -149 -21 -154 0 -147 -12 -147 244 0 211 6 251 37 259 28 7 197 8 232 1z m428 -3 c17 -1 102 -88 111 -113 5 -13 7 -47 6 -75 -2 -60 -33 -110 -88 -144 -49 -30 -140 -26 -190 9 -56 39 -78 73 -84 131 -5 58 11 101 55 146 46 46 79 54 190 46z m261 -41 c24 -28 50 -50 59 -50 9 0 40 23 69 50 29 28 57 50 63 50 14 0 51 -50 51 -69 0 -9 -20 -37 -45 -61 -25 -24 -45 -51 -45 -60 0 -9 20 -33 45 -53 53 -44 58 -75 19 -106 -26 -20 -27 -20 -53 -2 -14 11 -39 33 -55 50 -17 17 -38 31 -47 31 -10 0 -35 -20 -56 -45 -42 -51 -63 -56 -91 -20 -26 32 -20 54 29 101 21 21 39 42 39 46 0 5 -20 34 -45 66 -25 31 -45 62 -45 69 0 11 46 53 59 53 3 0 25 -23 49 -50z m576 19 c47 -32 68 -72 69 -129 1 -86 -56 -133 -186 -156 -50 -8 -70 -44 -42 -74 23 -26 69 -26 111 1 l34 21 30 -30 c16 -17 30 -35 30 -41 0 -19 -65 -60 -113 -71 -120 -26 -221 60 -201 171 13 68 54 102 154 129 58 15 70 26 70 61 0 58 -67 65 -135 13 -45 -34 -48 -34 -71 -19 -48 31 -20 97 58 137 43 23 151 15 192 -13z m627 21 c17 -9 19 -22 19 -100 0 -49 5 -101 10 -115 9 -24 14 -26 61 -24 46 3 54 0 71 -24 45 -62 -13 -108 -92 -72 -39 17 -41 17 -60 0 -17 -15 -27 -17 -56 -9 l-36 9 1 160 c1 136 4 162 18 173 20 15 38 15 64 2z m484 -20 c72 -44 108 -164 68 -228 -45 -73 -91 -101 -174 -103 -41 -2 -58 3 -91 27 -55 39 -76 77 -77 140 -1 84 27 134 98 172 44 24 131 20 176 -8z m354 5 c22 -11 29 -10 52 7 35 26 76 18 89 -18 6 -14 10 -84 10 -155 0 -118 -2 -131 -21 -150 -16 -16 -28 -20 -52 -15 -17 4 -35 12 -39 19 -4 6 -8 53 -8 104 0 84 -2 93 -22 107 -32 22 -55 20 -83 -9 -23 -22 -25 -32 -25 -113 0 -101 -8 -115 -62 -110 l-33 3 0 125 c0 116 2 127 24 159 27 38 96 73 126 64 11 -3 31 -11 44 -18z m433 12 c9 -7 18 -28 20 -47 3 -36 2 -37 -70 -56 -9 -3 -12 -22 -10 -71 l3 -68 42 0 c49 0 54 -4 57 -44 3 -45 -8 -56 -56 -56 l-43 0 -3 -58 c-3 -50 -6 -59 -27 -69 -13 -6 -35 -8 -49 -4 -24 6 -26 11 -26 61 0 53 -1 55 -35 69 -28 12 -35 20 -35 43 0 33 6 43 42 65 25 16 27 22 26 91 -1 89 11 113 65 138 49 22 75 23 99 6z"/>
 <path d="M6322 8047 c-29 -31 -28 -58 6 -90 33 -31 49 -33 79 -9 33 26 38 63 13 95 -27 34 -68 36 -98 4z"/>
 <path d="M4644 8067 c-2 -7 -3 -69 -2 -138 l3 -124 68 -3 c73 -3 97 7 97 39 0 20 -28 39 -57 39 -28 0 -40 17 -35 50 4 26 8 30 36 30 41 0 56 16 56 60 0 20 -5 41 -12 48 -17 17 -147 16 -154 -1z"/>
 <path d="M5106 8048 c-31 -42 -31 -42 -5 -79 17 -24 27 -29 63 -29 53 0 71 18 70 72 -2 49 -11 58 -61 65 -37 5 -43 2 -67 -29z"/>
 <path d="M7026 8061 c-12 -14 -16 -32 -14 -67 l3 -49 47 -3 c66 -4 88 10 88 56 0 55 -23 82 -69 82 -24 0 -44 -7 -55 -19z"/>
 <path d="M7020 3725 c-10 -12 0 -19 57 -45 432 -196 1026 -245 1658 -134 20 3 25 2 15 -4 -57 -34 -490 -104 -760 -122 -243 -17 -571 19 -802 86 -144 42 -153 44 -153 25 0 -18 105 -55 245 -86 420 -95 979 -72 1485 61 33 8 76 18 95 22 38 8 48 27 27 56 -12 17 -19 17 -83 7 -349 -58 -613 -75 -912 -61 -300 15 -612 88 -811 189 -48 25 -45 25 -61 6z"/>
 <path d="M5489 2802 c-9 -4 -52 -54 -95 -112 -284 -377 -494 -617 -764 -874 -116 -111 -374 -325 -463 -384 -41 -27 -48 -64 -14 -70 33 -7 353 221 588 418 249 209 587 553 803 819 59 71 66 85 54 97 -12 12 -26 -1 -101 -90 -167 -201 -335 -382 -498 -537 -221 -210 -258 -242 -459 -402 -49 -39 -47 -32 4 14 134 120 333 322 439 443 258 296 237 270 433 529 115 153 124 170 73 149z"/>
 </g>
<g id="layer102" fill="#916653" stroke="none">
 <path d="M6222 8358 c-7 -7 -12 -8 -12 -4 0 5 -7 3 -15 -4 -8 -7 -13 -16 -10 -20 3 -5 1 -11 -5 -15 -6 -4 -10 -59 -10 -137 0 -114 -2 -129 -15 -118 -8 7 -12 16 -9 21 7 13 -35 81 -47 74 -4 -3 1 -24 13 -47 14 -27 21 -57 20 -94 0 -30 4 -54 9 -54 6 0 8 4 5 9 -3 5 1 14 9 21 12 10 15 1 17 -62 2 -42 7 -72 13 -70 6 1 11 89 12 233 1 141 6 236 12 242 15 15 71 14 83 -1 6 -7 10 -47 9 -92 -2 -65 1 -81 13 -86 9 -4 22 -2 29 4 6 6 28 12 47 14 51 4 37 23 -15 21 l-45 -1 0 57 c0 31 -5 62 -12 69 -7 7 -8 12 -4 12 5 0 3 7 -4 15 -7 8 -16 13 -20 10 -5 -3 -11 -1 -15 5 -8 14 -38 13 -53 -2z"/>
 <path d="M5117 8206 c-35 -8 -60 -23 -93 -54 -52 -52 -48 -79 5 -30 53 49 75 58 138 58 40 0 68 -6 90 -20 41 -24 53 -9 15 19 -42 29 -99 39 -155 27z"/>
 <path d="M5946 8211 c-8 -12 25 -31 52 -31 11 0 32 -7 48 -14 15 -8 32 -13 36 -9 17 10 -23 41 -60 48 -20 3 -44 8 -54 11 -9 3 -19 0 -22 -5z"/>
 <path d="M4552 8200 c-12 -5 -27 -21 -32 -35 -6 -15 -10 -125 -10 -245 l0 -219 26 -20 c24 -19 40 -21 142 -21 97 0 123 3 160 21 42 21 102 92 89 106 -4 3 -2 12 4 19 13 16 4 48 -11 39 -6 -4 -10 -14 -9 -23 3 -27 -16 -65 -51 -97 -31 -30 -32 -30 -163 -33 -116 -3 -133 -2 -144 14 -18 24 -19 444 -1 462 8 8 52 12 130 12 97 0 126 -4 158 -19 50 -24 61 -10 18 21 -30 21 -45 23 -158 25 -69 2 -135 -2 -148 -7z"/>
 <path d="M5394 8192 c-32 -25 -48 -62 -35 -75 9 -9 13 -6 17 9 8 31 59 58 83 44 26 -13 36 3 15 24 -20 21 -54 20 -80 -2z"/>
 <path d="M5647 8199 c-34 -20 -108 -99 -102 -109 9 -15 12 -14 67 41 32 32 58 50 72 48 35 -2 39 0 26 16 -14 17 -37 19 -63 4z"/>
 <path d="M6613 8198 c-25 -12 -38 -37 -25 -50 5 -5 17 1 27 12 20 22 74 27 92 9 7 -7 13 -7 17 -1 9 15 -34 42 -64 41 -14 0 -35 -5 -47 -11z"/>
 <path d="M7097 8204 c-10 -11 3 -24 23 -24 10 0 39 -16 64 -35 44 -33 63 -34 50 -1 -3 8 -29 27 -57 41 -52 26 -69 30 -80 19z"/>
 <path d="M7405 8186 c-52 -25 -95 -80 -76 -99 6 -6 14 -1 21 14 38 69 111 96 171 61 36 -21 37 -21 54 -2 19 21 79 28 90 10 3 -6 6 -84 6 -175 0 -105 4 -165 10 -165 6 0 8 4 4 9 -3 5 -1 12 5 16 6 4 10 63 10 150 0 87 -4 146 -10 150 -6 4 -8 10 -5 15 11 18 -43 43 -77 35 -44 -9 -87 -10 -123 -1 -22 5 -44 0 -80 -18z"/>
 <path d="M7843 8188 c-42 -22 -83 -84 -68 -107 9 -15 25 -4 25 18 0 36 38 64 100 75 33 6 61 16 62 21 6 19 -76 15 -119 -7z"/>
 <path d="M6466 8162 c-2 -4 9 -23 26 -40 36 -40 52 -90 43 -142 -7 -44 8 -61 26 -29 14 27 6 94 -17 140 -18 37 -70 84 -78 71z"/>
 <path d="M5307 8134 c-3 -3 3 -20 14 -37 10 -18 19 -42 19 -54 0 -27 18 -40 26 -19 12 32 -39 129 -59 110z"/>
 <path d="M5734 8125 c-4 -10 -23 -32 -41 -48 -40 -35 -57 -63 -44 -72 13 -8 78 51 97 88 11 20 13 32 5 40 -7 7 -12 5 -17 -8z"/>
 <path d="M5101 8044 c-11 -15 -18 -31 -14 -37 4 -7 8 -20 8 -31 2 -25 32 -46 67 -46 38 0 80 42 76 76 -4 35 -22 31 -28 -8 -4 -28 -10 -33 -36 -36 -20 -2 -36 4 -49 18 -16 18 -17 23 -4 48 7 15 15 30 17 35 9 18 -19 4 -37 -19z"/>
 <path d="M5415 8060 c-4 -6 0 -21 8 -33 14 -21 13 -24 -20 -59 -25 -25 -34 -42 -29 -54 6 -15 14 -10 56 31 28 27 50 54 50 60 0 19 -57 68 -65 55z"/>
 <path d="M6006 8063 c-3 -3 -6 -15 -6 -25 0 -18 -43 -43 -67 -39 -7 1 -38 -11 -70 -28 -44 -22 -63 -38 -76 -66 -12 -26 -15 -41 -8 -48 7 -7 13 -2 20 16 18 45 69 87 109 87 11 0 25 7 32 15 7 8 16 12 21 9 5 -2 22 2 39 11 21 11 30 23 30 40 0 25 -12 39 -24 28z"/>
 <path d="M5776 8051 c-16 -26 63 -63 89 -41 19 16 11 30 -14 23 -10 -3 -30 3 -44 12 -15 9 -28 12 -31 6z"/>
 <path d="M7547 8033 c-4 -3 -7 -48 -7 -98 0 -70 4 -96 15 -105 18 -15 18 -17 15 100 -2 91 -8 119 -23 103z"/>
 <path d="M5340 7976 c-5 -15 -13 -38 -16 -51 -6 -24 -46 -64 -83 -85 -12 -6 -19 -15 -16 -20 18 -29 130 74 141 128 9 44 -11 66 -26 28z"/>
 <path d="M4710 7970 c-24 -24 -26 -72 -4 -94 20 -21 37 -11 24 14 -17 32 -12 67 11 73 12 3 18 10 14 16 -9 16 -23 13 -45 -9z"/>
 <path d="M6775 7961 c-43 -9 -28 -26 25 -27 55 0 64 4 49 22 -12 15 -25 16 -74 5z"/>
 <path d="M7965 7949 c-4 -6 2 -13 14 -16 17 -4 21 -13 21 -48 0 -35 -4 -44 -21 -48 -12 -3 -18 -10 -14 -16 18 -31 65 15 65 64 0 49 -47 95 -65 64z"/>
 <path d="M5705 7940 c-3 -4 1 -14 8 -22 27 -27 26 -45 -3 -67 -35 -25 -53 -20 -93 26 -35 40 -63 57 -71 44 -9 -13 41 -69 87 -98 39 -24 41 -25 74 -9 18 9 33 20 33 26 0 19 2 25 11 36 6 8 5 21 -2 37 -13 28 -35 42 -44 27z"/>
 <path d="M4785 7829 c-5 -7 -33 -9 -74 -7 -53 2 -66 0 -66 -12 0 -25 115 -26 145 -2 15 12 19 21 12 26 -6 3 -14 1 -17 -5z"/>
 <path d="M6097 7774 c8 -23 -16 -61 -46 -72 -14 -6 -35 -14 -46 -18 -22 -8 -22 -8 -87 1 -35 5 -56 15 -82 41 -43 43 -62 45 -41 4 24 -47 137 -94 182 -75 10 4 29 9 43 10 35 4 98 43 105 66 8 26 -3 59 -20 59 -9 0 -12 -6 -8 -16z"/>
 <path d="M7774 7729 c-11 -18 33 -49 71 -49 40 0 86 33 69 50 -8 8 -14 7 -24 -5 -16 -20 -69 -19 -91 1 -13 12 -19 12 -25 3z"/>
 <path d="M3705 6110 c-3 -6 0 -12 7 -15 7 -3 535 -6 1173 -8 l1160 -2 7 -55 c4 -30 11 -197 17 -370 6 -173 16 -355 21 -405 10 -86 16 -209 41 -825 13 -313 11 -332 -52 -523 -54 -162 -96 -261 -192 -447 -127 -247 -333 -587 -387 -635 -11 -10 -20 -23 -20 -30 0 -10 -77 -116 -236 -320 -55 -71 -156 -190 -315 -369 -187 -211 -422 -429 -642 -598 -135 -103 -149 -116 -142 -127 13 -22 84 22 315 193 202 150 288 222 475 396 190 177 272 260 396 400 381 428 649 810 857 1225 61 123 141 316 156 379 l7 29 97 -95 c104 -101 172 -155 286 -224 71 -43 85 -50 251 -130 168 -80 415 -134 715 -154 174 -12 296 -7 574 27 203 24 577 100 598 121 15 15 0 32 -28 32 -14 0 -120 -14 -237 -31 -369 -53 -674 -54 -972 -5 -269 45 -448 104 -680 224 -230 118 -428 346 -518 598 -44 123 -44 117 -2 1019 24 515 35 689 43 697 4 4 541 9 1192 10 786 2 1183 6 1180 13 -3 7 -413 10 -1200 10 -657 0 -1280 -1 -1385 -1 -104 0 -722 2 -1372 3 -792 2 -1184 0 -1188 -7z"/>
 </g>
<g id="layer103" fill="#889e43" stroke="none">
 <path d="M5485 11959 c-150 -8 -339 -25 -445 -41 -36 -5 -103 -14 -150 -19 -91 -11 -264 -46 -540 -108 -263 -60 -713 -209 -925 -306 -44 -20 -102 -47 -130 -60 -27 -12 -63 -26 -80 -29 -16 -4 -57 -25 -90 -46 -33 -21 -114 -65 -180 -98 -218 -110 -520 -301 -735 -467 -246 -189 -589 -507 -732 -678 -29 -35 -91 -107 -137 -161 -130 -150 -314 -401 -376 -511 -16 -27 -39 -64 -51 -82 -75 -101 -296 -530 -403 -779 -227 -531 -369 -1129 -421 -1771 -21 -257 -10 -898 19 -1123 26 -195 35 -252 53 -338 11 -52 25 -131 32 -175 19 -117 55 -277 68 -301 7 -12 28 -88 49 -171 126 -510 424 -1168 754 -1665 361 -546 798 -1024 1320 -1445 159 -129 439 -324 647 -452 157 -96 509 -284 588 -314 30 -11 102 -42 160 -68 268 -123 740 -277 1044 -341 50 -11 141 -31 202 -45 363 -82 827 -121 1338 -112 410 8 722 38 1016 97 261 52 269 54 385 83 204 51 544 161 715 232 58 24 137 55 175 70 39 15 90 38 115 51 25 12 101 50 170 83 749 360 1435 903 1982 1569 135 163 459 627 487 697 2 6 16 28 30 50 49 76 192 360 316 630 100 218 206 538 296 895 97 381 148 768 164 1235 6 199 -9 622 -30 780 -7 61 -16 137 -20 170 -23 217 -124 664 -216 957 -201 645 -560 1309 -1003 1858 -204 253 -590 646 -766 780 -25 19 -56 46 -70 60 -14 15 -96 74 -182 133 -87 59 -160 112 -163 117 -12 19 -153 119 -206 146 -30 15 -94 55 -144 89 -49 34 -115 75 -145 90 -30 15 -66 36 -80 45 -31 22 -315 164 -430 215 -47 21 -103 46 -125 55 -61 27 -362 145 -430 168 -396 135 -963 267 -1325 306 -80 9 -183 21 -230 26 -219 27 -846 37 -1165 19z m1320 -685 c245 -19 586 -61 599 -74 6 -6 32 -10 58 -10 27 0 65 -7 85 -15 19 -8 51 -15 70 -15 19 0 49 -6 66 -14 18 -8 55 -17 82 -19 45 -4 404 -122 447 -147 10 -6 26 -10 35 -10 22 0 132 -36 188 -61 22 -10 56 -22 75 -25 40 -8 105 -39 115 -54 3 -5 15 -10 26 -10 11 0 59 -20 107 -44 305 -152 401 -203 423 -222 8 -8 19 -14 22 -14 16 0 175 -102 382 -246 331 -229 614 -480 897 -795 142 -158 185 -213 387 -492 69 -94 171 -250 171 -261 0 -3 14 -25 30 -49 17 -25 30 -48 30 -53 0 -4 6 -15 14 -23 17 -19 67 -112 132 -243 9 -18 21 -44 28 -58 7 -14 33 -65 58 -115 26 -49 54 -117 64 -150 9 -33 34 -94 55 -135 21 -41 49 -118 63 -170 14 -53 30 -109 37 -125 6 -17 20 -59 29 -95 10 -36 26 -85 35 -110 9 -25 21 -70 26 -100 16 -92 41 -194 50 -204 5 -6 9 -26 9 -46 0 -49 19 -153 31 -164 5 -6 9 -35 9 -66 0 -31 4 -60 9 -65 5 -6 11 -39 14 -75 15 -217 20 -266 29 -277 6 -8 7 -44 3 -98 -5 -60 -4 -89 4 -99 9 -10 10 -57 7 -163 -3 -81 -7 -197 -9 -258 -1 -60 -6 -116 -10 -122 -4 -7 -8 -29 -8 -50 1 -70 -31 -348 -44 -393 -7 -25 -21 -94 -30 -155 -10 -60 -21 -119 -26 -130 -5 -11 -18 -63 -29 -115 -21 -97 -35 -146 -102 -355 -21 -66 -38 -127 -38 -135 0 -9 -6 -24 -14 -35 -7 -11 -19 -38 -25 -60 -7 -22 -16 -49 -22 -60 -19 -43 -89 -220 -89 -226 0 -6 -74 -163 -99 -209 -11 -21 -30 -57 -40 -77 -11 -24 -39 -77 -73 -138 -15 -27 -35 -65 -44 -84 -8 -19 -26 -49 -39 -65 -12 -17 -33 -51 -46 -76 -13 -25 -36 -63 -51 -85 -74 -106 -138 -205 -138 -211 0 -3 -17 -27 -38 -53 -21 -25 -54 -68 -72 -96 -19 -27 -57 -75 -86 -105 -28 -30 -69 -81 -91 -112 -109 -156 -575 -623 -713 -714 -27 -18 -80 -59 -117 -91 -37 -32 -86 -69 -108 -82 -22 -14 -67 -46 -100 -71 -64 -50 -260 -180 -271 -180 -3 0 -27 -15 -53 -34 -25 -18 -67 -42 -92 -53 -25 -11 -83 -46 -128 -77 -45 -31 -87 -56 -93 -56 -6 0 -43 -15 -82 -34 -39 -19 -87 -42 -106 -50 -19 -9 -42 -20 -50 -25 -18 -13 -147 -71 -155 -71 -7 0 -76 -30 -160 -70 -33 -16 -85 -36 -115 -44 -30 -8 -86 -25 -125 -39 -38 -13 -122 -39 -185 -57 -63 -18 -119 -36 -125 -40 -5 -4 -23 -10 -40 -13 -16 -3 -77 -18 -135 -32 -58 -15 -141 -33 -185 -41 -44 -8 -90 -19 -103 -24 -13 -6 -40 -10 -62 -10 -21 0 -42 -4 -45 -10 -3 -5 -32 -10 -63 -10 -31 -1 -88 -7 -127 -15 -38 -8 -117 -17 -173 -20 -57 -3 -108 -8 -114 -11 -18 -11 -113 -17 -265 -15 -95 1 -154 -2 -158 -9 -8 -12 -62 -13 -69 -1 -3 5 -86 8 -185 8 -130 -1 -184 3 -194 12 -9 7 -39 12 -69 12 -103 -1 -211 8 -222 19 -5 5 -36 10 -68 10 -31 0 -77 6 -100 14 -24 8 -77 19 -118 26 -41 6 -106 19 -145 29 -38 11 -92 22 -120 26 -58 7 -224 52 -374 101 -57 19 -112 34 -123 34 -11 0 -41 11 -67 25 -51 28 -155 65 -181 65 -9 0 -53 18 -98 40 -44 22 -87 40 -94 40 -8 0 -46 16 -85 35 -39 19 -74 35 -77 35 -14 0 -336 166 -471 243 -293 167 -797 537 -970 713 -27 27 -94 90 -149 140 -54 49 -159 156 -232 239 -74 82 -139 155 -144 160 -20 20 -156 199 -205 270 -27 39 -75 105 -105 146 -31 41 -69 96 -85 122 -17 26 -48 74 -70 105 -23 31 -47 71 -54 89 -7 17 -23 41 -37 53 -13 13 -29 39 -35 59 -7 20 -29 62 -49 93 -21 31 -66 119 -99 195 -34 76 -69 154 -78 173 -9 19 -23 51 -31 70 -8 19 -25 55 -37 80 -13 25 -28 63 -35 85 -7 22 -28 72 -46 110 -18 39 -41 102 -53 140 -11 39 -31 103 -45 144 -14 40 -26 86 -26 100 0 15 -4 31 -9 37 -14 14 -78 268 -107 429 -72 392 -84 511 -91 910 -6 355 -1 466 33 700 21 149 61 387 78 460 8 33 20 90 29 126 8 36 33 122 55 190 22 68 50 156 62 194 11 39 27 86 34 105 8 19 26 67 42 105 15 39 35 88 45 111 11 22 19 44 19 48 0 28 232 480 308 601 130 206 164 257 245 364 196 258 398 478 592 646 72 63 157 139 190 169 85 80 216 182 245 191 14 4 49 30 78 56 30 27 59 49 67 49 7 0 19 7 26 16 12 15 61 51 108 79 9 5 34 21 56 35 22 15 47 30 55 33 8 4 29 15 45 25 31 19 100 58 170 97 53 29 278 142 385 194 76 36 141 62 250 101 19 7 60 23 90 36 77 32 188 74 235 89 22 7 101 31 175 55 74 23 144 46 155 50 31 13 125 38 175 45 25 4 81 18 125 31 128 37 147 42 210 54 89 16 155 30 200 41 41 9 290 44 430 60 166 18 344 30 554 37 248 9 321 7 596 -14z"/>
 <path d="M7472 4104 c-12 -8 -22 -12 -22 -8 0 3 -7 1 -15 -6 -8 -7 -15 -9 -15 -5 0 4 -35 -12 -77 -35 -75 -41 -87 -49 -121 -80 -10 -8 -30 -23 -45 -33 -15 -9 -37 -33 -50 -51 -12 -18 -41 -61 -64 -94 -24 -34 -39 -63 -34 -67 6 -3 28 20 49 52 38 56 114 137 168 178 14 11 31 25 38 31 12 12 153 93 161 94 3 0 6 0 8 1 1 0 10 2 21 4 24 5 41 21 29 28 -6 4 -19 -1 -31 -9z"/>
 <path d="M8206 4041 c-9 -13 23 -36 119 -85 50 -25 119 -62 154 -81 71 -39 102 -36 53 4 -30 26 -240 139 -294 160 -15 6 -30 7 -32 2z"/>
 <path d="M8910 3580 c-13 -11 -26 -20 -30 -20 -3 0 -22 -13 -41 -30 -19 -16 -39 -34 -46 -40 -7 -5 -34 -23 -60 -38 -87 -52 -189 -120 -202 -135 -52 -63 122 28 224 117 17 14 38 29 48 32 9 3 17 9 17 14 0 5 8 11 18 14 9 4 32 20 51 36 18 17 37 30 41 30 12 0 20 29 11 34 -5 3 -19 -3 -31 -14z"/>
 <path d="M8095 3103 c-33 -14 -97 -35 -143 -47 -46 -11 -83 -25 -82 -31 2 -18 90 -6 184 26 99 33 140 55 131 69 -9 14 -22 11 -90 -17z"/>
 <path d="M7475 3081 c-10 -17 105 -58 175 -63 77 -5 53 16 -43 38 -51 12 -99 24 -108 28 -10 4 -20 3 -24 -3z"/>
 <path d="M5315 2851 c-6 -11 13 -26 22 -17 3 3 12 1 19 -4 6 -6 16 -10 20 -8 5 1 30 -8 57 -22 34 -17 50 -21 58 -13 14 14 -25 41 -67 46 -16 2 -35 7 -42 11 -7 4 -16 5 -21 1 -5 -3 -12 -1 -16 5 -8 13 -22 13 -30 1z"/>
 <path d="M4795 2841 c-3 -5 -20 -13 -38 -16 -70 -16 -230 -118 -212 -137 3 -3 53 21 112 53 58 33 117 62 132 65 32 8 53 23 45 35 -7 12 -31 12 -39 0z"/>
 <path d="M5635 2438 c-9 -24 -1 -113 10 -111 14 4 19 103 6 116 -7 7 -12 5 -16 -5z"/>
 <path d="M5617 2188 c-19 -30 -29 -86 -17 -93 11 -7 24 17 38 67 12 44 -1 59 -21 26z"/>
 <path d="M4187 2169 c-8 -13 -30 -82 -50 -154 -53 -200 -56 -215 -41 -215 12 0 28 40 59 155 9 33 27 96 41 139 16 51 22 82 16 88 -7 7 -15 2 -25 -13z"/>
 <path d="M5014 1536 c-29 -12 -59 -28 -68 -35 -9 -7 -16 -10 -16 -6 0 4 -7 2 -15 -5 -8 -7 -15 -9 -15 -5 0 4 -6 2 -13 -4 -8 -6 -17 -8 -20 -4 -4 3 -7 1 -7 -5 0 -13 27 -12 48 1 6 5 12 5 12 1 0 -3 7 -1 15 6 8 7 15 10 15 7 0 -10 127 47 129 58 4 16 -11 14 -65 -9z"/>
 </g>
<g id="layer104" fill="#af8733" stroke="none">
 <path d="M3587 10563 c-4 -3 -7 -237 -7 -518 0 -398 3 -515 13 -523 16 -13 116 -22 123 -11 7 12 5121 12 5128 1 7 -11 117 -2 134 11 9 7 12 120 10 526 l-3 516 -2696 3 c-1483 1 -2699 -1 -2702 -5z"/>
 </g>
<g id="layer105" fill="#ece6b3" stroke="none">
 <path d="M6189 11309 c-216 -8 -397 -21 -559 -39 -121 -13 -417 -57 -470 -70 -25 -6 -70 -15 -100 -20 -134 -24 -160 -30 -250 -59 -52 -16 -115 -32 -140 -36 -49 -7 -143 -31 -175 -45 -11 -4 -81 -27 -155 -50 -147 -46 -229 -74 -330 -113 -36 -14 -81 -31 -100 -38 -19 -6 -64 -24 -100 -40 -36 -15 -76 -30 -90 -34 -40 -11 -383 -177 -515 -250 -70 -39 -139 -78 -170 -97 -16 -10 -37 -21 -45 -25 -8 -3 -33 -18 -55 -33 -22 -14 -47 -30 -56 -35 -47 -28 -96 -64 -108 -79 -7 -9 -19 -16 -26 -16 -8 0 -37 -22 -67 -49 -29 -26 -64 -52 -78 -56 -29 -9 -160 -111 -245 -191 -33 -30 -118 -106 -190 -169 -194 -168 -396 -388 -592 -646 -81 -107 -115 -158 -245 -364 -76 -121 -308 -573 -308 -601 0 -4 -8 -26 -19 -48 -20 -45 -53 -125 -83 -201 -10 -27 -35 -104 -54 -170 -19 -66 -46 -151 -59 -188 -14 -37 -32 -100 -41 -140 -9 -40 -22 -99 -30 -132 -17 -74 -57 -312 -78 -460 -29 -207 -36 -318 -37 -604 0 -428 18 -626 95 -1046 29 -161 93 -415 107 -429 5 -6 9 -22 9 -37 0 -14 12 -60 26 -100 14 -41 34 -105 45 -144 12 -38 35 -101 53 -140 18 -38 39 -88 46 -110 7 -22 22 -60 35 -85 12 -25 29 -62 38 -82 9 -21 24 -53 32 -70 8 -18 42 -95 76 -171 33 -76 78 -164 99 -195 20 -31 42 -73 49 -93 6 -20 22 -46 35 -59 14 -12 30 -36 37 -53 7 -18 31 -58 54 -89 22 -31 53 -79 70 -105 16 -26 54 -81 85 -122 30 -41 78 -107 105 -147 117 -170 450 -556 561 -651 31 -26 94 -84 139 -128 200 -196 493 -420 865 -660 131 -85 579 -325 606 -325 3 0 38 -16 77 -35 39 -19 77 -35 85 -35 7 0 50 -18 94 -40 45 -22 89 -40 98 -40 26 0 130 -37 181 -65 26 -14 56 -25 67 -25 11 0 66 -15 123 -34 159 -52 316 -94 397 -106 41 -6 90 -17 110 -26 21 -8 75 -20 122 -25 46 -5 104 -16 128 -24 23 -8 69 -15 100 -15 32 0 63 -5 69 -11 10 -10 102 -20 223 -23 30 0 61 -5 69 -10 8 -5 94 -10 193 -11 98 -1 181 -5 185 -8 9 -10 98 -9 107 1 4 4 80 8 169 9 235 2 239 2 254 14 8 7 29 9 52 5 21 -3 41 -2 45 2 4 4 33 8 64 8 32 1 89 9 127 17 39 9 95 16 125 17 31 0 60 4 65 9 6 5 30 11 55 14 48 6 181 32 240 47 19 6 87 22 150 36 63 15 120 30 125 34 6 4 62 22 125 40 63 18 147 44 185 57 39 14 95 31 125 39 30 8 82 28 115 44 84 40 153 70 160 70 8 0 137 58 155 71 8 5 31 16 50 25 19 8 67 31 106 50 39 19 76 34 82 34 6 0 48 25 93 56 45 31 103 66 128 77 25 11 67 35 92 53 26 19 50 34 53 34 11 0 207 130 271 180 33 25 78 57 100 71 22 13 71 50 108 82 37 32 90 73 117 91 138 91 604 558 713 714 22 31 63 82 91 112 29 30 67 78 86 105 18 28 51 71 72 96 21 26 38 50 38 53 0 6 64 105 138 211 15 22 38 60 51 85 13 25 34 59 46 76 13 16 31 46 39 65 9 19 29 57 44 84 34 61 62 114 73 138 10 20 29 56 40 77 25 46 99 203 99 209 0 6 70 183 89 226 6 11 15 38 22 60 6 22 18 49 25 60 8 11 14 26 14 35 0 8 17 69 38 135 67 209 81 258 102 355 11 52 24 104 29 115 5 11 16 70 26 130 9 61 23 130 30 155 12 41 43 295 48 395 1 22 5 45 9 51 4 6 8 60 8 120 1 60 3 185 6 278 3 109 1 173 -5 179 -7 7 -8 43 -4 98 4 59 2 93 -5 102 -6 7 -14 56 -17 108 -8 148 -15 223 -22 239 -4 8 -8 39 -9 68 -1 29 -6 58 -12 65 -12 15 -32 117 -32 167 0 20 -4 40 -9 46 -11 11 -41 138 -43 179 0 17 -12 62 -25 100 -14 39 -33 99 -43 135 -10 36 -23 78 -29 95 -7 16 -23 72 -37 125 -14 52 -42 129 -63 170 -21 41 -46 102 -55 135 -10 33 -38 101 -64 150 -25 50 -51 101 -58 115 -7 14 -19 40 -28 58 -65 131 -115 224 -132 243 -8 8 -14 19 -14 23 0 5 -13 28 -30 53 -16 24 -30 46 -30 49 0 11 -102 167 -171 261 -202 279 -245 334 -387 492 -283 315 -566 566 -897 795 -207 144 -366 246 -382 246 -3 0 -14 6 -22 14 -22 19 -118 70 -423 222 -48 24 -96 44 -107 44 -11 0 -23 5 -26 10 -10 15 -75 46 -115 54 -19 3 -53 15 -75 25 -56 25 -166 61 -188 61 -9 0 -25 4 -35 10 -43 25 -402 143 -447 147 -27 2 -64 11 -82 19 -17 8 -47 14 -66 14 -19 0 -52 7 -73 16 -20 9 -58 17 -83 18 -25 1 -51 5 -57 9 -18 11 -377 54 -594 71 -281 22 -398 25 -641 15z m2779 -1258 c1 -345 -1 -498 -9 -507 -6 -7 -34 -14 -62 -16 l-52 -3 -5 -1705 -5 -1705 -1185 -3 c-651 -1 -1188 -6 -1192 -10 -8 -8 -19 -180 -43 -692 -43 -919 -43 -939 1 -1061 76 -211 205 -383 391 -521 68 -50 187 -118 207 -118 8 0 27 17 42 37 88 120 115 151 174 198 165 133 322 185 557 185 99 0 125 -4 230 -35 129 -39 394 -164 503 -237 36 -25 94 -61 129 -81 51 -31 233 -158 264 -186 10 -9 -198 -161 -359 -262 -156 -98 -396 -217 -524 -261 -91 -31 -102 -33 -245 -33 -163 0 -221 13 -345 75 -146 74 -307 243 -377 397 -24 51 -30 57 -92 85 -220 99 -372 201 -521 352 -46 47 -90 86 -98 86 -7 0 -16 -10 -21 -22 -5 -13 -28 -75 -51 -138 -105 -284 -374 -747 -610 -1048 -44 -57 -80 -112 -80 -122 0 -11 10 -55 22 -97 19 -65 23 -102 23 -223 0 -170 -7 -202 -80 -355 -55 -114 -77 -147 -172 -253 -106 -119 -311 -231 -553 -305 -153 -46 -492 -123 -645 -146 -38 -6 -89 -13 -111 -16 -23 -4 -44 -3 -47 2 -12 21 42 339 98 568 87 358 217 628 364 753 156 133 260 185 436 218 125 23 305 15 435 -21 52 -14 105 -28 118 -32 31 -8 50 11 136 141 101 154 200 324 293 506 96 186 138 285 192 447 64 194 66 211 53 555 -25 641 -32 785 -41 843 -6 33 -13 155 -16 270 -6 249 -15 427 -24 498 l-6 52 -1170 5 -1170 5 -5 1705 -5 1705 -45 3 c-24 2 -50 8 -57 14 -10 8 -13 117 -13 503 0 270 3 495 7 498 3 4 1210 6 2682 5 l2676 -3 3 -494z"/>
 <path d="M6196 8344 c-14 -14 -16 -48 -14 -260 4 -326 21 -327 28 -2 l5 243 35 0 35 0 5 -68 c7 -90 24 -91 28 -1 2 56 -1 75 -13 88 -21 21 -89 21 -109 0z"/>
 <path d="M4547 8189 c-9 -6 -15 -14 -12 -19 3 -5 1 -11 -5 -15 -6 -4 -10 -87 -10 -224 0 -197 2 -221 18 -241 11 -14 24 -20 31 -16 9 6 9 12 -3 25 -13 14 -15 55 -16 241 -1 222 -1 225 20 230 23 5 29 24 8 27 -7 2 -21 -2 -31 -8z"/>
 <path d="M5626 8179 c-31 -25 -50 -56 -37 -63 11 -7 57 29 71 54 15 28 -4 33 -34 9z"/>
 <path d="M5686 8193 c-3 -4 6 -19 21 -35 l26 -28 -52 -55 c-29 -30 -49 -60 -46 -65 9 -15 36 2 78 49 27 30 35 47 32 68 -2 15 -4 31 -4 34 -2 11 -48 38 -55 32z"/>
 <path d="M6605 8183 c-24 -23 -7 -34 27 -17 29 15 32 15 59 -5 29 -21 44 -15 33 13 -7 18 -5 18 -62 21 -27 2 -48 -2 -57 -12z"/>
 <path d="M6982 8184 c-59 -41 -109 -112 -98 -141 8 -19 26 -7 26 17 0 23 53 78 99 102 18 10 29 22 26 28 -9 14 -27 12 -53 -6z"/>
 <path d="M7445 8190 c-3 -5 -12 -7 -20 -4 -27 11 -99 -56 -77 -70 5 -3 29 9 52 27 48 35 75 37 127 10 30 -16 33 -16 51 0 21 19 54 22 82 7 25 -13 35 4 14 24 -19 20 -87 21 -103 2 -11 -13 -17 -13 -46 0 -40 16 -71 18 -80 4z"/>
 <path d="M7885 8191 c-3 -5 -13 -7 -23 -4 -10 2 -24 -3 -31 -11 -11 -13 -11 -17 3 -22 9 -3 23 0 32 7 17 14 78 16 107 4 20 -8 24 10 5 22 -19 11 -86 14 -93 4z"/>
 <path d="M6333 8179 c-11 -4 -24 -12 -27 -18 -12 -18 12 -21 48 -6 33 14 39 14 82 -6 54 -26 97 -86 98 -139 1 -19 6 -36 11 -38 12 -3 19 44 9 66 -4 10 -6 24 -5 32 2 17 -50 76 -89 101 -27 17 -91 21 -127 8z"/>
 <path d="M7056 8083 c-4 -4 -12 -9 -17 -9 -5 -1 -13 -2 -18 -3 -5 0 -14 -16 -21 -35 -18 -56 16 -115 68 -116 30 0 78 25 86 45 11 30 6 73 -10 89 -23 23 -34 10 -21 -24 12 -33 5 -55 -26 -74 -23 -15 -71 12 -75 42 -4 29 23 66 48 67 11 0 20 5 20 10 1 13 -23 18 -34 8z"/>
 <path d="M7447 8059 c-12 -10 -18 -18 -13 -19 5 0 4 -6 -2 -13 -6 -7 -11 -51 -12 -97 -2 -109 -3 -105 16 -90 12 11 15 32 13 104 -2 89 -2 91 24 104 19 9 32 10 46 2 22 -11 39 4 19 17 -24 14 -68 11 -91 -8z"/>
 <path d="M7902 8068 c-18 -18 -15 -113 3 -128 8 -7 15 -10 16 -6 2 30 0 138 -3 141 -2 3 -10 -1 -16 -7z"/>
 <path d="M4969 8058 c-7 -16 -5 -89 2 -94 5 -3 7 -9 4 -14 -3 -5 1 -24 10 -41 12 -22 20 -28 27 -21 8 8 5 21 -8 44 -12 21 -19 49 -18 75 1 24 -2 45 -7 49 -5 3 -10 4 -10 2z"/>
 <path d="M6408 8055 c-4 -4 -2 -15 5 -25 8 -15 8 -25 -3 -45 -9 -18 -10 -29 -3 -36 14 -14 43 16 43 46 0 25 -31 70 -42 60z"/>
 <path d="M5990 8009 c-8 -5 -25 -9 -36 -9 -12 0 -27 -6 -34 -14 -6 -8 -18 -12 -25 -9 -38 14 -132 -84 -106 -110 9 -9 13 -6 17 9 6 21 101 90 120 86 14 -3 81 25 88 37 9 14 -8 21 -24 10z"/>
 <path d="M7555 8008 c-10 -24 -1 -163 10 -163 13 0 19 155 6 168 -7 7 -12 5 -16 -5z"/>
 <path d="M4899 7955 c-18 -38 -20 -51 -11 -66 15 -24 15 -102 1 -116 -7 -7 -9 -19 -5 -28 5 -14 9 -15 21 -5 20 16 29 93 17 139 -7 30 -6 46 6 71 11 22 12 34 4 42 -8 8 -17 -3 -33 -37z"/>
 <path d="M5086 7992 c-17 -27 37 -72 87 -72 24 0 62 32 51 42 -3 3 -21 1 -40 -5 -31 -9 -37 -8 -63 17 -16 16 -31 23 -35 18z"/>
 <path d="M5673 7963 c-4 -11 4 -26 26 -45 l32 -29 -25 -30 c-29 -34 -26 -55 4 -39 41 22 47 78 13 124 -23 33 -42 40 -50 19z"/>
 <path d="M7754 7955 c-17 -7 -34 -20 -38 -30 -11 -30 -6 -82 9 -95 17 -14 18 -12 15 46 -1 38 1 43 29 52 30 11 40 26 23 36 -4 2 -21 -2 -38 -9z"/>
 <path d="M6734 7949 c-10 -16 26 -27 76 -24 69 3 66 3 51 18 -12 12 -119 17 -127 6z"/>
 <path d="M5286 7889 c-21 -22 -50 -45 -64 -50 -18 -7 -22 -13 -15 -20 20 -20 103 33 129 83 22 42 -3 36 -50 -13z"/>
 <path d="M5555 7920 c-4 -6 -10 -8 -14 -5 -5 2 -30 -15 -55 -39 -26 -24 -53 -43 -59 -42 -7 0 -14 -3 -17 -9 -3 -5 9 -10 25 -11 23 -1 40 9 72 44 l43 45 45 -42 c45 -42 75 -48 55 -12 -9 17 -76 81 -85 81 -2 0 -7 -5 -10 -10z"/>
 <path d="M6066 7923 c-4 -4 -32 -15 -62 -23 -61 -17 -69 -37 -14 -32 48 4 116 33 113 48 -3 12 -27 17 -37 7z"/>
 <path d="M6596 7861 c-8 -12 10 -42 22 -39 4 1 15 -2 25 -6 9 -5 23 -6 30 -3 6 2 17 5 22 7 18 3 35 22 29 32 -3 5 -12 4 -21 -3 -22 -19 -71 -15 -87 6 -9 13 -15 15 -20 6z"/>
 <path d="M6056 7822 c-2 -4 6 -18 20 -31 29 -27 29 -30 5 -58 -24 -29 -65 -45 -118 -47 -24 0 -44 -5 -45 -11 -4 -12 58 -19 80 -9 10 4 20 6 25 6 4 -1 25 7 47 18 42 22 67 54 50 65 -6 4 -8 10 -5 15 6 9 -32 60 -45 60 -5 0 -11 -3 -14 -8z"/>
 <path d="M5795 7750 c-8 -13 60 -80 80 -80 28 0 23 18 -13 47 -52 41 -60 45 -67 33z"/>
 </g>
<g id="layer106" fill="#fbfbfa" stroke="none">
 <path d="M6195 8338 c-3 -7 -4 -126 -3 -263 l3 -249 39 -8 c28 -6 45 -4 59 5 17 11 27 11 63 -2 39 -14 45 -14 84 4 23 10 57 37 76 59 32 37 34 45 34 108 0 40 -6 80 -14 96 -36 69 -117 111 -180 93 -35 -9 -36 -8 -41 22 -3 18 -6 57 -8 87 l-2 55 -53 3 c-36 2 -54 -1 -57 -10z m199 -294 c25 -10 38 -41 27 -63 -27 -50 -109 -25 -96 28 9 37 33 49 69 35z"/>
 <path d="M5109 8195 c-25 -8 -65 -32 -88 -52 -34 -30 -45 -48 -52 -86 -16 -90 18 -183 80 -216 106 -55 188 -44 259 33 49 53 57 78 48 157 -7 71 -40 120 -101 148 -58 28 -94 32 -146 16z m96 -160 c21 -24 22 -28 9 -55 -8 -16 -24 -32 -35 -35 -48 -16 -95 60 -62 98 23 25 60 21 88 -8z"/>
 <path d="M5881 8193 c-48 -17 -121 -83 -121 -110 0 -25 50 -73 76 -73 12 0 35 10 51 23 53 42 66 46 96 31 51 -27 33 -53 -55 -79 -112 -32 -159 -87 -153 -178 3 -55 34 -95 95 -127 30 -15 47 -17 107 -10 75 8 85 12 121 43 29 27 28 58 -3 91 -27 29 -61 33 -91 11 -10 -8 -34 -15 -52 -15 -28 0 -33 3 -30 21 4 25 32 41 126 70 90 27 108 54 100 154 -8 88 -30 116 -113 143 -76 25 -94 26 -154 5z"/>
 <path d="M7040 8201 c-129 -41 -185 -141 -148 -264 26 -88 136 -150 223 -126 77 22 113 48 139 102 32 66 30 125 -6 193 -22 42 -35 55 -77 73 -62 26 -98 32 -131 22z m94 -196 c0 -41 -44 -73 -79 -57 -49 22 -51 85 -4 109 35 18 83 -12 83 -52z"/>
 <path d="M4565 8194 c-11 -3 -24 -10 -29 -14 -5 -5 -8 -116 -7 -247 2 -208 4 -240 18 -250 11 -9 57 -13 140 -13 141 0 184 15 215 72 18 35 24 133 9 156 -4 8 1 31 15 60 29 59 29 75 0 138 -38 81 -72 97 -220 100 -66 2 -130 1 -141 -2z m225 -154 c27 -27 12 -60 -27 -60 -35 0 -63 -27 -63 -60 0 -31 32 -65 54 -57 19 7 40 -18 32 -38 -4 -13 -18 -15 -63 -13 l-58 3 -3 109 c-1 61 0 116 2 123 9 22 102 17 126 -7z"/>
 <path d="M5392 8177 c-29 -31 -29 -81 1 -111 66 -68 65 -62 19 -105 -36 -32 -42 -44 -42 -78 0 -45 12 -60 56 -69 25 -4 36 1 74 40 24 25 49 46 55 46 6 0 31 -20 55 -45 52 -53 78 -57 114 -14 30 35 33 61 11 79 -9 7 -30 31 -46 52 l-31 39 46 49 c25 27 46 57 46 67 0 23 -49 73 -73 73 -10 0 -42 -20 -69 -45 l-50 -45 -50 45 c-56 50 -84 56 -116 22z"/>
 <path d="M6620 8187 c-25 -13 -25 -13 -28 -173 -2 -142 0 -164 15 -183 17 -20 22 -21 76 -11 44 9 62 8 73 -1 20 -17 93 -5 117 19 15 16 18 28 13 56 -8 43 -36 60 -84 52 -60 -9 -72 10 -72 119 0 57 -5 97 -12 108 -18 23 -68 30 -98 14z"/>
 <path d="M7395 8172 c-22 -15 -50 -43 -63 -62 -21 -31 -22 -43 -20 -159 l3 -126 48 -3 c27 -2 55 2 62 8 9 7 14 43 17 106 2 81 6 98 22 110 56 41 89 -4 96 -130 l5 -91 48 -3 c76 -5 77 -3 77 182 0 113 -4 166 -12 174 -15 15 -100 16 -115 1 -7 -7 -17 -8 -29 -1 -11 5 -37 12 -59 15 -33 5 -47 1 -80 -21z"/>
 <path d="M7890 8190 c-90 -19 -109 -48 -116 -174 -2 -50 -6 -60 -26 -70 -18 -9 -24 -21 -26 -60 -3 -51 9 -76 39 -76 16 0 19 -8 19 -50 0 -38 4 -52 19 -60 29 -15 73 -12 99 6 20 14 22 21 16 60 l-6 44 34 0 c45 0 67 18 74 60 8 50 -24 90 -72 90 l-35 0 3 47 c3 42 6 47 33 55 38 10 55 33 55 74 0 23 -7 38 -22 48 -24 17 -34 18 -88 6z"/>
 </g>
<g id="layer107" fill="#579d42" stroke="none">
 <path d="M7655 4148 c-214 -22 -435 -144 -559 -309 -70 -93 -75 -107 -48 -130 13 -10 70 -36 127 -58 307 -119 643 -161 1112 -141 120 5 227 12 238 15 11 3 70 12 130 20 61 8 131 19 158 23 35 7 50 6 58 -5 23 -27 75 -4 67 31 -4 19 -236 183 -358 254 -216 125 -429 231 -516 257 -49 14 -102 30 -119 35 -48 14 -192 18 -290 8z"/>
 <path d="M8755 3528 c-318 -86 -758 -136 -1040 -118 -231 14 -403 45 -622 111 -62 19 -71 5 -40 -57 14 -27 40 -69 59 -93 18 -24 40 -53 48 -65 8 -12 52 -56 98 -98 109 -101 192 -142 357 -178 159 -35 270 -25 475 41 105 34 360 157 424 203 23 17 106 74 186 127 151 100 176 121 165 139 -8 13 -25 11 -110 -12z"/>
 <path d="M4907 2865 c-110 -22 -232 -74 -324 -136 -23 -16 -46 -29 -52 -29 -6 0 -18 -11 -27 -25 -9 -14 -22 -25 -28 -25 -15 0 -66 -52 -66 -68 0 -6 -8 -16 -19 -21 -10 -6 -26 -26 -35 -45 -9 -19 -21 -38 -27 -41 -12 -8 -81 -145 -110 -218 -12 -29 -29 -83 -40 -122 -10 -38 -34 -126 -54 -195 -56 -195 -103 -428 -120 -588 -5 -53 -3 -63 11 -69 21 -8 243 23 369 52 55 13 156 35 225 50 126 27 280 72 355 104 22 10 60 25 85 35 127 50 238 115 300 176 88 86 172 196 214 281 25 50 46 99 46 109 0 11 5 22 10 25 6 3 10 19 10 35 0 16 5 32 11 35 6 4 9 19 8 33 -2 15 -1 32 3 37 3 6 4 75 3 155 -4 160 -27 272 -57 278 -10 2 -39 -26 -79 -75 -336 -416 -801 -849 -1219 -1134 -101 -70 -143 -95 -96 -58 426 333 626 528 967 940 129 155 277 349 304 395 20 35 20 35 0 50 -79 59 -398 92 -568 59z"/>
 </g>

</svg>