<!DOCTYPE svg PUBLIC "-//W3C//DTD SVG 20010904//EN" "http://www.w3.org/TR/2001/REC-SVG-20010904/DTD/svg10.dtd">
<svg version="1.0" xmlns="http://www.w3.org/2000/svg" width="431px" height="247px" viewBox="0 0 4310 2470" preserveAspectRatio="xMidYMid meet">
<g id="layer101" fill="#494089" stroke="none">
 <path d="M0 1235 l0 -1235 2155 0 2155 0 0 1235 0 1235 -2155 0 -2155 0 0 -1235z"/>
 </g>
<g id="layer102" fill="#636478" stroke="none">
 <path d="M0 1235 l0 -1235 2155 0 2155 0 0 1235 0 1235 -2155 0 -2155 0 0 -1235z m2390 940 c0 -3 -2 -5 -5 -5 -3 0 -5 2 -5 5 0 3 2 5 5 5 3 0 5 -2 5 -5z m-24 -14 c-7 -11 -105 -35 -112 -28 -3 2 21 11 53 19 32 9 59 16 61 17 2 0 1 -3 -2 -8z m-166 -6 c0 -3 -2 -5 -5 -5 -3 0 -5 2 -5 5 0 3 2 5 5 5 3 0 5 -2 5 -5z m37 -11 c-3 -3 -12 -4 -19 -1 -8 3 -5 6 6 6 11 1 17 -2 13 -5z m-580 -205 c60 -37 146 -63 185 -55 27 5 29 4 17 -10 -27 -33 -153 -1 -229 58 -30 24 -60 68 -60 88 0 8 9 0 20 -18 11 -18 41 -46 67 -63z m1210 17 c-23 -35 -82 -67 -130 -72 -40 -3 -41 -3 -7 5 51 11 95 36 122 69 27 35 38 33 15 -2z"/>
 </g>
<g id="layer103" fill="#5c5d92" stroke="none">
 <path d="M0 1235 l0 -1235 2155 0 2155 0 0 1235 0 1235 -2155 0 -2155 0 0 -1235z m2394 952 c-13 -35 -107 -62 -164 -47 -21 6 -42 15 -46 21 -4 7 2 6 16 -1 35 -19 135 -8 168 18 33 25 33 25 26 9z m-764 -225 c40 -34 143 -74 191 -74 43 0 48 -2 37 -15 -9 -12 -25 -14 -64 -10 -78 8 -169 59 -206 115 -26 39 -22 60 4 26 13 -16 29 -35 38 -42z m1236 -6 c-22 -35 -81 -67 -129 -72 l-42 -4 37 10 c53 14 117 56 131 87 6 14 13 20 15 14 2 -6 -3 -22 -12 -35z"/>
 </g>
<g id="layer104" fill="#889f43" stroke="none">
 <path d="M0 1235 l0 -1235 2155 0 2155 0 0 1235 0 1235 -2155 0 -2155 0 0 -1235z m2382 934 c-55 -44 -162 -48 -199 -7 l-18 21 28 -18 c37 -24 136 -17 175 12 33 26 46 19 14 -8z m-677 -250 c46 -23 78 -31 115 -31 49 0 65 -10 34 -22 -60 -23 -180 17 -241 81 -24 24 -43 53 -43 65 0 18 5 16 35 -20 21 -24 62 -54 100 -73z m1185 68 c0 -17 -68 -80 -103 -95 -15 -7 -42 -12 -60 -11 l-32 1 30 7 c49 12 90 38 121 75 31 37 44 44 44 23z"/>
 </g>
<g id="layer105" fill="#96ae72" stroke="none">
 <path d="M0 1235 l0 -1235 2155 0 2155 0 0 1235 0 1235 -2155 0 -2155 0 0 -1235z m833 1184 c56 -11 164 -37 241 -58 146 -40 171 -55 147 -92 -18 -30 -14 -46 45 -156 51 -95 59 -104 83 -102 21 2 43 -15 119 -89 l93 -93 -31 -44 c-17 -25 -35 -45 -41 -45 -5 0 -71 40 -147 88 -75 49 -142 92 -148 95 -7 4 -30 -21 -56 -61 l-45 -67 -27 -260 c-15 -143 -29 -272 -32 -287 -5 -24 2 -32 72 -78 48 -33 79 -48 83 -41 4 5 19 129 35 273 15 144 30 266 32 270 5 7 104 -50 131 -76 10 -9 4 -24 -25 -71 -21 -33 -41 -66 -46 -72 -5 -9 18 -29 71 -63 l78 -50 40 65 c22 35 44 67 48 71 4 4 23 -1 43 -12 21 -11 38 -15 40 -9 2 6 22 37 44 69 l39 60 -34 23 -35 24 26 39 26 39 43 -29 c50 -34 62 -36 86 -14 17 15 20 15 44 0 l25 -16 -34 -44 c-54 -71 -71 -127 -71 -236 0 -88 3 -101 33 -162 128 -261 516 -261 644 0 31 62 33 74 33 167 0 105 -11 141 -65 222 -17 25 -19 34 -8 37 7 2 51 16 98 31 47 14 118 42 159 62 41 21 81 38 90 39 9 1 26 5 38 9 17 6 25 1 37 -23 19 -37 28 -30 -152 -127 -78 -42 -144 -80 -146 -84 -3 -4 13 -39 35 -79 l40 -71 235 -161 235 -161 81 43 c44 24 79 48 77 53 -1 6 -101 78 -222 160 -120 83 -219 155 -219 160 -1 6 28 27 63 47 l64 37 19 -22 c10 -12 29 -44 43 -72 14 -27 27 -51 28 -53 2 -3 140 68 163 83 1 1 -16 35 -38 76 l-41 74 21 17 c11 9 26 18 33 21 14 5 -50 136 -70 144 -7 3 -22 -2 -35 -11 -32 -23 -35 -21 -60 27 -30 59 -25 88 29 158 40 51 50 59 72 54 14 -3 31 -2 37 3 6 4 25 43 42 87 28 72 29 82 16 102 -12 20 -12 28 4 70 17 48 18 48 67 51 77 5 328 -17 444 -39 130 -25 243 -66 315 -114 259 -171 328 -553 133 -732 -47 -44 -122 -73 -186 -73 -19 0 -83 12 -142 26 -98 24 -111 25 -150 13 -23 -8 -51 -26 -63 -42 -18 -25 -19 -31 -8 -75 15 -56 41 -81 166 -156 172 -105 239 -197 240 -331 1 -87 -32 -163 -98 -223 -81 -75 -116 -87 -241 -86 -101 1 -123 5 -270 48 -176 52 -296 67 -372 47 -84 -23 -78 -77 19 -205 78 -101 95 -143 80 -195 -26 -86 -122 -168 -236 -203 -56 -17 -84 -20 -155 -15 -119 9 -202 35 -456 143 -244 105 -409 160 -1167 389 -767 231 -835 257 -950 364 -82 75 -112 136 -112 226 0 126 65 220 207 302 110 64 137 115 104 196 -24 56 -67 96 -161 152 -109 64 -182 136 -192 190 -30 164 125 355 351 429 123 40 275 42 458 5z m1549 -250 c-55 -44 -162 -48 -199 -7 l-18 21 28 -18 c37 -24 136 -17 175 12 33 26 46 19 14 -8z m-677 -250 c46 -23 78 -31 115 -31 49 0 65 -10 34 -22 -60 -23 -180 17 -241 81 -24 24 -43 53 -43 65 0 18 5 16 35 -20 21 -24 62 -54 100 -73z m1185 68 c0 -17 -68 -80 -103 -95 -15 -7 -42 -12 -60 -11 l-32 1 30 7 c49 12 90 38 121 75 31 37 44 44 44 23z"/>
 <path d="M3755 2231 c-7 -12 12 -24 25 -16 11 7 4 25 -10 25 -5 0 -11 -4 -15 -9z"/>
 <path d="M770 2065 c0 -8 7 -15 15 -15 8 0 15 7 15 15 0 8 -7 15 -15 15 -8 0 -15 -7 -15 -15z"/>
 <path d="M371 2026 c-9 -10 -8 -16 3 -25 10 -9 16 -8 25 3 9 10 8 16 -3 25 -10 9 -16 8 -25 -3z"/>
 <path d="M3925 1780 c-4 -6 -3 -16 3 -22 6 -6 12 -6 17 2 4 6 3 16 -3 22 -6 6 -12 6 -17 -2z"/>
 <path d="M3330 1735 c0 -8 7 -15 15 -15 8 0 15 7 15 15 0 8 -7 15 -15 15 -8 0 -15 -7 -15 -15z"/>
 <path d="M895 1671 c-7 -12 12 -24 25 -16 11 7 4 25 -10 25 -5 0 -11 -4 -15 -9z"/>
 <path d="M3544 1536 c-4 -10 -2 -22 4 -28 8 -8 13 -7 18 6 4 10 2 22 -4 28 -8 8 -13 7 -18 -6z"/>
 <path d="M634 1236 c-10 -26 4 -48 28 -44 17 2 23 10 23 28 0 18 -6 26 -23 28 -13 2 -25 -3 -28 -12z"/>
 <path d="M1688 1128 c-15 -15 -15 -17 0 -31 15 -12 19 -12 32 2 13 14 13 18 0 31 -13 13 -17 13 -32 -2z"/>
 <path d="M3503 1096 c-39 -18 -53 -43 -53 -95 0 -53 7 -69 41 -86 65 -34 141 -9 158 51 26 94 -58 169 -146 130z"/>
 <path d="M290 1050 c0 -5 5 -10 10 -10 6 0 10 5 10 10 0 6 -4 10 -10 10 -5 0 -10 -4 -10 -10z"/>
 <path d="M905 961 c-7 -12 12 -24 25 -16 11 7 4 25 -10 25 -5 0 -11 -4 -15 -9z"/>
 <path d="M1384 866 c-18 -8 -35 -19 -38 -25 -4 -6 -24 -11 -44 -11 -92 0 -110 -33 -39 -72 27 -15 48 -37 59 -60 29 -60 63 -81 131 -76 48 4 63 9 90 36 26 25 41 32 74 32 81 0 79 45 -3 81 -24 10 -50 30 -60 48 -32 55 -105 75 -170 47z"/>
 <path d="M2946 831 c-3 -5 0 -11 8 -14 15 -6 26 1 26 15 0 11 -27 10 -34 -1z"/>
 <path d="M2490 815 c0 -8 7 -15 15 -15 8 0 15 7 15 15 0 8 -7 15 -15 15 -8 0 -15 -7 -15 -15z"/>
 <path d="M1930 615 c0 -8 7 -15 15 -15 8 0 15 7 15 15 0 8 -7 15 -15 15 -8 0 -15 -7 -15 -15z"/>
 <path d="M2890 540 c0 -5 5 -10 10 -10 6 0 10 5 10 10 0 6 -4 10 -10 10 -5 0 -10 -4 -10 -10z"/>
 <path d="M2670 250 c0 -5 5 -10 10 -10 6 0 10 5 10 10 0 6 -4 10 -10 10 -5 0 -10 -4 -10 -10z"/>
 </g>
<g id="layer106" fill="#7d87b7" stroke="none">
 <path d="M0 1235 l0 -1235 2155 0 2155 0 0 1235 0 1235 -2155 0 -2155 0 0 -1235z m833 1184 c56 -11 164 -37 241 -58 146 -40 171 -55 147 -92 -18 -30 -14 -46 45 -156 51 -95 59 -104 83 -102 21 2 43 -15 119 -89 l93 -93 -31 -44 c-17 -25 -35 -45 -41 -45 -5 0 -71 40 -147 88 -75 49 -142 92 -148 95 -7 4 -30 -21 -56 -61 l-45 -67 -27 -260 c-15 -143 -29 -272 -32 -287 -5 -24 2 -32 72 -78 48 -33 79 -48 83 -41 4 5 19 129 35 273 15 144 30 266 32 270 5 7 104 -50 131 -76 10 -9 4 -24 -25 -71 -21 -33 -41 -66 -46 -72 -5 -9 18 -29 71 -63 l78 -50 40 65 c22 35 44 67 48 71 4 4 23 -1 43 -12 21 -11 38 -15 40 -9 2 6 22 37 44 69 l39 60 -34 23 -35 24 26 39 26 39 43 -29 c50 -34 62 -36 86 -14 17 15 20 15 44 0 l25 -16 -34 -44 c-54 -71 -71 -127 -71 -236 0 -88 3 -101 33 -162 128 -261 516 -261 644 0 31 62 33 74 33 167 0 105 -11 141 -65 222 -17 25 -19 34 -8 37 7 2 51 16 98 31 47 14 118 42 159 62 41 21 81 38 90 39 9 1 26 5 38 9 17 6 25 1 37 -23 19 -37 28 -30 -152 -127 -78 -42 -144 -80 -146 -84 -3 -4 13 -39 35 -79 l40 -71 235 -161 235 -161 81 43 c44 24 79 48 77 53 -1 6 -101 78 -222 160 -120 83 -219 155 -219 160 -1 6 28 27 63 47 l64 37 19 -22 c10 -12 29 -44 43 -72 14 -27 27 -51 28 -53 2 -3 140 68 163 83 1 1 -16 35 -38 76 l-41 74 21 17 c11 9 26 18 33 21 14 5 -50 136 -70 144 -7 3 -22 -2 -35 -11 -32 -23 -35 -21 -60 27 -30 59 -25 88 29 158 40 51 50 59 72 54 14 -3 31 -2 37 3 6 4 25 43 42 87 28 72 29 82 16 102 -12 20 -12 28 4 70 17 48 18 48 67 51 77 5 328 -17 444 -39 130 -25 243 -66 315 -114 259 -171 328 -553 133 -732 -47 -44 -122 -73 -186 -73 -19 0 -83 12 -142 26 -98 24 -111 25 -150 13 -88 -29 -101 -103 -32 -180 20 -22 79 -65 131 -96 51 -31 114 -76 139 -100 131 -128 130 -330 -1 -451 -81 -75 -116 -87 -241 -86 -101 1 -123 5 -270 48 -176 52 -296 67 -372 47 -84 -23 -78 -77 19 -205 78 -101 95 -143 80 -195 -26 -86 -122 -168 -236 -203 -56 -17 -84 -20 -155 -15 -119 9 -202 35 -456 143 -244 105 -409 160 -1167 389 -767 231 -835 257 -950 364 -82 75 -112 136 -112 226 0 126 65 220 207 302 110 64 137 115 104 196 -24 56 -67 96 -161 152 -109 64 -182 136 -192 190 -30 164 125 355 351 429 123 40 275 42 458 5z m1547 -251 c-51 -42 -160 -46 -195 -8 -16 18 -15 18 27 3 36 -12 52 -13 96 -3 30 7 61 19 70 29 10 9 19 12 21 7 2 -5 -6 -18 -19 -28z m-731 -214 c59 -39 170 -76 192 -64 24 13 29 13 29 -4 0 -32 -76 -35 -157 -5 -86 32 -167 122 -136 152 4 4 12 -6 19 -22 7 -16 31 -42 53 -57z m1241 32 c0 -17 -69 -80 -103 -94 -34 -15 -91 -16 -82 -2 3 6 16 10 28 10 33 0 100 42 122 77 20 30 35 34 35 9z"/>
 <path d="M3755 2231 c-7 -12 12 -24 25 -16 11 7 4 25 -10 25 -5 0 -11 -4 -15 -9z"/>
 <path d="M770 2065 c0 -8 7 -15 15 -15 8 0 15 7 15 15 0 8 -7 15 -15 15 -8 0 -15 -7 -15 -15z"/>
 <path d="M371 2026 c-9 -10 -8 -16 3 -25 10 -9 16 -8 25 3 9 10 8 16 -3 25 -10 9 -16 8 -25 -3z"/>
 <path d="M3925 1780 c-4 -6 -3 -16 3 -22 6 -6 12 -6 17 2 4 6 3 16 -3 22 -6 6 -12 6 -17 -2z"/>
 <path d="M3330 1735 c0 -8 7 -15 15 -15 8 0 15 7 15 15 0 8 -7 15 -15 15 -8 0 -15 -7 -15 -15z"/>
 <path d="M895 1671 c-7 -12 12 -24 25 -16 11 7 4 25 -10 25 -5 0 -11 -4 -15 -9z"/>
 <path d="M3545 1530 c-4 -6 -3 -16 3 -22 6 -6 12 -6 17 2 4 6 3 16 -3 22 -6 6 -12 6 -17 -2z"/>
 <path d="M634 1236 c-10 -26 4 -48 28 -44 17 2 23 10 23 28 0 18 -6 26 -23 28 -13 2 -25 -3 -28 -12z"/>
 <path d="M1688 1128 c-15 -15 -15 -17 0 -31 15 -12 19 -12 32 2 13 14 13 18 0 31 -13 13 -17 13 -32 -2z"/>
 <path d="M3503 1096 c-39 -18 -53 -43 -53 -95 0 -53 7 -69 41 -86 65 -34 141 -9 158 51 26 94 -58 169 -146 130z"/>
 <path d="M290 1050 c0 -5 5 -10 10 -10 6 0 10 5 10 10 0 6 -4 10 -10 10 -5 0 -10 -4 -10 -10z"/>
 <path d="M905 961 c-7 -12 12 -24 25 -16 11 7 4 25 -10 25 -5 0 -11 -4 -15 -9z"/>
 <path d="M1384 866 c-18 -8 -35 -19 -38 -25 -4 -6 -24 -11 -44 -11 -92 0 -110 -33 -39 -72 27 -15 48 -37 59 -60 29 -60 63 -81 131 -76 48 4 63 9 90 36 26 25 41 32 74 32 81 0 79 45 -3 81 -24 10 -50 30 -60 48 -32 55 -105 75 -170 47z"/>
 <path d="M2955 831 c-6 -11 9 -23 19 -14 9 9 7 23 -3 23 -6 0 -12 -4 -16 -9z"/>
 <path d="M2490 815 c0 -8 7 -15 15 -15 8 0 15 7 15 15 0 8 -7 15 -15 15 -8 0 -15 -7 -15 -15z"/>
 <path d="M1930 616 c0 -9 7 -16 16 -16 9 0 14 5 12 12 -6 18 -28 21 -28 4z"/>
 <path d="M2890 540 c0 -5 5 -10 10 -10 6 0 10 5 10 10 0 6 -4 10 -10 10 -5 0 -10 -4 -10 -10z"/>
 <path d="M2670 250 c0 -5 5 -10 10 -10 6 0 10 5 10 10 0 6 -4 10 -10 10 -5 0 -10 -4 -10 -10z"/>
 </g>
<g id="layer107" fill="#b3d149" stroke="none">
 <path d="M0 1235 l0 -1235 2155 0 2155 0 0 1235 0 1235 -2155 0 -2155 0 0 -1235z m833 1184 c56 -11 164 -37 241 -58 146 -40 171 -55 147 -92 -18 -30 -14 -46 45 -156 51 -95 59 -104 83 -102 21 2 43 -15 119 -89 l93 -93 -31 -44 c-17 -25 -35 -45 -41 -45 -5 0 -71 40 -147 88 -75 49 -142 92 -148 95 -7 4 -30 -21 -56 -61 l-45 -67 -27 -260 c-15 -143 -29 -272 -32 -287 -5 -24 2 -32 72 -78 48 -33 79 -48 83 -41 4 5 19 129 35 273 15 144 30 266 32 270 5 7 104 -50 131 -76 10 -9 4 -24 -25 -71 -21 -33 -41 -66 -46 -72 -5 -9 18 -29 71 -63 l78 -50 40 65 c22 35 44 67 48 71 4 4 23 -1 43 -12 21 -11 38 -15 40 -9 2 6 22 37 44 69 l39 60 -34 23 -35 24 26 39 26 39 43 -29 c50 -34 62 -36 86 -14 17 15 20 15 44 0 l25 -16 -34 -44 c-54 -71 -71 -127 -71 -236 0 -88 3 -101 33 -162 128 -261 516 -261 644 0 31 62 33 74 33 167 0 105 -11 141 -65 222 -17 25 -19 34 -8 37 7 2 51 16 98 31 47 14 118 42 159 62 41 21 81 38 90 39 9 1 26 5 38 9 17 6 25 1 37 -23 19 -37 28 -30 -152 -127 -78 -42 -144 -80 -146 -84 -3 -4 13 -39 35 -79 l40 -71 235 -161 235 -161 81 43 c44 24 79 48 77 53 -1 6 -101 78 -222 160 -120 83 -219 155 -219 160 -1 6 28 27 63 47 l64 37 19 -22 c10 -12 29 -44 43 -72 14 -27 27 -51 28 -53 2 -3 140 68 163 83 1 1 -16 35 -38 76 l-41 74 21 17 c11 9 26 18 33 21 14 5 -50 136 -70 144 -7 3 -22 -2 -35 -11 -32 -23 -35 -21 -60 27 -30 59 -25 88 29 158 40 51 50 59 72 54 14 -3 31 -2 37 3 6 4 25 43 42 87 28 72 29 82 16 102 -12 20 -12 28 4 70 17 48 18 48 67 51 77 5 328 -17 444 -39 130 -25 243 -66 315 -114 259 -171 328 -553 133 -732 -47 -44 -122 -73 -186 -73 -19 0 -83 12 -142 26 -98 24 -111 25 -150 13 -88 -29 -101 -103 -32 -180 20 -22 79 -65 131 -96 51 -31 114 -76 139 -100 131 -128 130 -330 -1 -451 -81 -75 -116 -87 -241 -86 -101 1 -123 5 -270 48 -176 52 -296 67 -372 47 -84 -23 -78 -77 19 -205 78 -101 95 -143 80 -195 -26 -86 -122 -168 -236 -203 -56 -17 -84 -20 -155 -15 -119 9 -202 35 -456 143 -244 105 -409 160 -1167 389 -767 231 -835 257 -950 364 -82 75 -112 136 -112 226 0 126 65 220 207 302 110 64 137 115 104 196 -24 56 -67 96 -161 152 -109 64 -182 136 -192 190 -30 164 125 355 351 429 123 40 275 42 458 5z m1561 -241 c-42 -46 -137 -62 -194 -33 -45 23 -36 35 13 18 54 -19 140 -3 171 33 12 13 23 18 25 13 1 -6 -5 -20 -15 -31z m-797 -167 c13 -37 74 -77 159 -107 51 -17 72 -21 86 -13 23 12 33 6 25 -16 -11 -26 -113 -20 -172 11 -71 37 -125 91 -125 126 0 36 13 36 27 -1z m1293 -20 c0 -47 -138 -133 -184 -115 -25 10 -19 20 15 22 62 5 149 68 149 109 0 8 5 11 10 8 6 -3 10 -14 10 -24z"/>
 <path d="M3755 2231 c-7 -12 12 -24 25 -16 11 7 4 25 -10 25 -5 0 -11 -4 -15 -9z"/>
 <path d="M770 2065 c0 -8 7 -15 15 -15 8 0 15 7 15 15 0 8 -7 15 -15 15 -8 0 -15 -7 -15 -15z"/>
 <path d="M371 2026 c-9 -10 -8 -16 3 -25 10 -9 16 -8 25 3 9 10 8 16 -3 25 -10 9 -16 8 -25 -3z"/>
 <path d="M3925 1780 c-4 -6 -3 -16 3 -22 6 -6 12 -6 17 2 4 6 3 16 -3 22 -6 6 -12 6 -17 -2z"/>
 <path d="M3330 1735 c0 -8 7 -15 15 -15 8 0 15 7 15 15 0 8 -7 15 -15 15 -8 0 -15 -7 -15 -15z"/>
 <path d="M895 1671 c-7 -12 12 -24 25 -16 11 7 4 25 -10 25 -5 0 -11 -4 -15 -9z"/>
 <path d="M3545 1530 c-4 -6 -3 -16 3 -22 6 -6 12 -6 17 2 4 6 3 16 -3 22 -6 6 -12 6 -17 -2z"/>
 <path d="M634 1236 c-10 -26 4 -48 28 -44 17 2 23 10 23 28 0 18 -6 26 -23 28 -13 2 -25 -3 -28 -12z"/>
 <path d="M1688 1128 c-15 -15 -15 -17 0 -31 15 -12 19 -12 32 2 13 14 13 18 0 31 -13 13 -17 13 -32 -2z"/>
 <path d="M3503 1096 c-39 -18 -53 -43 -53 -95 0 -53 7 -69 41 -86 65 -34 141 -9 158 51 26 94 -58 169 -146 130z"/>
 <path d="M290 1050 c0 -5 5 -10 10 -10 6 0 10 5 10 10 0 6 -4 10 -10 10 -5 0 -10 -4 -10 -10z"/>
 <path d="M905 961 c-7 -12 12 -24 25 -16 11 7 4 25 -10 25 -5 0 -11 -4 -15 -9z"/>
 <path d="M1384 866 c-18 -8 -35 -19 -38 -25 -4 -6 -24 -11 -44 -11 -92 0 -110 -33 -39 -72 27 -15 48 -37 59 -60 29 -60 63 -81 131 -76 48 4 63 9 90 36 26 25 41 32 74 32 81 0 79 45 -3 81 -24 10 -50 30 -60 48 -32 55 -105 75 -170 47z"/>
 <path d="M2955 831 c-6 -11 9 -23 19 -14 9 9 7 23 -3 23 -6 0 -12 -4 -16 -9z"/>
 <path d="M2490 815 c0 -8 7 -15 15 -15 8 0 15 7 15 15 0 8 -7 15 -15 15 -8 0 -15 -7 -15 -15z"/>
 <path d="M1930 616 c0 -9 7 -16 16 -16 9 0 14 5 12 12 -6 18 -28 21 -28 4z"/>
 <path d="M2890 540 c0 -5 5 -10 10 -10 6 0 10 5 10 10 0 6 -4 10 -10 10 -5 0 -10 -4 -10 -10z"/>
 <path d="M2670 250 c0 -5 5 -10 10 -10 6 0 10 5 10 10 0 6 -4 10 -10 10 -5 0 -10 -4 -10 -10z"/>
 </g>
<g id="layer108" fill="#9374e6" stroke="none">
 <path d="M0 1235 l0 -1235 2155 0 2155 0 0 1235 0 1235 -2155 0 -2155 0 0 -1235z m833 1184 c56 -11 164 -37 241 -58 146 -40 171 -55 147 -92 -18 -30 -14 -46 45 -156 51 -95 59 -104 83 -102 21 2 43 -15 119 -89 l93 -93 -31 -44 c-17 -25 -35 -45 -41 -45 -5 0 -71 40 -147 88 -75 49 -142 92 -148 95 -7 4 -30 -21 -56 -61 l-45 -67 -27 -260 c-15 -143 -29 -272 -32 -287 -5 -24 2 -32 72 -78 48 -33 79 -48 83 -41 4 5 19 129 35 273 15 144 30 266 32 270 5 7 104 -50 131 -76 10 -9 4 -24 -25 -71 -21 -33 -41 -66 -46 -72 -5 -9 18 -29 71 -63 l78 -50 40 65 c22 35 44 67 48 71 4 4 23 -1 43 -12 21 -11 38 -15 40 -9 2 6 22 37 44 69 l39 60 -34 23 -35 24 26 39 26 39 43 -29 c50 -34 62 -36 86 -14 17 15 20 15 44 0 l25 -16 -34 -44 c-54 -71 -71 -127 -71 -236 0 -88 3 -101 33 -162 128 -261 516 -261 644 0 31 62 33 74 33 167 0 105 -11 141 -65 222 -17 25 -19 34 -8 37 7 2 51 16 98 31 47 14 118 42 159 62 41 21 81 38 90 39 9 1 26 5 38 9 17 6 25 1 37 -23 19 -37 28 -30 -152 -127 -78 -42 -144 -80 -146 -84 -3 -4 13 -39 35 -79 l40 -71 235 -161 235 -161 81 43 c44 24 79 48 77 53 -1 6 -101 78 -222 160 -120 83 -219 155 -219 160 -1 6 28 27 63 47 l64 37 19 -22 c10 -12 29 -44 43 -72 14 -27 27 -51 28 -53 2 -3 140 68 163 83 1 1 -16 35 -38 76 l-41 74 21 17 c11 9 26 18 33 21 14 5 -50 136 -70 144 -7 3 -22 -2 -35 -11 -32 -23 -35 -21 -60 27 -30 59 -25 88 29 158 40 51 50 59 72 54 14 -3 31 -2 37 3 6 4 25 43 42 87 28 72 29 82 16 102 -12 20 -12 28 4 70 17 48 18 48 67 51 77 5 328 -17 444 -39 130 -25 243 -66 315 -114 259 -171 328 -553 133 -732 -47 -44 -122 -73 -186 -73 -19 0 -83 12 -142 26 -98 24 -111 25 -150 13 -88 -29 -101 -103 -32 -180 20 -22 79 -65 131 -96 51 -31 114 -76 139 -100 131 -128 130 -330 -1 -451 -81 -75 -116 -87 -241 -86 -101 1 -123 5 -270 48 -176 52 -296 67 -372 47 -84 -23 -78 -77 19 -205 78 -101 95 -143 80 -195 -26 -86 -122 -168 -236 -203 -56 -17 -84 -20 -155 -15 -119 9 -202 35 -456 143 -244 105 -409 160 -1167 389 -767 231 -835 257 -950 364 -82 75 -112 136 -112 226 0 126 65 220 207 302 110 64 137 115 104 196 -24 56 -67 96 -161 152 -109 64 -182 136 -192 190 -30 164 125 355 351 429 123 40 275 42 458 5z m1557 -174 c26 -24 25 -46 -2 -73 -46 -43 -133 -55 -187 -27 -52 27 -42 73 24 109 40 22 136 17 165 -9z m-643 -213 c88 -46 144 -114 123 -152 -9 -16 -21 -20 -68 -20 -126 0 -277 130 -219 189 17 18 114 8 164 -17z m1124 -12 c30 -17 22 -44 -25 -88 -45 -41 -110 -67 -140 -56 -31 12 -18 51 31 93 38 34 58 45 111 60 2 1 12 -4 23 -9z"/>
 <path d="M3755 2231 c-7 -12 12 -24 25 -16 11 7 4 25 -10 25 -5 0 -11 -4 -15 -9z"/>
 <path d="M770 2065 c0 -8 7 -15 15 -15 8 0 15 7 15 15 0 8 -7 15 -15 15 -8 0 -15 -7 -15 -15z"/>
 <path d="M371 2026 c-9 -10 -8 -16 3 -25 10 -9 16 -8 25 3 9 10 8 16 -3 25 -10 9 -16 8 -25 -3z"/>
 <path d="M3925 1780 c-4 -6 -3 -16 3 -22 6 -6 12 -6 17 2 4 6 3 16 -3 22 -6 6 -12 6 -17 -2z"/>
 <path d="M3330 1735 c0 -8 7 -15 15 -15 8 0 15 7 15 15 0 8 -7 15 -15 15 -8 0 -15 -7 -15 -15z"/>
 <path d="M895 1671 c-7 -12 12 -24 25 -16 11 7 4 25 -10 25 -5 0 -11 -4 -15 -9z"/>
 <path d="M3545 1530 c-4 -6 -3 -16 3 -22 6 -6 12 -6 17 2 4 6 3 16 -3 22 -6 6 -12 6 -17 -2z"/>
 <path d="M634 1236 c-10 -26 4 -48 28 -44 17 2 23 10 23 28 0 18 -6 26 -23 28 -13 2 -25 -3 -28 -12z"/>
 <path d="M1688 1128 c-15 -15 -15 -17 0 -31 15 -12 19 -12 32 2 13 14 13 18 0 31 -13 13 -17 13 -32 -2z"/>
 <path d="M3503 1096 c-39 -18 -53 -43 -53 -95 0 -53 7 -69 41 -86 65 -34 141 -9 158 51 26 94 -58 169 -146 130z"/>
 <path d="M290 1050 c0 -5 5 -10 10 -10 6 0 10 5 10 10 0 6 -4 10 -10 10 -5 0 -10 -4 -10 -10z"/>
 <path d="M905 961 c-7 -12 12 -24 25 -16 11 7 4 25 -10 25 -5 0 -11 -4 -15 -9z"/>
 <path d="M1384 866 c-18 -8 -35 -19 -38 -25 -4 -6 -24 -11 -44 -11 -92 0 -110 -33 -39 -72 27 -15 48 -37 59 -60 29 -60 63 -81 131 -76 48 4 63 9 90 36 26 25 41 32 74 32 81 0 79 45 -3 81 -24 10 -50 30 -60 48 -32 55 -105 75 -170 47z"/>
 <path d="M2955 831 c-6 -11 9 -23 19 -14 9 9 7 23 -3 23 -6 0 -12 -4 -16 -9z"/>
 <path d="M2490 815 c0 -8 7 -15 15 -15 8 0 15 7 15 15 0 8 -7 15 -15 15 -8 0 -15 -7 -15 -15z"/>
 <path d="M1930 616 c0 -9 7 -16 16 -16 9 0 14 5 12 12 -6 18 -28 21 -28 4z"/>
 <path d="M2890 540 c0 -5 5 -10 10 -10 6 0 10 5 10 10 0 6 -4 10 -10 10 -5 0 -10 -4 -10 -10z"/>
 <path d="M2670 250 c0 -5 5 -10 10 -10 6 0 10 5 10 10 0 6 -4 10 -10 10 -5 0 -10 -4 -10 -10z"/>
 </g>
<g id="layer109" fill="#7993fc" stroke="none">
 <path d="M0 1235 l0 -1235 2155 0 2155 0 0 1235 0 1235 -2155 0 -2155 0 0 -1235z m833 1184 c56 -11 164 -37 241 -58 146 -40 171 -55 147 -92 -18 -30 -14 -46 45 -156 51 -95 59 -104 83 -102 21 2 43 -15 119 -89 l93 -93 -31 -44 c-17 -25 -35 -45 -41 -45 -5 0 -71 40 -147 88 -75 49 -142 92 -148 95 -7 4 -30 -21 -56 -61 l-45 -67 -27 -260 c-15 -143 -29 -272 -32 -287 -5 -24 2 -32 72 -78 48 -33 79 -48 83 -41 4 5 19 129 35 273 15 144 30 266 32 270 5 7 104 -50 131 -76 10 -9 4 -24 -25 -71 -21 -33 -41 -66 -46 -72 -5 -9 18 -29 71 -63 l78 -50 40 65 c22 35 44 67 48 71 4 4 23 -1 43 -12 21 -11 38 -15 40 -9 2 6 22 37 44 69 l39 60 -34 23 -35 24 26 39 26 39 43 -29 c50 -34 62 -36 86 -14 14 13 21 13 41 3 13 -6 25 -13 27 -15 1 -1 -11 -20 -28 -41 -51 -65 -74 -129 -79 -223 -5 -117 19 -184 97 -261 171 -168 411 -152 556 37 85 112 87 289 5 407 -21 28 -30 50 -24 56 5 4 32 14 59 21 67 18 192 67 233 92 18 11 42 21 55 23 12 2 32 7 44 10 17 6 25 1 37 -23 19 -37 28 -30 -152 -127 -78 -42 -144 -80 -146 -84 -3 -4 13 -39 35 -79 l40 -71 235 -161 235 -161 81 43 c44 24 79 48 77 53 -1 6 -101 78 -222 160 -120 83 -219 155 -219 160 -1 6 28 27 63 47 l64 37 19 -22 c10 -12 29 -44 43 -72 14 -27 27 -51 28 -53 2 -3 140 68 163 83 1 1 -16 35 -38 76 l-41 74 21 17 c11 9 26 18 33 21 14 5 -50 136 -70 144 -7 3 -22 -2 -35 -11 -32 -23 -35 -21 -60 27 -30 59 -25 88 29 158 40 51 50 59 72 54 14 -3 31 -2 37 3 6 4 25 43 42 87 28 72 29 82 16 102 -12 20 -12 28 4 70 17 48 18 48 67 51 77 5 328 -17 444 -39 130 -25 243 -66 315 -114 259 -171 328 -553 133 -732 -47 -44 -122 -73 -186 -73 -19 0 -83 12 -142 26 -98 24 -111 25 -150 13 -88 -29 -101 -103 -32 -180 20 -22 79 -65 131 -96 51 -31 114 -76 139 -100 131 -128 130 -330 -1 -451 -81 -75 -116 -87 -241 -86 -101 1 -123 5 -270 48 -176 52 -296 67 -372 47 -84 -23 -78 -77 19 -205 78 -101 95 -143 80 -195 -26 -86 -122 -168 -236 -203 -56 -17 -84 -20 -155 -15 -119 9 -202 35 -456 143 -244 105 -409 160 -1167 389 -767 231 -835 257 -950 364 -82 75 -112 136 -112 226 0 126 65 220 207 302 110 64 137 115 104 196 -24 56 -67 96 -161 152 -109 64 -182 136 -192 190 -30 164 125 355 351 429 123 40 275 42 458 5z m1557 -174 c26 -24 25 -46 -2 -73 -46 -43 -133 -55 -187 -27 -52 27 -42 73 24 109 40 22 136 17 165 -9z m-643 -213 c88 -46 144 -114 123 -152 -9 -16 -21 -20 -68 -20 -126 0 -277 130 -219 189 17 18 114 8 164 -17z m1124 -12 c30 -17 22 -44 -25 -88 -45 -41 -110 -67 -140 -56 -31 12 -18 51 31 93 38 34 58 45 111 60 2 1 12 -4 23 -9z"/>
 <path d="M3755 2231 c-7 -12 12 -24 25 -16 11 7 4 25 -10 25 -5 0 -11 -4 -15 -9z"/>
 <path d="M770 2065 c0 -8 7 -15 15 -15 8 0 15 7 15 15 0 8 -7 15 -15 15 -8 0 -15 -7 -15 -15z"/>
 <path d="M371 2026 c-9 -10 -8 -16 3 -25 10 -9 16 -8 25 3 9 10 8 16 -3 25 -10 9 -16 8 -25 -3z"/>
 <path d="M3925 1780 c-4 -6 -3 -16 3 -22 6 -6 12 -6 17 2 4 6 3 16 -3 22 -6 6 -12 6 -17 -2z"/>
 <path d="M3330 1735 c0 -8 7 -15 15 -15 8 0 15 7 15 15 0 8 -7 15 -15 15 -8 0 -15 -7 -15 -15z"/>
 <path d="M895 1671 c-7 -12 12 -24 25 -16 11 7 4 25 -10 25 -5 0 -11 -4 -15 -9z"/>
 <path d="M3545 1530 c-4 -6 -3 -16 3 -22 6 -6 12 -6 17 2 4 6 3 16 -3 22 -6 6 -12 6 -17 -2z"/>
 <path d="M634 1236 c-10 -26 4 -48 28 -44 17 2 23 10 23 28 0 18 -6 26 -23 28 -13 2 -25 -3 -28 -12z"/>
 <path d="M1688 1128 c-15 -15 -15 -17 0 -31 15 -12 19 -12 32 2 13 14 13 18 0 31 -13 13 -17 13 -32 -2z"/>
 <path d="M3503 1096 c-39 -18 -53 -43 -53 -95 0 -53 7 -69 41 -86 65 -34 141 -9 158 51 26 94 -58 169 -146 130z"/>
 <path d="M290 1050 c0 -5 5 -10 10 -10 6 0 10 5 10 10 0 6 -4 10 -10 10 -5 0 -10 -4 -10 -10z"/>
 <path d="M905 961 c-7 -12 12 -24 25 -16 11 7 4 25 -10 25 -5 0 -11 -4 -15 -9z"/>
 <path d="M1384 866 c-18 -8 -35 -19 -38 -25 -4 -6 -24 -11 -44 -11 -92 0 -110 -33 -39 -72 27 -15 48 -37 59 -60 29 -60 63 -81 131 -76 48 4 63 9 90 36 26 25 41 32 74 32 81 0 79 45 -3 81 -24 10 -50 30 -60 48 -32 55 -105 75 -170 47z m-84 -76 c0 -5 -7 -7 -15 -4 -8 4 -15 8 -15 10 0 2 7 4 15 4 8 0 15 -4 15 -10z m324 -59 c3 -5 -3 -11 -14 -14 -13 -3 -20 0 -20 9 0 15 26 19 34 5z"/>
 <path d="M2955 831 c-6 -11 9 -23 19 -14 9 9 7 23 -3 23 -6 0 -12 -4 -16 -9z"/>
 <path d="M2490 815 c0 -8 7 -15 15 -15 8 0 15 7 15 15 0 8 -7 15 -15 15 -8 0 -15 -7 -15 -15z"/>
 <path d="M1930 616 c0 -9 7 -16 16 -16 9 0 14 5 12 12 -6 18 -28 21 -28 4z"/>
 <path d="M2890 540 c0 -5 5 -10 10 -10 6 0 10 5 10 10 0 6 -4 10 -10 10 -5 0 -10 -4 -10 -10z"/>
 <path d="M2670 250 c0 -5 5 -10 10 -10 6 0 10 5 10 10 0 6 -4 10 -10 10 -5 0 -10 -4 -10 -10z"/>
 </g>
<g id="layer110" fill="#7aa5f5" stroke="none">
 <path d="M0 1235 l0 -1235 2155 0 2155 0 0 1235 0 1235 -2155 0 -2155 0 0 -1235z m833 1184 c56 -11 164 -37 241 -58 146 -40 171 -55 147 -92 -18 -30 -14 -46 45 -156 51 -95 59 -104 83 -102 21 2 43 -15 119 -89 l93 -93 -31 -44 c-17 -25 -35 -45 -41 -45 -5 0 -71 40 -147 88 -75 49 -142 92 -148 95 -7 4 -30 -21 -56 -61 l-45 -67 -27 -260 c-15 -143 -29 -272 -32 -287 -5 -24 2 -32 72 -78 48 -33 79 -48 83 -41 4 5 19 129 35 273 15 144 30 266 32 270 5 7 104 -50 131 -76 10 -9 4 -24 -25 -71 -21 -33 -41 -66 -46 -72 -5 -9 18 -29 71 -63 l78 -50 40 65 c22 35 44 67 48 71 4 4 23 -1 43 -12 21 -11 38 -15 40 -9 2 6 22 37 44 69 l39 60 -34 23 -35 24 26 39 26 39 43 -29 c50 -34 62 -36 86 -14 14 13 21 13 41 3 13 -6 25 -13 27 -15 1 -1 -11 -20 -28 -41 -51 -65 -74 -129 -79 -223 -5 -117 19 -184 97 -261 171 -168 411 -152 556 37 85 112 87 289 5 407 -21 28 -30 50 -24 56 5 4 32 14 59 21 67 18 192 67 233 92 18 11 42 21 55 23 12 2 32 7 44 10 17 6 25 1 37 -23 19 -37 28 -30 -152 -127 -78 -42 -144 -80 -146 -84 -3 -4 13 -39 35 -79 l40 -71 235 -161 235 -161 81 43 c44 24 79 48 77 53 -1 6 -101 78 -222 160 -120 83 -219 155 -219 160 -1 6 28 27 63 47 l64 37 19 -22 c10 -12 29 -44 43 -72 14 -27 27 -51 28 -53 2 -3 140 68 163 83 1 1 -16 35 -38 76 l-41 74 21 17 c11 9 26 18 33 21 14 5 -50 136 -70 144 -7 3 -22 -2 -35 -11 -32 -23 -35 -21 -60 27 -30 59 -25 88 29 158 40 51 50 59 72 54 14 -3 31 -2 37 3 6 4 25 43 42 87 28 72 29 82 16 102 -12 20 -12 28 4 70 17 48 18 48 67 51 77 5 328 -17 444 -39 130 -25 243 -66 315 -114 259 -171 328 -553 133 -732 -47 -44 -122 -73 -186 -73 -19 0 -83 12 -142 26 -98 24 -111 25 -150 13 -88 -29 -101 -103 -32 -180 20 -22 79 -65 131 -96 51 -31 114 -76 139 -100 131 -128 130 -330 -1 -451 -81 -75 -116 -87 -241 -86 -101 1 -123 5 -270 48 -176 52 -296 67 -372 47 -84 -23 -78 -77 19 -205 78 -101 95 -143 80 -195 -26 -86 -122 -168 -236 -203 -56 -17 -84 -20 -155 -15 -119 9 -202 35 -456 143 -244 105 -409 160 -1167 389 -767 231 -835 257 -950 364 -82 75 -112 136 -112 226 0 126 65 220 207 302 110 64 137 115 104 196 -24 56 -67 96 -161 152 -109 64 -182 136 -192 190 -30 164 125 355 351 429 123 40 275 42 458 5z m1557 -174 c26 -24 25 -46 -2 -73 -46 -43 -133 -55 -187 -27 -52 27 -42 73 24 109 40 22 136 17 165 -9z m-643 -213 c88 -46 144 -114 123 -152 -9 -16 -21 -20 -68 -20 -126 0 -277 130 -219 189 17 18 114 8 164 -17z m1124 -12 c30 -17 22 -44 -25 -88 -45 -41 -110 -67 -140 -56 -31 12 -18 51 31 93 38 34 58 45 111 60 2 1 12 -4 23 -9z"/>
 <path d="M3755 2231 c-7 -12 12 -24 25 -16 11 7 4 25 -10 25 -5 0 -11 -4 -15 -9z"/>
 <path d="M770 2065 c0 -8 7 -15 15 -15 8 0 15 7 15 15 0 8 -7 15 -15 15 -8 0 -15 -7 -15 -15z"/>
 <path d="M371 2026 c-9 -10 -8 -16 3 -25 10 -9 16 -8 25 3 9 10 8 16 -3 25 -10 9 -16 8 -25 -3z"/>
 <path d="M3925 1780 c-4 -6 -3 -16 3 -22 6 -6 12 -6 17 2 4 6 3 16 -3 22 -6 6 -12 6 -17 -2z"/>
 <path d="M3330 1735 c0 -8 7 -15 15 -15 8 0 15 7 15 15 0 8 -7 15 -15 15 -8 0 -15 -7 -15 -15z"/>
 <path d="M895 1671 c-7 -12 12 -24 25 -16 11 7 4 25 -10 25 -5 0 -11 -4 -15 -9z"/>
 <path d="M3545 1530 c-4 -6 -3 -16 3 -22 6 -6 12 -6 17 2 4 6 3 16 -3 22 -6 6 -12 6 -17 -2z"/>
 <path d="M634 1236 c-10 -26 4 -48 28 -44 17 2 23 10 23 28 0 18 -6 26 -23 28 -13 2 -25 -3 -28 -12z"/>
 <path d="M1688 1128 c-15 -15 -15 -17 0 -31 15 -12 19 -12 32 2 13 14 13 18 0 31 -13 13 -17 13 -32 -2z"/>
 <path d="M3535 1090 c-42 -3 -60 -9 -60 -19 0 -26 38 -29 94 -6 61 25 52 32 -34 25z"/>
 <path d="M3573 1045 l-28 -24 47 -1 c50 0 72 -14 35 -23 -12 -3 -57 -11 -99 -18 -43 -6 -78 -16 -78 -20 0 -5 9 -18 20 -29 l21 -21 32 25 c18 13 52 30 77 37 60 16 61 19 49 62 -12 45 -35 48 -76 12z"/>
 <path d="M290 1050 c0 -5 5 -10 10 -10 6 0 10 5 10 10 0 6 -4 10 -10 10 -5 0 -10 -4 -10 -10z"/>
 <path d="M3450 1016 l0 -34 43 5 c44 6 76 23 42 23 -11 0 -35 9 -52 20 l-33 20 0 -34z"/>
 <path d="M905 961 c-7 -12 12 -24 25 -16 11 7 4 25 -10 25 -5 0 -11 -4 -15 -9z"/>
 <path d="M3580 927 c-32 -20 -33 -22 -13 -25 23 -3 73 24 73 39 0 15 -23 10 -60 -14z"/>
 <path d="M1384 866 c-18 -8 -35 -19 -38 -25 -4 -6 -24 -11 -44 -11 -92 0 -110 -33 -39 -72 27 -15 48 -37 59 -60 29 -60 63 -81 131 -76 48 4 63 9 90 36 26 25 41 32 74 32 81 0 79 45 -3 81 -24 10 -50 30 -60 48 -32 55 -105 75 -170 47z m39 -33 c-7 -2 -21 -2 -30 0 -10 3 -4 5 12 5 17 0 24 -2 18 -5z m54 -9 c-3 -3 -12 -4 -19 -1 -8 3 -5 6 6 6 11 1 17 -2 13 -5z m40 -11 c-4 -3 -10 -3 -14 0 -3 4 0 7 7 7 7 0 10 -3 7 -7z m-197 -12 c0 -15 -17 -22 -36 -14 -16 6 -16 7 2 14 27 11 34 10 34 0z m230 4 c0 -3 -2 -5 -5 -5 -3 0 -5 2 -5 5 0 3 2 5 5 5 3 0 5 -2 5 -5z m73 -72 c8 -8 -35 -32 -46 -25 -11 5 12 32 28 32 6 0 15 -3 18 -7z"/>
 <path d="M2955 831 c-6 -11 9 -23 19 -14 9 9 7 23 -3 23 -6 0 -12 -4 -16 -9z"/>
 <path d="M2490 815 c0 -8 7 -15 15 -15 8 0 15 7 15 15 0 8 -7 15 -15 15 -8 0 -15 -7 -15 -15z"/>
 <path d="M1930 616 c0 -9 7 -16 16 -16 9 0 14 5 12 12 -6 18 -28 21 -28 4z"/>
 <path d="M2890 540 c0 -5 5 -10 10 -10 6 0 10 5 10 10 0 6 -4 10 -10 10 -5 0 -10 -4 -10 -10z"/>
 <path d="M2670 250 c0 -5 5 -10 10 -10 6 0 10 5 10 10 0 6 -4 10 -10 10 -5 0 -10 -4 -10 -10z"/>
 </g>
<g id="layer111" fill="#a37dff" stroke="none">
 <path d="M0 1235 l0 -1235 2155 0 2155 0 0 1235 0 1235 -2155 0 -2155 0 0 -1235z m833 1184 c56 -11 164 -37 241 -58 146 -40 171 -55 147 -92 -18 -30 -14 -46 45 -156 51 -95 59 -104 83 -102 21 2 43 -15 119 -89 l93 -93 -31 -44 c-17 -25 -35 -45 -41 -45 -5 0 -71 40 -147 88 -75 49 -142 92 -148 95 -7 4 -30 -21 -56 -61 l-45 -67 -27 -260 c-15 -143 -29 -272 -32 -287 -5 -24 2 -32 72 -78 48 -33 79 -48 83 -41 4 5 19 129 35 273 15 144 30 266 32 270 5 7 104 -50 131 -76 10 -9 4 -24 -25 -71 -21 -33 -41 -66 -46 -72 -5 -9 18 -29 71 -63 l78 -50 40 65 c22 35 44 67 48 71 4 4 23 -1 43 -12 21 -11 38 -15 40 -9 2 6 22 37 44 69 l39 60 -34 23 -35 24 26 39 26 39 43 -29 c50 -34 62 -36 86 -14 14 13 21 13 41 3 13 -6 25 -13 27 -15 1 -1 -11 -20 -28 -41 -51 -65 -74 -129 -79 -223 -5 -117 19 -184 97 -261 171 -168 411 -152 556 37 85 112 87 289 5 407 -21 28 -30 50 -24 56 5 4 32 14 59 21 67 18 192 67 233 92 18 11 42 21 55 23 12 2 32 7 44 10 17 6 25 1 37 -23 19 -37 28 -30 -152 -127 -78 -42 -144 -80 -146 -84 -3 -4 13 -39 35 -79 l40 -71 235 -161 235 -161 81 43 c44 24 79 48 77 53 -1 6 -101 78 -222 160 -120 83 -219 155 -219 160 -1 6 28 27 63 47 l64 37 19 -22 c10 -12 29 -44 43 -72 14 -27 27 -51 28 -53 2 -3 140 68 163 83 1 1 -16 35 -38 76 l-41 74 21 17 c11 9 26 18 33 21 14 5 -50 136 -70 144 -7 3 -22 -2 -35 -11 -32 -23 -35 -21 -60 27 -30 59 -25 88 29 158 40 51 50 59 72 54 14 -3 31 -2 37 3 6 4 25 43 42 87 28 72 29 82 16 102 -12 20 -12 28 4 70 17 48 18 48 67 51 77 5 328 -17 444 -39 130 -25 243 -66 315 -114 259 -171 328 -553 133 -732 -47 -44 -122 -73 -186 -73 -19 0 -83 12 -142 26 -98 24 -111 25 -150 13 -88 -29 -101 -103 -32 -180 20 -22 79 -65 131 -96 51 -31 114 -76 139 -100 131 -128 130 -330 -1 -451 -81 -75 -116 -87 -241 -86 -101 1 -123 5 -270 48 -176 52 -296 67 -372 47 -84 -23 -78 -77 19 -205 78 -101 95 -143 80 -195 -26 -86 -122 -168 -236 -203 -56 -17 -84 -20 -155 -15 -119 9 -202 35 -456 143 -244 105 -409 160 -1167 389 -767 231 -835 257 -950 364 -82 75 -112 136 -112 226 0 126 65 220 207 302 110 64 137 115 104 196 -24 56 -67 96 -161 152 -109 64 -182 136 -192 190 -30 164 125 355 351 429 123 40 275 42 458 5z m1557 -174 c26 -24 25 -46 -2 -73 -46 -43 -133 -55 -187 -27 -52 27 -42 73 24 109 40 22 136 17 165 -9z m-643 -213 c88 -46 144 -114 123 -152 -9 -16 -21 -20 -68 -20 -126 0 -277 130 -219 189 17 18 114 8 164 -17z m1124 -12 c30 -17 22 -44 -25 -88 -45 -41 -110 -67 -140 -56 -31 12 -18 51 31 93 38 34 58 45 111 60 2 1 12 -4 23 -9z"/>
 <path d="M3755 2231 c-7 -12 12 -24 25 -16 11 7 4 25 -10 25 -5 0 -11 -4 -15 -9z"/>
 <path d="M770 2065 c0 -8 7 -15 15 -15 8 0 15 7 15 15 0 8 -7 15 -15 15 -8 0 -15 -7 -15 -15z"/>
 <path d="M371 2026 c-9 -10 -8 -16 3 -25 10 -9 16 -8 25 3 9 10 8 16 -3 25 -10 9 -16 8 -25 -3z"/>
 <path d="M3925 1780 c-4 -6 -3 -16 3 -22 6 -6 12 -6 17 2 4 6 3 16 -3 22 -6 6 -12 6 -17 -2z"/>
 <path d="M3330 1735 c0 -8 7 -15 15 -15 8 0 15 7 15 15 0 8 -7 15 -15 15 -8 0 -15 -7 -15 -15z"/>
 <path d="M895 1671 c-7 -12 12 -24 25 -16 11 7 4 25 -10 25 -5 0 -11 -4 -15 -9z"/>
 <path d="M3545 1530 c-4 -6 -3 -16 3 -22 6 -6 12 -6 17 2 4 6 3 16 -3 22 -6 6 -12 6 -17 -2z"/>
 <path d="M634 1236 c-10 -26 4 -48 28 -44 17 2 23 10 23 28 0 18 -6 26 -23 28 -13 2 -25 -3 -28 -12z"/>
 <path d="M1688 1128 c-15 -15 -15 -17 0 -31 15 -12 19 -12 32 2 13 14 13 18 0 31 -13 13 -17 13 -32 -2z"/>
 <path d="M3474 1078 c-8 -13 15 -28 41 -27 11 0 35 8 52 17 l33 17 -60 2 c-33 0 -63 -3 -66 -9z"/>
 <path d="M3588 1054 c-41 -21 -34 -34 17 -34 45 0 50 5 39 34 -8 20 -21 20 -56 0z"/>
 <path d="M290 1050 c0 -5 5 -10 10 -10 6 0 10 5 10 10 0 6 -4 10 -10 10 -5 0 -10 -4 -10 -10z"/>
 <path d="M3450 1015 c0 -22 4 -25 38 -25 20 0 44 5 52 10 12 8 11 10 -8 10 -13 0 -36 7 -52 15 -29 15 -30 15 -30 -10z"/>
 <path d="M3580 985 c-36 -8 -80 -14 -97 -14 -36 -1 -40 -8 -19 -36 14 -19 16 -18 76 13 35 18 73 32 86 32 12 0 26 5 29 10 7 12 8 12 -75 -5z"/>
 <path d="M905 961 c-7 -12 12 -24 25 -16 11 7 4 25 -10 25 -5 0 -11 -4 -15 -9z"/>
 <path d="M3590 928 c-26 -16 -31 -23 -18 -26 18 -4 68 25 68 39 0 14 -12 11 -50 -13z"/>
 <path d="M1451 863 c14 -16 69 -43 88 -43 6 0 8 6 5 14 -6 17 -64 46 -89 46 -15 0 -16 -2 -4 -17z"/>
 <path d="M1370 860 c-12 -8 -12 -10 3 -16 21 -8 35 2 21 16 -5 5 -15 6 -24 0z"/>
 <path d="M1315 832 c-76 -6 -95 -13 -95 -32 0 -13 14 -27 40 -40 47 -24 64 -25 56 -5 -7 19 -2 19 32 1 72 -37 189 -69 247 -67 106 3 110 41 10 86 -81 36 -221 63 -290 57z m100 -52 c34 -36 20 -39 -44 -9 -25 11 -51 17 -58 15 -7 -3 -21 -2 -30 1 -15 6 -15 7 3 14 10 4 37 8 60 8 32 1 46 -5 69 -29z m144 -11 c17 -6 31 -14 31 -19 0 -4 10 -10 23 -14 21 -6 21 -7 -10 -22 -31 -15 -33 -15 -65 9 -18 14 -43 28 -55 32 -13 3 -23 11 -23 16 0 12 60 11 99 -2z"/>
 <path d="M2955 831 c-6 -11 9 -23 19 -14 9 9 7 23 -3 23 -6 0 -12 -4 -16 -9z"/>
 <path d="M2490 815 c0 -8 7 -15 15 -15 8 0 15 7 15 15 0 8 -7 15 -15 15 -8 0 -15 -7 -15 -15z"/>
 <path d="M1363 693 c-39 -5 -40 -9 -12 -39 18 -19 26 -21 47 -13 15 6 51 9 81 7 32 -2 56 1 58 8 9 25 -98 48 -174 37z"/>
 <path d="M1930 616 c0 -9 7 -16 16 -16 9 0 14 5 12 12 -6 18 -28 21 -28 4z"/>
 <path d="M2890 540 c0 -5 5 -10 10 -10 6 0 10 5 10 10 0 6 -4 10 -10 10 -5 0 -10 -4 -10 -10z"/>
 <path d="M2670 250 c0 -5 5 -10 10 -10 6 0 10 5 10 10 0 6 -4 10 -10 10 -5 0 -10 -4 -10 -10z"/>
 </g>
<g id="layer112" fill="#80c2ff" stroke="none">
 <path d="M0 1235 l0 -1235 2155 0 2155 0 0 1235 0 1235 -2155 0 -2155 0 0 -1235z m833 1184 c56 -11 164 -37 241 -58 146 -40 171 -55 147 -92 -18 -30 -14 -46 45 -156 51 -95 59 -104 83 -102 21 2 43 -15 119 -89 l93 -93 -31 -44 c-17 -25 -35 -45 -41 -45 -5 0 -71 40 -147 88 -75 49 -142 92 -148 95 -7 4 -30 -21 -56 -61 l-45 -67 -27 -260 c-15 -143 -29 -272 -32 -287 -5 -24 2 -32 72 -78 48 -33 79 -48 83 -41 4 5 19 129 35 273 15 144 30 266 32 270 5 7 104 -50 131 -76 10 -9 4 -24 -25 -71 -21 -33 -41 -66 -46 -72 -5 -9 18 -29 71 -63 l78 -50 40 65 c22 35 44 67 48 71 4 4 23 -1 43 -12 21 -11 38 -15 40 -9 2 6 22 37 44 69 l39 60 -34 23 -35 24 26 39 26 39 43 -29 c50 -34 62 -36 85 -15 15 14 22 13 61 -4 60 -27 203 -51 300 -51 76 0 80 -1 118 -35 58 -53 181 -101 181 -71 0 24 -33 53 -76 64 -22 7 -49 21 -59 32 -18 19 -17 20 4 20 55 0 290 80 359 122 18 11 42 21 55 23 12 2 32 7 44 10 17 6 25 1 37 -23 19 -37 28 -30 -152 -127 -78 -42 -144 -80 -146 -84 -3 -4 13 -39 35 -79 l40 -71 235 -161 235 -161 81 43 c44 24 79 48 77 53 -1 6 -101 78 -222 160 -120 83 -219 155 -219 160 -1 6 28 27 63 47 l64 37 19 -22 c10 -12 29 -44 43 -72 14 -27 27 -51 28 -53 2 -3 140 68 163 83 1 1 -16 35 -38 76 l-41 74 21 17 c11 9 26 18 33 21 14 5 -50 136 -70 144 -7 3 -22 -2 -35 -11 -32 -23 -35 -21 -60 27 -30 59 -25 88 29 158 40 51 50 59 72 54 14 -3 31 -2 37 3 6 4 25 43 42 87 28 72 29 82 16 102 -12 20 -12 28 4 70 17 48 18 48 67 51 77 5 328 -17 444 -39 130 -25 243 -66 315 -114 259 -171 328 -553 133 -732 -47 -44 -122 -73 -186 -73 -19 0 -83 12 -142 26 -98 24 -111 25 -150 13 -88 -29 -101 -103 -32 -180 20 -22 79 -65 131 -96 51 -31 114 -76 139 -100 131 -128 130 -330 -1 -451 -81 -75 -116 -87 -241 -86 -101 1 -123 5 -270 48 -176 52 -296 67 -372 47 -84 -23 -78 -77 19 -205 78 -101 95 -143 80 -195 -26 -86 -122 -168 -236 -203 -56 -17 -84 -20 -155 -15 -119 9 -202 35 -456 143 -244 105 -409 160 -1167 389 -767 231 -835 257 -950 364 -82 75 -112 136 -112 226 0 126 65 220 207 302 110 64 137 115 104 196 -24 56 -67 96 -161 152 -109 64 -182 136 -192 190 -30 164 125 355 351 429 123 40 275 42 458 5z m1557 -174 c26 -24 25 -46 -2 -73 -46 -43 -133 -55 -187 -27 -52 27 -42 73 24 109 40 22 136 17 165 -9z m-643 -213 c88 -46 144 -114 123 -152 -9 -16 -21 -20 -68 -20 -126 0 -277 130 -219 189 17 18 114 8 164 -17z m1124 -12 c30 -17 22 -44 -25 -88 -45 -41 -110 -67 -140 -56 -31 12 -18 51 31 93 38 34 58 45 111 60 2 1 12 -4 23 -9z"/>
 <path d="M3755 2231 c-7 -12 12 -24 25 -16 11 7 4 25 -10 25 -5 0 -11 -4 -15 -9z"/>
 <path d="M770 2065 c0 -8 7 -15 15 -15 8 0 15 7 15 15 0 8 -7 15 -15 15 -8 0 -15 -7 -15 -15z"/>
 <path d="M371 2026 c-9 -10 -8 -16 3 -25 10 -9 16 -8 25 3 9 10 8 16 -3 25 -10 9 -16 8 -25 -3z"/>
 <path d="M3925 1780 c-4 -6 -3 -16 3 -22 6 -6 12 -6 17 2 4 6 3 16 -3 22 -6 6 -12 6 -17 -2z"/>
 <path d="M3330 1735 c0 -8 7 -15 15 -15 8 0 15 7 15 15 0 8 -7 15 -15 15 -8 0 -15 -7 -15 -15z"/>
 <path d="M895 1671 c-7 -12 12 -24 25 -16 11 7 4 25 -10 25 -5 0 -11 -4 -15 -9z"/>
 <path d="M1861 1601 c-27 -38 -60 -111 -61 -133 0 -13 14 -18 68 -23 37 -3 132 -23 212 -43 126 -32 160 -37 260 -37 143 0 170 6 170 41 0 22 -3 25 -22 20 -53 -14 -126 -17 -164 -7 -23 6 -94 43 -158 81 -113 69 -240 130 -270 130 -8 0 -24 -13 -35 -29z"/>
 <path d="M3545 1530 c-4 -6 -3 -16 3 -22 6 -6 12 -6 17 2 4 6 3 16 -3 22 -6 6 -12 6 -17 -2z"/>
 <path d="M1794 1300 c10 -51 53 -139 71 -146 9 -4 60 5 115 19 95 25 104 25 227 15 70 -6 158 -8 194 -4 57 6 68 11 78 32 6 14 11 29 11 34 0 6 -66 7 -167 4 l-168 -6 -120 36 c-66 20 -149 39 -184 43 l-64 6 7 -33z"/>
 <path d="M634 1236 c-10 -26 4 -48 28 -44 17 2 23 10 23 28 0 18 -6 26 -23 28 -13 2 -25 -3 -28 -12z"/>
 <path d="M1688 1128 c-15 -15 -15 -17 0 -31 15 -12 19 -12 32 2 13 14 13 18 0 31 -13 13 -17 13 -32 -2z"/>
 <path d="M3474 1078 c-8 -13 15 -28 41 -27 11 0 35 8 52 17 l33 17 -60 2 c-33 0 -63 -3 -66 -9z"/>
 <path d="M3588 1054 c-41 -21 -34 -34 17 -34 45 0 50 5 39 34 -8 20 -21 20 -56 0z"/>
 <path d="M290 1050 c0 -5 5 -10 10 -10 6 0 10 5 10 10 0 6 -4 10 -10 10 -5 0 -10 -4 -10 -10z"/>
 <path d="M2107 1045 c-27 -7 -51 -16 -54 -18 -9 -10 106 -19 144 -12 65 11 113 28 107 36 -8 13 -143 9 -197 -6z"/>
 <path d="M3450 1015 c0 -22 4 -25 38 -25 20 0 44 5 52 10 12 8 11 10 -8 10 -13 0 -36 7 -52 15 -29 15 -30 15 -30 -10z"/>
 <path d="M3580 985 c-36 -8 -80 -14 -97 -14 -36 -1 -40 -8 -19 -36 14 -19 16 -18 76 13 35 18 73 32 86 32 12 0 26 5 29 10 7 12 8 12 -75 -5z"/>
 <path d="M905 961 c-7 -12 12 -24 25 -16 11 7 4 25 -10 25 -5 0 -11 -4 -15 -9z"/>
 <path d="M3590 928 c-26 -16 -31 -23 -18 -26 18 -4 68 25 68 39 0 14 -12 11 -50 -13z"/>
 <path d="M1451 863 c14 -16 69 -43 88 -43 6 0 8 6 5 14 -6 17 -64 46 -89 46 -15 0 -16 -2 -4 -17z"/>
 <path d="M1370 860 c-12 -8 -12 -10 3 -16 21 -8 35 2 21 16 -5 5 -15 6 -24 0z"/>
 <path d="M1315 832 c-76 -6 -95 -13 -95 -32 0 -18 63 -60 90 -60 23 0 7 16 -32 32 -23 10 -38 21 -34 25 4 4 37 9 74 11 64 3 69 1 97 -28 34 -35 20 -39 -44 -10 -48 22 -61 24 -61 11 0 -10 75 -44 164 -73 108 -36 234 -18 196 28 -39 46 -255 105 -355 96z m244 -63 c17 -6 31 -14 31 -19 0 -4 10 -10 23 -14 21 -6 21 -7 -10 -22 -31 -15 -33 -15 -65 9 -18 14 -43 28 -55 32 -13 3 -23 11 -23 16 0 12 60 11 99 -2z"/>
 <path d="M2955 831 c-6 -11 9 -23 19 -14 9 9 7 23 -3 23 -6 0 -12 -4 -16 -9z"/>
 <path d="M2490 815 c0 -8 7 -15 15 -15 8 0 15 7 15 15 0 8 -7 15 -15 15 -8 0 -15 -7 -15 -15z"/>
 <path d="M1363 693 c-39 -5 -40 -9 -12 -39 18 -19 26 -21 47 -13 15 6 51 9 81 7 32 -2 56 1 58 8 9 25 -98 48 -174 37z"/>
 <path d="M1930 616 c0 -9 7 -16 16 -16 9 0 14 5 12 12 -6 18 -28 21 -28 4z"/>
 <path d="M2890 540 c0 -5 5 -10 10 -10 6 0 10 5 10 10 0 6 -4 10 -10 10 -5 0 -10 -4 -10 -10z"/>
 <path d="M2670 250 c0 -5 5 -10 10 -10 6 0 10 5 10 10 0 6 -4 10 -10 10 -5 0 -10 -4 -10 -10z"/>
 </g>
<g id="layer113" fill="#93c8e9" stroke="none">
 <path d="M0 1235 l0 -1235 2155 0 2155 0 0 1235 0 1235 -2155 0 -2155 0 0 -1235z m833 1184 c56 -11 164 -37 241 -58 146 -40 171 -55 147 -92 -18 -30 -14 -46 45 -156 51 -95 59 -104 83 -102 21 2 43 -15 119 -89 l93 -93 -31 -44 c-17 -25 -35 -45 -41 -45 -5 0 -71 40 -147 88 -75 49 -142 92 -148 95 -7 4 -30 -21 -56 -61 l-45 -67 -27 -260 c-15 -143 -29 -272 -32 -287 -5 -24 2 -32 72 -78 48 -33 79 -48 83 -41 4 5 19 129 35 273 15 144 30 266 32 270 5 7 104 -50 131 -76 10 -9 4 -24 -25 -71 -21 -33 -41 -66 -46 -72 -5 -9 18 -29 71 -63 l78 -50 40 65 c22 35 44 67 48 71 4 4 23 -1 43 -12 21 -11 38 -15 40 -9 2 6 22 37 44 69 l39 60 -34 23 -35 24 26 39 26 39 43 -29 c50 -34 62 -36 85 -15 15 14 22 13 61 -4 60 -27 203 -51 300 -51 76 0 80 -1 118 -35 58 -53 181 -101 181 -71 0 24 -33 53 -76 64 -22 7 -49 21 -59 32 -18 19 -17 20 4 20 55 0 290 80 359 122 18 11 42 21 55 23 12 2 32 7 44 10 17 6 25 1 37 -23 19 -37 28 -30 -152 -127 -78 -42 -144 -80 -146 -84 -3 -4 13 -39 35 -79 l40 -71 235 -161 235 -161 81 43 c44 24 79 48 77 53 -1 6 -101 78 -222 160 -120 83 -219 155 -219 160 -1 6 28 27 63 47 l64 37 19 -22 c10 -12 29 -44 43 -72 14 -27 27 -51 28 -53 2 -3 140 68 163 83 1 1 -16 35 -38 76 l-41 74 21 17 c11 9 26 18 33 21 14 5 -50 136 -70 144 -7 3 -22 -2 -35 -11 -32 -23 -35 -21 -60 27 -30 59 -25 88 29 158 40 51 50 59 72 54 14 -3 31 -2 37 3 6 4 25 43 42 87 28 72 29 82 16 102 -12 20 -12 28 4 70 17 48 18 48 67 51 77 5 328 -17 444 -39 130 -25 243 -66 315 -114 259 -171 328 -553 133 -732 -47 -44 -122 -73 -186 -73 -19 0 -83 12 -142 26 -98 24 -111 25 -150 13 -88 -29 -101 -103 -32 -180 20 -22 79 -65 131 -96 51 -31 114 -76 139 -100 131 -128 130 -330 -1 -451 -81 -75 -116 -87 -241 -86 -101 1 -123 5 -270 48 -176 52 -296 67 -372 47 -84 -23 -78 -77 19 -205 78 -101 95 -143 80 -195 -26 -86 -122 -168 -236 -203 -56 -17 -84 -20 -155 -15 -119 9 -202 35 -456 143 -244 105 -409 160 -1167 389 -767 231 -835 257 -950 364 -82 75 -112 136 -112 226 0 126 65 220 207 302 110 64 137 115 104 196 -24 56 -67 96 -161 152 -109 64 -182 136 -192 190 -30 164 125 355 351 429 123 40 275 42 458 5z m1557 -174 c26 -24 25 -46 -2 -73 -46 -43 -133 -55 -187 -27 -52 27 -42 73 24 109 40 22 136 17 165 -9z m-643 -213 c88 -46 144 -114 123 -152 -9 -16 -21 -20 -68 -20 -126 0 -277 130 -219 189 17 18 114 8 164 -17z m1124 -12 c30 -17 22 -44 -25 -88 -45 -41 -110 -67 -140 -56 -31 12 -18 51 31 93 38 34 58 45 111 60 2 1 12 -4 23 -9z"/>
 <path d="M3755 2231 c-7 -12 12 -24 25 -16 11 7 4 25 -10 25 -5 0 -11 -4 -15 -9z"/>
 <path d="M770 2065 c0 -8 7 -15 15 -15 8 0 15 7 15 15 0 8 -7 15 -15 15 -8 0 -15 -7 -15 -15z"/>
 <path d="M371 2026 c-9 -10 -8 -16 3 -25 10 -9 16 -8 25 3 9 10 8 16 -3 25 -10 9 -16 8 -25 -3z"/>
 <path d="M3925 1780 c-4 -6 -3 -16 3 -22 6 -6 12 -6 17 2 4 6 3 16 -3 22 -6 6 -12 6 -17 -2z"/>
 <path d="M3330 1735 c0 -8 7 -15 15 -15 8 0 15 7 15 15 0 8 -7 15 -15 15 -8 0 -15 -7 -15 -15z"/>
 <path d="M895 1671 c-7 -12 12 -24 25 -16 11 7 4 25 -10 25 -5 0 -11 -4 -15 -9z"/>
 <path d="M1861 1601 c-27 -38 -60 -111 -61 -133 0 -13 14 -18 68 -23 37 -3 132 -23 212 -43 126 -32 160 -37 260 -37 143 0 170 6 170 41 0 22 -3 25 -22 20 -53 -14 -126 -17 -164 -7 -23 6 -94 43 -158 81 -113 69 -240 130 -270 130 -8 0 -24 -13 -35 -29z"/>
 <path d="M3545 1530 c-4 -6 -3 -16 3 -22 6 -6 12 -6 17 2 4 6 3 16 -3 22 -6 6 -12 6 -17 -2z"/>
 <path d="M1794 1300 c10 -51 53 -139 71 -146 9 -4 60 5 115 19 95 25 104 25 227 15 70 -6 158 -8 194 -4 57 6 68 11 78 32 6 14 11 29 11 34 0 6 -66 7 -167 4 l-168 -6 -120 36 c-66 20 -149 39 -184 43 l-64 6 7 -33z"/>
 <path d="M634 1236 c-10 -26 4 -48 28 -44 17 2 23 10 23 28 0 18 -6 26 -23 28 -13 2 -25 -3 -28 -12z"/>
 <path d="M1688 1128 c-15 -15 -15 -17 0 -31 15 -12 19 -12 32 2 13 14 13 18 0 31 -13 13 -17 13 -32 -2z"/>
 <path d="M290 1050 c0 -5 5 -10 10 -10 6 0 10 5 10 10 0 6 -4 10 -10 10 -5 0 -10 -4 -10 -10z"/>
 <path d="M2107 1045 c-27 -7 -51 -16 -54 -18 -9 -10 106 -19 144 -12 65 11 113 28 107 36 -8 13 -143 9 -197 -6z"/>
 <path d="M905 961 c-7 -12 12 -24 25 -16 11 7 4 25 -10 25 -5 0 -11 -4 -15 -9z"/>
 <path d="M1451 863 c14 -16 69 -43 88 -43 6 0 8 6 5 14 -6 17 -64 46 -89 46 -15 0 -16 -2 -4 -17z"/>
 <path d="M1370 860 c-12 -8 -12 -10 3 -16 21 -8 35 2 21 16 -5 5 -15 6 -24 0z"/>
 <path d="M1315 832 c-76 -6 -95 -13 -95 -32 0 -18 63 -60 90 -60 23 0 7 16 -32 32 -23 10 -38 21 -34 25 4 4 37 9 74 11 64 3 69 1 97 -28 34 -35 20 -39 -44 -10 -48 22 -61 24 -61 11 0 -10 75 -44 164 -73 108 -36 234 -18 196 28 -39 46 -255 105 -355 96z m244 -63 c17 -6 31 -14 31 -19 0 -4 10 -10 23 -14 21 -6 21 -7 -10 -22 -31 -15 -33 -15 -65 9 -18 14 -43 28 -55 32 -13 3 -23 11 -23 16 0 12 60 11 99 -2z"/>
 <path d="M2955 831 c-6 -11 9 -23 19 -14 9 9 7 23 -3 23 -6 0 -12 -4 -16 -9z"/>
 <path d="M2490 815 c0 -8 7 -15 15 -15 8 0 15 7 15 15 0 8 -7 15 -15 15 -8 0 -15 -7 -15 -15z"/>
 <path d="M1363 693 c-39 -5 -40 -9 -12 -39 18 -19 26 -21 47 -13 15 6 51 9 81 7 32 -2 56 1 58 8 9 25 -98 48 -174 37z"/>
 <path d="M1930 616 c0 -9 7 -16 16 -16 9 0 14 5 12 12 -6 18 -28 21 -28 4z"/>
 <path d="M2890 540 c0 -5 5 -10 10 -10 6 0 10 5 10 10 0 6 -4 10 -10 10 -5 0 -10 -4 -10 -10z"/>
 <path d="M2670 250 c0 -5 5 -10 10 -10 6 0 10 5 10 10 0 6 -4 10 -10 10 -5 0 -10 -4 -10 -10z"/>
 </g>
<g id="layer114" fill="#aac2fe" stroke="none">
 <path d="M0 1235 l0 -1235 2155 0 2155 0 0 1235 0 1235 -2155 0 -2155 0 0 -1235z m833 1184 c56 -11 164 -37 241 -58 146 -40 171 -55 147 -92 -18 -30 -14 -46 45 -156 51 -95 59 -104 83 -102 21 2 43 -15 119 -89 l93 -93 -31 -44 c-17 -25 -35 -45 -41 -45 -5 0 -71 40 -147 88 -75 49 -142 92 -148 95 -7 4 -30 -21 -56 -61 l-45 -67 -27 -260 c-15 -143 -29 -272 -32 -287 -5 -24 2 -32 72 -78 48 -33 79 -48 83 -41 4 5 19 129 35 273 15 144 30 266 32 270 5 7 104 -50 131 -76 10 -9 4 -24 -25 -71 -21 -33 -41 -66 -46 -72 -5 -9 18 -29 71 -63 l78 -50 40 65 c22 35 44 67 48 71 4 4 23 -1 43 -12 21 -11 38 -15 40 -9 2 6 22 37 44 69 l39 60 -34 23 -35 24 26 39 26 39 43 -29 c50 -34 62 -36 85 -15 15 14 22 13 61 -4 60 -27 203 -51 300 -51 76 0 80 -1 118 -35 58 -53 181 -101 181 -71 0 24 -33 53 -76 64 -22 7 -49 21 -59 32 -18 19 -17 20 4 20 55 0 290 80 359 122 18 11 42 21 55 23 12 2 32 7 44 10 17 6 25 1 37 -23 19 -37 28 -30 -152 -127 -78 -42 -144 -80 -146 -84 -3 -4 13 -39 35 -79 l40 -71 235 -161 235 -161 81 43 c44 24 79 48 77 53 -1 6 -101 78 -222 160 -120 83 -219 155 -219 160 -1 6 28 27 63 47 l64 37 19 -22 c10 -12 29 -44 43 -72 14 -27 27 -51 28 -53 2 -3 140 68 163 83 1 1 -16 35 -38 76 l-41 74 21 17 c11 9 26 18 33 21 14 5 -50 136 -70 144 -7 3 -22 -2 -35 -11 -32 -23 -35 -21 -60 27 -30 59 -25 88 29 158 40 51 50 59 72 54 14 -3 31 -2 37 3 6 4 25 43 42 87 28 72 29 82 16 102 -12 20 -12 28 4 70 17 48 18 48 67 51 77 5 328 -17 444 -39 130 -25 243 -66 315 -114 259 -171 328 -553 133 -732 -47 -44 -122 -73 -186 -73 -19 0 -83 12 -142 26 -98 24 -111 25 -150 13 -88 -29 -101 -103 -32 -180 20 -22 79 -65 131 -96 51 -31 114 -76 139 -100 131 -128 130 -330 -1 -451 -81 -75 -116 -87 -241 -86 -101 1 -123 5 -270 48 -176 52 -296 67 -372 47 -84 -23 -78 -77 19 -205 78 -101 95 -143 80 -195 -26 -86 -122 -168 -236 -203 -56 -17 -84 -20 -155 -15 -119 9 -202 35 -456 143 -244 105 -409 160 -1167 389 -767 231 -835 257 -950 364 -82 75 -112 136 -112 226 0 126 65 220 207 302 110 64 137 115 104 196 -24 56 -67 96 -161 152 -109 64 -182 136 -192 190 -30 164 125 355 351 429 123 40 275 42 458 5z m1557 -174 c26 -24 25 -46 -2 -73 -46 -43 -133 -55 -187 -27 -52 27 -42 73 24 109 40 22 136 17 165 -9z m-643 -213 c88 -46 144 -114 123 -152 -9 -16 -21 -20 -68 -20 -126 0 -277 130 -219 189 17 18 114 8 164 -17z m1124 -12 c30 -17 22 -44 -25 -88 -45 -41 -110 -67 -140 -56 -31 12 -18 51 31 93 38 34 58 45 111 60 2 1 12 -4 23 -9z"/>
 <path d="M3755 2231 c-7 -12 12 -24 25 -16 11 7 4 25 -10 25 -5 0 -11 -4 -15 -9z"/>
 <path d="M770 2065 c0 -8 7 -15 15 -15 8 0 15 7 15 15 0 8 -7 15 -15 15 -8 0 -15 -7 -15 -15z"/>
 <path d="M371 2026 c-9 -10 -8 -16 3 -25 10 -9 16 -8 25 3 9 10 8 16 -3 25 -10 9 -16 8 -25 -3z"/>
 <path d="M3925 1780 c-4 -6 -3 -16 3 -22 6 -6 12 -6 17 2 4 6 3 16 -3 22 -6 6 -12 6 -17 -2z"/>
 <path d="M3330 1735 c0 -8 7 -15 15 -15 8 0 15 7 15 15 0 8 -7 15 -15 15 -8 0 -15 -7 -15 -15z"/>
 <path d="M895 1671 c-7 -12 12 -24 25 -16 11 7 4 25 -10 25 -5 0 -11 -4 -15 -9z"/>
 <path d="M1861 1601 c-27 -38 -60 -111 -61 -133 0 -13 14 -18 68 -23 37 -3 132 -23 212 -43 126 -32 160 -37 260 -37 143 0 170 6 170 41 0 22 -3 25 -22 20 -53 -14 -126 -17 -164 -7 -23 6 -94 43 -158 81 -113 69 -240 130 -270 130 -8 0 -24 -13 -35 -29z"/>
 <path d="M3545 1530 c-4 -6 -3 -16 3 -22 6 -6 12 -6 17 2 4 6 3 16 -3 22 -6 6 -12 6 -17 -2z"/>
 <path d="M1794 1300 c10 -51 53 -139 71 -146 9 -4 60 5 115 19 95 25 104 25 227 15 70 -6 158 -8 194 -4 57 6 68 11 78 32 6 14 11 29 11 34 0 6 -66 7 -167 4 l-168 -6 -120 36 c-66 20 -149 39 -184 43 l-64 6 7 -33z"/>
 <path d="M1688 1128 c-15 -15 -15 -17 0 -31 15 -12 19 -12 32 2 13 14 13 18 0 31 -13 13 -17 13 -32 -2z"/>
 <path d="M2107 1045 c-27 -7 -51 -16 -54 -18 -9 -10 106 -19 144 -12 65 11 113 28 107 36 -8 13 -143 9 -197 -6z"/>
 <path d="M905 961 c-7 -12 12 -24 25 -16 11 7 4 25 -10 25 -5 0 -11 -4 -15 -9z"/>
 <path d="M1451 863 c14 -16 69 -43 88 -43 6 0 8 6 5 14 -6 17 -64 46 -89 46 -15 0 -16 -2 -4 -17z"/>
 <path d="M1370 860 c-12 -8 -12 -10 3 -16 21 -8 35 2 21 16 -5 5 -15 6 -24 0z"/>
 <path d="M1315 832 c-76 -6 -95 -13 -95 -32 0 -18 63 -60 90 -60 23 0 7 16 -32 32 -23 10 -38 21 -34 25 4 4 37 9 74 11 64 3 69 1 97 -28 34 -35 20 -39 -44 -10 -48 22 -61 24 -61 11 0 -10 75 -44 164 -73 108 -36 234 -18 196 28 -39 46 -255 105 -355 96z m244 -63 c17 -6 31 -14 31 -19 0 -4 10 -10 23 -14 21 -6 21 -7 -10 -22 -31 -15 -33 -15 -65 9 -18 14 -43 28 -55 32 -13 3 -23 11 -23 16 0 12 60 11 99 -2z"/>
 <path d="M2955 831 c-6 -11 9 -23 19 -14 9 9 7 23 -3 23 -6 0 -12 -4 -16 -9z"/>
 <path d="M2490 815 c0 -8 7 -15 15 -15 8 0 15 7 15 15 0 8 -7 15 -15 15 -8 0 -15 -7 -15 -15z"/>
 <path d="M1363 693 c-39 -5 -40 -9 -12 -39 18 -19 26 -21 47 -13 15 6 51 9 81 7 32 -2 56 1 58 8 9 25 -98 48 -174 37z"/>
 <path d="M1930 616 c0 -9 7 -16 16 -16 9 0 14 5 12 12 -6 18 -28 21 -28 4z"/>
 </g>
<g id="layer115" fill="#cbbaff" stroke="none">
 <path d="M0 1235 l0 -1235 2155 0 2155 0 0 1235 0 1235 -2155 0 -2155 0 0 -1235z m833 1184 c56 -11 164 -37 241 -58 146 -40 171 -55 147 -92 -18 -30 -14 -46 45 -156 51 -95 59 -104 83 -102 21 2 43 -15 119 -89 l93 -93 -31 -44 c-17 -25 -35 -45 -41 -45 -5 0 -71 40 -147 88 -75 49 -142 92 -148 95 -7 4 -30 -21 -56 -61 l-45 -67 -27 -260 c-15 -143 -29 -272 -32 -287 -5 -24 2 -32 72 -78 48 -33 79 -48 83 -41 4 5 19 129 35 273 15 144 30 266 32 270 5 7 104 -50 131 -76 10 -9 4 -24 -25 -71 -21 -33 -41 -66 -46 -72 -5 -9 18 -29 71 -63 l78 -50 40 65 c22 35 44 67 48 71 4 4 23 -1 43 -12 21 -11 38 -15 40 -9 2 6 22 37 44 69 l39 60 -34 23 -35 24 26 39 26 39 43 -29 c50 -34 62 -36 85 -15 15 14 22 13 61 -4 60 -27 203 -51 300 -51 76 0 80 -1 118 -35 58 -53 181 -101 181 -71 0 24 -33 53 -76 64 -22 7 -49 21 -59 32 -18 19 -17 20 4 20 55 0 290 80 359 122 18 11 42 21 55 23 12 2 32 7 44 10 17 6 25 1 37 -23 19 -37 28 -30 -152 -127 -78 -42 -144 -80 -146 -84 -3 -4 13 -39 35 -79 l40 -71 235 -161 235 -161 81 43 c44 24 79 48 77 53 -1 6 -101 78 -222 160 -120 83 -219 155 -219 160 -1 6 28 27 63 47 l64 37 19 -22 c10 -12 29 -44 43 -72 14 -27 27 -51 28 -53 2 -3 140 68 163 83 1 1 -16 35 -38 76 l-41 74 21 17 c11 9 26 18 33 21 14 5 -50 136 -70 144 -7 3 -22 -2 -35 -11 -32 -23 -35 -21 -60 27 -30 59 -25 88 29 158 40 51 50 59 72 54 14 -3 31 -2 37 3 6 4 25 43 42 87 28 72 29 82 16 102 -12 20 -12 28 4 70 17 48 18 48 67 51 77 5 328 -17 444 -39 130 -25 243 -66 315 -114 259 -171 328 -553 133 -732 -47 -44 -122 -73 -186 -73 -19 0 -83 12 -142 26 -98 24 -111 25 -150 13 -88 -29 -101 -103 -32 -180 20 -22 79 -65 131 -96 51 -31 114 -76 139 -100 131 -128 130 -330 -1 -451 -81 -75 -116 -87 -241 -86 -101 1 -123 5 -270 48 -176 52 -296 67 -372 47 -84 -23 -78 -77 19 -205 78 -101 95 -143 80 -195 -26 -86 -122 -168 -236 -203 -56 -17 -84 -20 -155 -15 -119 9 -202 35 -456 143 -244 105 -409 160 -1167 389 -767 231 -835 257 -950 364 -82 75 -112 136 -112 226 0 126 65 220 207 302 110 64 137 115 104 196 -24 56 -67 96 -161 152 -109 64 -182 136 -192 190 -30 164 125 355 351 429 123 40 275 42 458 5z m1557 -174 c26 -24 25 -46 -2 -73 -46 -43 -133 -55 -187 -27 -52 27 -42 73 24 109 40 22 136 17 165 -9z m-643 -213 c88 -46 144 -114 123 -152 -9 -16 -21 -20 -68 -20 -126 0 -277 130 -219 189 17 18 114 8 164 -17z m1124 -12 c30 -17 22 -44 -25 -88 -45 -41 -110 -67 -140 -56 -31 12 -18 51 31 93 38 34 58 45 111 60 2 1 12 -4 23 -9z"/>
 <path d="M3755 2231 c-7 -12 12 -24 25 -16 11 7 4 25 -10 25 -5 0 -11 -4 -15 -9z"/>
 <path d="M770 2065 c0 -8 7 -15 15 -15 8 0 15 7 15 15 0 8 -7 15 -15 15 -8 0 -15 -7 -15 -15z"/>
 <path d="M371 2026 c-9 -10 -8 -16 3 -25 10 -9 16 -8 25 3 9 10 8 16 -3 25 -10 9 -16 8 -25 -3z"/>
 <path d="M3925 1780 c-4 -6 -3 -16 3 -22 6 -6 12 -6 17 2 4 6 3 16 -3 22 -6 6 -12 6 -17 -2z"/>
 <path d="M3330 1735 c0 -8 7 -15 15 -15 8 0 15 7 15 15 0 8 -7 15 -15 15 -8 0 -15 -7 -15 -15z"/>
 <path d="M895 1671 c-7 -12 12 -24 25 -16 11 7 4 25 -10 25 -5 0 -11 -4 -15 -9z"/>
 <path d="M1861 1601 c-27 -38 -60 -111 -61 -133 0 -13 14 -18 68 -23 37 -3 132 -23 212 -43 126 -32 160 -37 260 -37 143 0 170 6 170 41 0 22 -3 25 -22 20 -53 -14 -126 -17 -164 -7 -23 6 -94 43 -158 81 -113 69 -240 130 -270 130 -8 0 -24 -13 -35 -29z"/>
 <path d="M3545 1530 c-4 -6 -3 -16 3 -22 6 -6 12 -6 17 2 4 6 3 16 -3 22 -6 6 -12 6 -17 -2z"/>
 <path d="M1794 1300 c10 -51 53 -139 71 -146 9 -4 60 5 115 19 95 25 104 25 227 15 70 -6 158 -8 194 -4 57 6 68 11 78 32 6 14 11 29 11 34 0 6 -66 7 -167 4 l-168 -6 -120 36 c-66 20 -149 39 -184 43 l-64 6 7 -33z"/>
 <path d="M1688 1128 c-15 -15 -15 -17 0 -31 15 -12 19 -12 32 2 13 14 13 18 0 31 -13 13 -17 13 -32 -2z"/>
 <path d="M2107 1045 c-27 -7 -51 -16 -54 -18 -9 -10 106 -19 144 -12 65 11 113 28 107 36 -8 13 -143 9 -197 -6z"/>
 <path d="M905 961 c-7 -12 12 -24 25 -16 11 7 4 25 -10 25 -5 0 -11 -4 -15 -9z"/>
 <path d="M1315 832 c-77 -7 -95 -13 -95 -32 0 -21 72 -65 93 -57 7 2 -7 14 -31 26 -23 12 -40 26 -37 31 3 5 51 7 108 5 106 -4 215 -26 232 -48 6 -7 19 -17 30 -21 18 -6 15 -10 -20 -26 l-40 -19 51 -1 c101 0 93 48 -14 90 -65 25 -232 57 -277 52z"/>
 <path d="M2955 831 c-6 -11 9 -23 19 -14 9 9 7 23 -3 23 -6 0 -12 -4 -16 -9z"/>
 <path d="M2490 815 c0 -8 7 -15 15 -15 8 0 15 7 15 15 0 8 -7 15 -15 15 -8 0 -15 -7 -15 -15z"/>
 <path d="M1930 616 c0 -9 7 -16 16 -16 9 0 14 5 12 12 -6 18 -28 21 -28 4z"/>
 </g>
<g id="layer116" fill="#fefefe" stroke="none">
 <path d="M0 1235 l0 -1235 2155 0 2155 0 0 1235 0 1235 -2155 0 -2155 0 0 -1235z m833 1184 c56 -11 164 -37 241 -58 146 -40 171 -55 147 -92 -18 -30 -14 -46 45 -156 51 -95 59 -104 83 -102 21 2 43 -14 118 -89 l92 -92 -31 -50 c-18 -29 -35 -47 -42 -43 -6 4 -72 46 -146 93 -74 48 -140 90 -146 93 -7 4 -30 -21 -56 -61 l-45 -67 -27 -260 c-15 -143 -29 -272 -32 -287 -5 -24 2 -32 72 -78 48 -33 79 -48 83 -41 4 5 19 129 35 273 15 144 30 266 32 270 5 7 104 -50 131 -76 10 -9 4 -24 -25 -71 -21 -33 -41 -66 -46 -72 -5 -9 18 -29 71 -63 l78 -50 40 65 c22 35 44 67 48 71 4 4 23 -1 43 -12 21 -11 38 -15 40 -9 2 6 22 37 44 69 l39 60 -34 23 -35 24 26 39 26 39 43 -29 c50 -34 62 -36 86 -14 14 12 22 13 38 4 39 -20 199 -50 304 -56 163 -10 349 31 517 114 41 20 79 36 84 34 4 -1 19 5 33 13 14 9 26 15 28 13 1 -2 10 -17 18 -34 13 -25 14 -34 4 -42 -6 -5 -76 -44 -155 -87 -78 -42 -144 -80 -146 -84 -3 -4 13 -39 35 -79 l40 -71 235 -161 235 -161 81 43 c44 24 79 48 77 53 -1 6 -101 78 -222 160 -120 83 -219 155 -219 160 -1 6 28 27 63 47 l64 37 19 -22 c10 -12 29 -44 43 -72 14 -27 27 -51 28 -53 2 -3 140 68 163 83 1 1 -16 35 -38 76 l-41 74 21 17 c11 9 26 18 33 21 14 5 -50 136 -70 144 -7 3 -22 -2 -35 -11 -32 -23 -35 -21 -60 27 -30 59 -25 88 29 158 40 51 50 59 72 54 14 -3 31 -2 37 3 6 4 25 43 42 87 28 72 29 82 16 102 -12 20 -12 28 4 70 17 48 18 48 67 51 77 5 328 -17 444 -39 130 -25 243 -66 315 -114 259 -171 328 -553 133 -732 -47 -44 -122 -73 -186 -73 -19 0 -83 12 -142 26 -98 24 -111 25 -150 13 -88 -29 -101 -103 -32 -180 20 -22 79 -65 131 -96 51 -31 114 -76 139 -100 131 -128 130 -330 -1 -451 -81 -75 -116 -87 -241 -86 -101 1 -123 5 -270 48 -176 52 -296 67 -372 47 -84 -23 -78 -77 19 -205 78 -101 95 -143 80 -195 -26 -86 -122 -168 -236 -203 -56 -17 -84 -20 -155 -15 -119 9 -202 35 -456 143 -244 105 -409 160 -1167 389 -767 231 -835 257 -950 364 -82 75 -112 136 -112 226 0 126 65 220 207 302 110 64 137 115 104 196 -24 56 -67 96 -161 152 -109 64 -182 136 -192 190 -30 164 125 355 351 429 123 40 275 42 458 5z m1557 -174 c26 -24 25 -46 -2 -73 -46 -43 -133 -55 -187 -27 -52 27 -42 73 24 109 40 22 136 17 165 -9z m-643 -213 c88 -46 144 -114 123 -152 -9 -16 -21 -20 -68 -20 -126 0 -277 130 -219 189 17 18 114 8 164 -17z m1124 -12 c30 -17 22 -44 -25 -88 -45 -41 -110 -67 -140 -56 -31 12 -18 51 31 93 38 34 58 45 111 60 2 1 12 -4 23 -9z"/>
 <path d="M3755 2231 c-7 -12 12 -24 25 -16 11 7 4 25 -10 25 -5 0 -11 -4 -15 -9z"/>
 <path d="M770 2065 c0 -8 7 -15 15 -15 8 0 15 7 15 15 0 8 -7 15 -15 15 -8 0 -15 -7 -15 -15z"/>
 <path d="M371 2026 c-9 -10 -8 -16 3 -25 10 -9 16 -8 25 3 9 10 8 16 -3 25 -10 9 -16 8 -25 -3z"/>
 <path d="M3925 1780 c-4 -6 -3 -16 3 -22 6 -6 12 -6 17 2 4 6 3 16 -3 22 -6 6 -12 6 -17 -2z"/>
 <path d="M3330 1735 c0 -8 7 -15 15 -15 8 0 15 7 15 15 0 8 -7 15 -15 15 -8 0 -15 -7 -15 -15z"/>
 <path d="M895 1671 c-7 -12 12 -24 25 -16 11 7 4 25 -10 25 -5 0 -11 -4 -15 -9z"/>
 <path d="M3545 1530 c-4 -6 -3 -16 3 -22 6 -6 12 -6 17 2 4 6 3 16 -3 22 -6 6 -12 6 -17 -2z"/>
 <path d="M1688 1128 c-15 -15 -15 -17 0 -31 15 -12 19 -12 32 2 13 14 13 18 0 31 -13 13 -17 13 -32 -2z"/>
 <path d="M905 961 c-7 -12 12 -24 25 -16 11 7 4 25 -10 25 -5 0 -11 -4 -15 -9z"/>
 <path d="M1315 832 c-77 -7 -95 -13 -95 -32 0 -21 72 -65 93 -57 7 2 -7 14 -30 26 -49 25 -54 36 -18 45 59 15 328 -38 351 -68 6 -9 14 -13 17 -10 3 3 11 3 16 -1 19 -11 -14 -34 -48 -33 -17 1 -34 -2 -38 -5 -3 -4 16 -7 44 -7 100 0 92 48 -15 90 -65 25 -232 57 -277 52z"/>
 <path d="M2955 831 c-6 -11 9 -23 19 -14 9 9 7 23 -3 23 -6 0 -12 -4 -16 -9z"/>
 <path d="M2490 815 c0 -8 7 -15 15 -15 8 0 15 7 15 15 0 8 -7 15 -15 15 -8 0 -15 -7 -15 -15z"/>
 <path d="M1930 616 c0 -9 7 -16 16 -16 9 0 14 5 12 12 -6 18 -28 21 -28 4z"/>
 </g>

</svg>