<!DOCTYPE svg PUBLIC "-//W3C//DTD SVG 20010904//EN" "http://www.w3.org/TR/2001/REC-SVG-20010904/DTD/svg10.dtd">
<svg version="1.0" xmlns="http://www.w3.org/2000/svg" width="1228px" height="1228px" viewBox="0 0 12280 12280" preserveAspectRatio="xMidYMid meet">
<g id="layerbg1" fill="#6b5e3c" stroke="none">
 <path d="M6270 9520 l-2565 -5 0 -1705 0 -1705 1175 -6 c1472 -8 1356 -8 2780 0 l1195 6 3 1701 c2 1354 0 1703 -10 1710 -8 5 -1120 7 -2578 4z"/>
 <path d="M7020 3725 c-10 -12 -8 -16 13 -24 14 -6 54 -23 89 -39 61 -28 161 -63 278 -97 91 -26 361 -65 521 -75 167 -11 410 0 599 25 179 25 215 28 209 22 -11 -13 -279 -66 -436 -87 -379 -49 -632 -45 -943 16 -91 18 -211 50 -264 70 -27 11 -42 12 -49 5 -7 -7 -7 -14 -1 -19 25 -22 288 -91 402 -106 24 -3 83 -11 130 -17 110 -14 460 -15 572 -1 47 6 117 14 155 17 71 7 334 58 480 94 44 11 82 18 86 15 3 -2 15 6 25 17 17 19 17 20 -3 40 l-20 20 -154 -25 c-444 -72 -936 -66 -1264 15 -144 36 -294 87 -375 129 -33 17 -40 17 -50 5z"/>
 <path d="M5502 2813 c-7 -3 -50 -55 -96 -116 -258 -344 -502 -627 -731 -848 -110 -106 -320 -283 -457 -386 -85 -64 -103 -88 -74 -99 32 -12 303 181 591 422 250 209 625 589 789 799 21 28 50 59 63 71 20 17 22 23 10 32 -11 9 -38 -17 -139 -136 -202 -236 -509 -554 -614 -634 -16 -12 -65 -54 -109 -94 -87 -78 -272 -224 -283 -224 -4 0 20 24 53 52 82 72 232 212 279 262 21 23 69 73 106 111 38 39 96 104 131 146 149 177 256 306 274 330 11 14 68 90 127 167 100 130 114 157 80 145z"/>
 </g>
<g id="layerbg2" fill="#926653" stroke="none">
 <path d="M3707 6114 c-4 -4 -4 -11 -1 -15 3 -5 531 -9 1173 -9 l1168 0 7 -67 c3 -38 11 -196 16 -353 5 -157 13 -323 16 -370 4 -47 8 -101 9 -120 1 -19 5 -80 8 -135 4 -55 10 -163 13 -240 3 -77 9 -198 13 -270 4 -71 7 -206 6 -300 0 -146 -3 -178 -21 -230 -12 -33 -34 -98 -49 -145 -39 -123 -88 -234 -178 -410 -115 -224 -257 -463 -351 -590 -22 -30 -41 -58 -41 -62 0 -16 -355 -474 -386 -498 -3 -3 -40 -45 -81 -95 -41 -49 -90 -106 -109 -125 -19 -20 -65 -68 -103 -109 -103 -111 -337 -327 -421 -390 -22 -16 -78 -59 -125 -95 -47 -35 -94 -71 -104 -79 -13 -9 -16 -16 -8 -21 19 -11 361 231 527 374 234 201 399 357 556 525 133 144 160 174 253 285 48 58 93 105 99 105 7 0 13 9 15 20 2 11 14 31 27 45 80 88 295 404 415 610 131 226 266 516 294 634 l7 29 86 -86 c47 -48 118 -111 157 -141 86 -66 280 -184 315 -193 14 -3 55 -20 91 -38 78 -39 102 -48 200 -74 249 -67 549 -98 793 -81 193 13 438 46 597 82 74 16 164 36 199 44 35 7 69 19 77 25 23 19 4 32 -40 25 -22 -3 -75 -10 -116 -16 -41 -5 -127 -16 -190 -25 -509 -69 -1049 -11 -1413 152 -357 160 -560 363 -671 671 -43 121 -43 123 -6 942 12 263 18 373 30 604 7 123 7 183 0 190 -6 6 -91 12 -208 14 -353 8 -2538 12 -2545 6z"/>
 <path d="M6475 6110 c-3 -6 0 -12 7 -15 26 -10 2358 0 2358 10 0 14 -2356 19 -2365 5z"/>
 </g>
<g id="layerbg3" fill="#889e43" stroke="none">
 <path d="M5495 11959 c-150 -8 -339 -25 -445 -41 -36 -5 -103 -14 -150 -19 -91 -11 -264 -46 -540 -108 -263 -60 -713 -209 -925 -306 -44 -20 -102 -47 -130 -60 -27 -12 -63 -26 -80 -29 -16 -4 -57 -25 -90 -46 -33 -21 -114 -65 -180 -98 -218 -110 -520 -301 -735 -467 -249 -191 -598 -515 -740 -686 -30 -36 -93 -109 -139 -163 -130 -150 -314 -401 -376 -511 -16 -27 -39 -64 -51 -82 -75 -101 -296 -530 -403 -779 -227 -531 -369 -1129 -421 -1771 -21 -257 -10 -880 20 -1105 27 -205 33 -250 52 -336 11 -52 25 -131 32 -175 19 -117 55 -277 68 -301 7 -12 28 -88 49 -171 20 -82 64 -229 97 -325 277 -806 719 -1537 1305 -2161 500 -532 1033 -940 1662 -1273 110 -59 225 -115 255 -127 30 -11 102 -42 160 -68 268 -123 740 -277 1044 -341 50 -11 141 -31 202 -45 360 -82 825 -121 1324 -112 405 8 718 38 1010 97 261 52 269 54 385 83 204 51 544 161 715 232 58 24 137 55 175 70 39 15 90 38 115 51 25 12 101 50 170 83 751 361 1441 908 1992 1579 135 163 459 627 487 697 2 6 16 28 30 50 49 76 192 360 316 630 64 139 157 396 213 590 156 533 219 908 242 1455 11 250 -1 659 -25 845 -7 61 -16 137 -20 170 -23 217 -124 664 -216 957 -201 645 -560 1309 -1003 1858 -206 256 -597 654 -776 790 -25 19 -50 42 -57 51 -7 9 -89 69 -182 133 -94 65 -173 122 -176 127 -12 18 -154 118 -206 145 -30 15 -94 55 -144 89 -49 34 -115 75 -145 90 -30 15 -66 36 -80 45 -31 22 -315 164 -430 215 -47 21 -103 46 -125 55 -61 27 -362 145 -430 168 -396 135 -963 267 -1325 306 -80 9 -183 21 -230 26 -219 27 -829 37 -1145 19z m1325 -685 c235 -18 579 -61 594 -73 6 -5 32 -9 57 -9 25 0 63 -7 84 -16 20 -9 53 -16 72 -16 19 0 49 -6 66 -14 18 -8 55 -17 82 -19 45 -4 404 -122 447 -147 10 -6 26 -10 35 -10 22 0 132 -36 188 -61 22 -10 56 -22 75 -25 40 -8 105 -39 115 -54 3 -5 15 -10 26 -10 11 0 59 -20 107 -44 305 -152 401 -203 423 -222 8 -8 19 -14 22 -14 16 0 175 -102 383 -247 328 -227 602 -469 883 -781 144 -160 187 -215 390 -495 69 -94 171 -250 171 -261 0 -3 14 -25 30 -49 17 -25 30 -48 30 -53 0 -4 6 -15 14 -23 17 -19 67 -112 132 -243 9 -18 21 -44 28 -58 7 -14 33 -65 58 -115 26 -49 54 -117 64 -150 9 -33 34 -94 55 -135 21 -41 49 -118 63 -170 14 -53 30 -109 37 -125 6 -17 20 -59 30 -95 10 -36 27 -92 39 -125 12 -33 23 -78 25 -100 6 -55 36 -178 46 -189 5 -6 9 -26 9 -46 0 -50 20 -152 32 -167 5 -7 10 -36 10 -65 -1 -29 3 -57 8 -63 8 -10 12 -54 25 -244 3 -52 11 -101 17 -108 7 -9 8 -42 4 -99 -5 -58 -4 -90 4 -99 7 -9 9 -63 6 -172 -3 -87 -7 -207 -9 -268 -1 -60 -6 -117 -10 -125 -3 -8 -6 -31 -6 -50 0 -67 -33 -345 -46 -390 -7 -25 -21 -94 -30 -155 -10 -60 -21 -119 -26 -130 -5 -11 -18 -63 -29 -115 -21 -97 -35 -146 -102 -355 -21 -66 -38 -127 -38 -135 0 -9 -6 -24 -14 -35 -7 -11 -19 -38 -25 -60 -7 -22 -16 -49 -22 -60 -19 -43 -89 -220 -89 -226 0 -6 -74 -163 -99 -209 -11 -21 -30 -57 -40 -77 -11 -24 -39 -77 -73 -138 -15 -27 -35 -65 -44 -84 -8 -19 -26 -49 -39 -65 -12 -17 -33 -51 -46 -76 -13 -25 -36 -63 -51 -85 -74 -106 -138 -205 -138 -211 0 -3 -17 -27 -38 -53 -21 -25 -54 -68 -72 -96 -19 -27 -59 -77 -90 -110 -31 -33 -71 -82 -89 -110 -19 -27 -64 -82 -100 -121 -36 -39 -95 -104 -131 -145 -86 -97 -405 -392 -469 -434 -27 -18 -81 -60 -118 -92 -37 -32 -86 -69 -108 -82 -22 -14 -67 -46 -100 -71 -64 -50 -260 -180 -271 -180 -3 0 -27 -15 -53 -34 -25 -18 -67 -42 -92 -53 -25 -11 -83 -46 -128 -77 -45 -31 -87 -56 -93 -56 -6 0 -43 -15 -82 -34 -39 -19 -87 -42 -106 -50 -19 -9 -42 -20 -50 -25 -18 -13 -147 -71 -155 -71 -7 0 -76 -30 -160 -70 -33 -16 -85 -36 -115 -44 -30 -8 -86 -25 -125 -39 -38 -13 -122 -39 -185 -57 -63 -18 -119 -36 -125 -40 -5 -5 -23 -11 -40 -14 -16 -3 -77 -17 -135 -32 -58 -14 -141 -32 -185 -40 -44 -8 -90 -19 -103 -24 -13 -6 -40 -10 -62 -10 -21 0 -42 -4 -45 -10 -3 -5 -32 -10 -63 -10 -31 -1 -88 -8 -127 -17 -38 -8 -94 -15 -123 -14 -29 1 -58 -2 -65 -6 -6 -4 -28 -6 -49 -4 -21 1 -43 -1 -50 -6 -18 -11 -67 -14 -255 -16 -88 -1 -165 -5 -169 -9 -10 -10 -78 -10 -88 -1 -4 5 -88 8 -186 9 -123 0 -183 4 -193 13 -8 6 -39 11 -68 11 -98 -2 -211 8 -222 19 -6 6 -37 11 -69 11 -31 0 -77 6 -100 14 -39 13 -61 17 -163 31 -39 5 -64 11 -98 24 -16 6 -61 16 -100 22 -80 11 -237 54 -396 105 -57 19 -112 34 -123 34 -11 0 -41 11 -67 25 -51 28 -155 65 -181 65 -9 0 -53 18 -98 40 -44 22 -87 40 -94 40 -8 0 -46 16 -85 35 -39 19 -74 35 -77 35 -14 0 -336 166 -471 243 -309 176 -785 529 -991 734 -40 40 -100 95 -133 123 -110 91 -445 479 -566 654 -27 40 -75 106 -105 147 -31 41 -69 96 -85 122 -17 26 -48 74 -70 105 -23 31 -47 71 -54 89 -7 17 -23 41 -37 53 -13 13 -29 39 -35 59 -7 20 -29 62 -49 93 -32 47 -74 136 -174 363 -28 63 -50 112 -71 155 -13 25 -28 63 -35 85 -7 22 -28 72 -46 110 -18 39 -41 102 -53 140 -11 39 -31 103 -45 144 -14 40 -26 86 -26 100 0 15 -4 31 -9 37 -14 14 -78 268 -107 429 -77 417 -95 615 -94 1036 0 277 7 388 36 594 21 148 61 386 78 460 8 33 21 92 30 132 9 40 27 103 40 140 24 65 84 260 91 295 2 9 11 30 19 47 9 17 15 32 14 33 -3 3 43 117 73 184 11 22 19 44 19 48 0 28 232 480 308 601 132 209 165 259 253 374 209 272 377 455 574 626 72 62 157 138 190 169 87 81 217 182 245 191 14 4 49 30 78 56 30 27 59 49 67 49 7 0 19 7 26 16 12 15 61 51 108 79 9 5 34 21 56 35 22 15 47 30 55 33 8 4 29 15 45 25 31 19 100 58 170 97 147 81 473 238 530 255 22 7 62 24 88 37 27 13 51 22 54 19 3 -3 22 3 42 14 57 29 222 87 421 150 74 23 144 46 155 50 32 14 126 38 175 45 25 4 77 16 115 28 39 12 72 22 75 22 3 1 23 6 45 12 22 7 67 17 100 23 90 17 155 30 200 41 41 9 290 44 430 60 258 28 688 49 875 42 58 -2 193 -11 300 -19z"/>
 <path d="M7472 4104 c-12 -8 -22 -12 -22 -8 0 3 -7 1 -15 -6 -8 -7 -15 -9 -15 -5 0 13 -134 -66 -197 -117 -63 -50 -111 -103 -176 -195 -41 -59 -33 -83 9 -26 88 120 115 151 174 198 54 43 198 133 215 135 3 0 6 0 8 1 1 0 10 2 21 4 24 5 41 21 29 28 -6 4 -19 -1 -31 -9z"/>
 <path d="M8206 4041 c-8 -13 6 -22 119 -79 55 -28 128 -67 162 -87 70 -40 97 -31 31 11 -86 55 -307 164 -312 155z"/>
 <path d="M8686 3771 c-4 -5 7 -19 23 -30 16 -12 32 -17 35 -12 4 5 -7 19 -23 30 -16 12 -32 17 -35 12z"/>
 <path d="M8756 3721 c-4 -5 7 -19 23 -30 16 -12 32 -17 35 -12 4 5 -7 19 -23 30 -16 12 -32 17 -35 12z"/>
 <path d="M8870 3548 c-36 -28 -129 -93 -208 -145 -78 -52 -140 -99 -136 -104 3 -6 21 0 42 13 140 84 385 265 377 278 -8 12 1 17 -75 -42z"/>
 <path d="M7147 3344 c-3 -4 -2 -16 4 -26 8 -15 14 -17 22 -9 8 8 7 15 -4 26 -8 9 -18 13 -22 9z"/>
 <path d="M8095 3099 c-38 -15 -104 -36 -145 -45 -87 -19 -95 -23 -82 -36 22 -22 320 70 315 97 -3 16 -15 14 -88 -16z"/>
 <path d="M7475 3081 c-10 -17 108 -58 182 -63 74 -5 47 15 -49 37 -51 12 -100 25 -109 29 -10 4 -20 3 -24 -3z"/>
 <path d="M5315 2851 c-6 -11 13 -26 22 -17 3 3 12 1 19 -4 6 -6 16 -10 20 -8 5 1 31 -8 58 -20 33 -15 53 -19 60 -12 11 11 -78 55 -93 45 -5 -3 -13 0 -16 6 -4 5 -13 8 -21 5 -7 -3 -16 -1 -19 4 -8 13 -22 13 -30 1z"/>
 <path d="M4790 2838 c-108 -47 -159 -73 -201 -104 -61 -44 -54 -66 7 -24 39 27 133 74 217 109 15 6 25 16 22 21 -7 12 -13 12 -45 -2z"/>
 <path d="M4401 2572 c-13 -25 2 -38 19 -16 9 10 10 18 3 25 -8 8 -14 5 -22 -9z"/>
 <path d="M5635 2438 c-9 -24 -1 -113 10 -111 14 4 19 103 6 116 -7 7 -12 5 -16 -5z"/>
 <path d="M5624 2256 c-4 -10 -2 -22 4 -28 8 -8 13 -7 18 6 4 10 2 22 -4 28 -8 8 -13 7 -18 -6z"/>
 <path d="M5621 2196 c-7 -8 -13 -25 -15 -38 -1 -13 -6 -30 -10 -37 -5 -7 -4 -17 2 -23 7 -7 14 -3 21 11 7 12 10 21 7 21 -3 0 2 16 9 34 15 36 6 56 -14 32z"/>
 <path d="M4191 2171 c-29 -53 -113 -369 -100 -376 13 -8 24 21 57 145 17 63 40 142 51 175 20 59 14 98 -8 56z"/>
 <path d="M5440 1834 c-9 -10 -10 -18 -3 -25 8 -8 14 -5 22 9 13 25 -2 38 -19 16z"/>
 <path d="M5014 1536 c-29 -12 -59 -28 -68 -35 -9 -7 -16 -10 -16 -6 0 4 -7 1 -17 -6 -9 -8 -18 -13 -20 -11 -1 1 -5 1 -8 1 -3 -1 -9 -2 -15 -3 -5 0 -10 -4 -10 -8 0 -5 0 -11 0 -14 0 -4 7 -1 15 6 8 7 15 9 15 5 0 -4 7 -2 15 5 8 7 15 9 15 5 0 -4 7 -2 15 5 8 7 15 10 15 7 0 -10 127 47 129 58 4 16 -11 14 -65 -9z"/>
 <path d="M4586 1401 c-4 -6 -13 -8 -20 -5 -17 6 -31 -12 -16 -21 5 -3 16 -3 23 2 6 4 17 8 22 8 14 0 19 19 7 23 -6 2 -13 -1 -16 -7z"/>
 <path d="M4151 1317 c-6 -8 -8 -17 -5 -20 10 -9 45 13 39 24 -9 13 -21 11 -34 -4z"/>
 </g>
<g id="layerbg4" fill="#ae8633" stroke="none">
 <path d="M3592 10558 c-9 -9 -12 -137 -12 -513 0 -498 0 -502 21 -521 21 -19 79 -19 2684 -19 2605 0 2663 0 2684 19 21 19 21 23 21 521 0 376 -3 504 -12 513 -17 17 -5369 17 -5386 0z"/>
 </g>
<g id="layerbg5" fill="#ece6b3" stroke="none">
 <path d="M6199 11309 c-211 -8 -391 -20 -554 -38 -140 -16 -389 -51 -430 -60 -45 -11 -110 -24 -200 -41 -33 -6 -78 -16 -100 -23 -22 -6 -42 -11 -45 -12 -3 0 -36 -10 -75 -22 -38 -12 -90 -24 -115 -28 -49 -7 -143 -31 -175 -45 -11 -4 -81 -27 -155 -50 -199 -63 -364 -121 -421 -150 -20 -11 -39 -17 -42 -14 -3 3 -27 -6 -54 -19 -26 -13 -66 -30 -88 -37 -57 -17 -383 -174 -530 -255 -70 -39 -139 -78 -170 -97 -16 -10 -37 -21 -45 -25 -8 -3 -33 -18 -55 -33 -22 -14 -47 -30 -56 -35 -47 -28 -96 -64 -108 -79 -7 -9 -19 -16 -26 -16 -8 0 -37 -22 -67 -49 -29 -26 -64 -52 -78 -56 -29 -9 -160 -111 -245 -190 -33 -31 -118 -107 -190 -169 -197 -171 -406 -400 -602 -657 -81 -107 -115 -158 -245 -364 -76 -121 -308 -573 -308 -601 0 -4 -8 -26 -19 -48 -30 -67 -76 -181 -73 -184 1 -1 -5 -16 -14 -33 -8 -17 -17 -38 -19 -47 -7 -35 -67 -230 -91 -295 -13 -37 -31 -100 -40 -140 -9 -40 -22 -99 -30 -132 -17 -74 -57 -312 -78 -460 -29 -206 -36 -317 -36 -594 -1 -421 17 -619 94 -1036 29 -161 93 -415 107 -429 5 -6 9 -22 9 -37 0 -14 12 -60 26 -100 14 -41 34 -105 45 -144 12 -38 35 -101 53 -140 18 -38 39 -88 46 -110 7 -22 22 -60 35 -85 12 -25 29 -62 38 -82 9 -21 24 -53 32 -70 8 -18 42 -95 76 -171 33 -76 78 -164 99 -195 20 -31 42 -73 49 -93 6 -20 22 -46 35 -59 14 -12 30 -36 37 -53 7 -18 31 -58 54 -89 22 -31 53 -79 70 -105 16 -26 54 -81 85 -122 30 -41 78 -107 105 -146 73 -106 188 -254 233 -300 21 -22 89 -96 149 -165 61 -69 155 -166 209 -215 55 -49 124 -115 154 -145 178 -177 675 -542 965 -707 135 -77 457 -243 471 -243 3 0 38 -16 77 -35 39 -19 77 -35 85 -35 7 0 50 -18 94 -40 45 -22 89 -40 98 -40 26 0 130 -37 181 -65 26 -14 56 -25 67 -25 11 0 66 -15 123 -34 159 -51 316 -94 396 -105 39 -6 84 -16 100 -22 34 -13 59 -19 98 -24 102 -14 124 -18 163 -31 23 -8 69 -14 100 -14 32 0 63 -5 69 -11 11 -11 124 -21 222 -19 29 0 60 -5 68 -11 10 -9 70 -13 193 -13 98 -1 182 -4 186 -9 10 -9 78 -9 88 1 4 4 81 8 169 9 188 2 237 5 255 16 7 5 29 7 50 6 21 -2 43 0 49 4 7 4 36 7 65 6 29 -1 85 6 123 14 39 9 96 16 127 17 31 0 60 4 63 10 3 5 24 10 45 10 22 0 49 4 62 10 13 5 59 16 103 24 44 8 127 26 185 40 58 15 119 29 135 32 17 3 35 9 40 14 6 4 62 22 125 40 63 18 147 44 185 57 39 14 95 31 125 39 30 8 82 28 115 44 84 40 153 70 160 70 8 0 137 58 155 71 8 5 31 16 50 25 19 8 67 31 106 50 39 19 76 34 82 34 6 0 48 25 93 56 45 31 103 66 128 77 25 11 67 35 92 53 26 19 50 34 53 34 11 0 207 130 271 180 33 25 78 57 100 71 22 13 71 50 108 82 37 32 90 73 117 91 139 91 613 567 723 724 22 31 63 82 91 112 29 30 67 78 86 105 18 28 51 71 72 96 21 26 38 50 38 53 0 6 64 105 138 211 15 22 38 60 51 85 13 25 34 59 46 76 13 16 31 46 39 65 9 19 29 57 44 84 34 61 62 114 73 137 10 21 29 57 40 78 25 46 99 203 99 209 0 6 70 183 89 226 6 11 15 38 22 60 6 22 18 49 25 60 8 11 14 26 14 35 0 8 17 69 38 135 67 209 81 258 102 355 11 52 24 104 29 115 5 11 16 70 26 130 9 61 23 130 30 155 13 45 46 323 46 390 0 19 3 42 6 50 4 8 9 65 10 125 2 61 6 181 9 268 3 109 1 163 -6 172 -8 9 -9 41 -4 99 4 57 3 90 -4 99 -6 7 -14 56 -17 108 -13 190 -17 234 -25 244 -5 6 -9 34 -8 63 0 29 -5 58 -10 65 -12 15 -32 117 -32 167 0 20 -4 40 -9 46 -10 11 -40 134 -46 189 -2 22 -13 67 -25 100 -12 33 -29 89 -39 125 -10 36 -24 78 -30 95 -7 16 -23 72 -37 125 -14 52 -42 129 -63 170 -21 41 -46 102 -55 135 -10 33 -38 101 -64 150 -25 50 -51 101 -58 115 -7 14 -19 40 -28 58 -65 131 -115 224 -132 243 -8 8 -14 19 -14 23 0 5 -14 28 -30 53 -17 24 -30 46 -30 49 0 11 -102 167 -171 261 -202 279 -245 334 -387 492 -165 183 -362 375 -562 546 -157 134 -690 505 -727 505 -3 0 -14 6 -22 14 -22 19 -118 70 -423 222 -48 24 -96 44 -107 44 -11 0 -23 5 -26 10 -10 15 -75 46 -115 54 -19 3 -53 15 -75 25 -56 25 -166 61 -188 61 -9 0 -25 4 -35 10 -43 25 -402 143 -447 147 -27 2 -64 11 -82 19 -17 8 -47 14 -66 14 -19 0 -52 7 -72 16 -21 9 -59 16 -84 16 -25 0 -51 4 -57 9 -25 20 -619 82 -894 92 -58 2 -202 0 -321 -4z m2769 -1266 l-3 -508 -50 -3 c-27 -2 -55 -8 -62 -14 -10 -8 -13 -344 -13 -1709 l0 -1699 -1184 0 c-975 0 -1186 -2 -1195 -13 -11 -14 -20 -152 -46 -702 -43 -912 -43 -914 1 -1037 92 -256 274 -467 527 -610 l71 -41 25 30 c14 16 46 58 71 93 76 106 214 205 357 255 97 34 188 47 323 47 103 0 127 -4 235 -37 131 -39 395 -164 505 -237 36 -25 94 -61 129 -81 51 -31 233 -158 264 -186 10 -9 -198 -161 -359 -262 -156 -97 -395 -217 -524 -261 -92 -32 -100 -33 -255 -33 -141 0 -168 3 -231 23 -203 67 -384 226 -485 427 -38 76 -24 66 -214 156 -119 57 -275 169 -391 281 -62 60 -117 107 -123 104 -5 -4 -13 -21 -16 -39 -25 -111 -161 -406 -295 -637 -123 -212 -338 -527 -418 -613 l-26 -27 25 -93 c20 -78 24 -115 24 -242 0 -176 -7 -206 -81 -362 -66 -138 -173 -270 -278 -345 -151 -107 -396 -202 -686 -267 -272 -61 -373 -80 -519 -97 l-53 -7 5 39 c4 21 9 64 12 94 16 133 90 476 139 635 75 249 198 474 309 568 155 130 258 180 432 213 156 29 434 5 548 -47 24 -11 30 -10 53 12 60 56 260 383 391 639 91 176 139 287 178 410 15 47 36 111 47 144 10 32 22 86 25 120 4 52 -7 421 -22 691 -2 44 -7 136 -11 205 -4 69 -8 141 -9 160 -2 19 -8 143 -14 275 -21 463 -31 637 -37 646 -3 5 -499 9 -1175 9 l-1169 0 0 1699 c0 1361 -3 1701 -13 1709 -7 6 -33 12 -57 14 l-45 3 -3 508 -2 507 2685 0 2685 0 -2 -507z"/>
 </g>
<g id="layerbg6" fill="#579d42" stroke="none">
 <path d="M7665 4147 c-233 -22 -471 -163 -599 -357 -20 -30 -36 -58 -36 -62 0 -24 227 -110 415 -157 209 -52 527 -76 807 -61 231 12 274 16 457 46 145 24 154 24 172 8 18 -16 20 -16 39 1 11 10 20 21 20 25 0 12 -267 198 -370 258 -462 267 -636 325 -905 299z"/>
 <path d="M8770 3529 c-128 -33 -402 -87 -475 -94 -38 -3 -108 -11 -155 -17 -112 -14 -462 -13 -572 1 -47 6 -106 14 -130 17 -72 9 -249 51 -316 74 -91 31 -101 24 -62 -48 39 -74 89 -139 165 -214 102 -102 165 -144 280 -187 55 -21 209 -49 275 -50 74 -2 205 26 306 65 38 14 78 28 89 29 39 6 338 163 360 189 6 6 64 47 130 90 142 93 207 144 200 157 -7 11 -2 11 -95 -12z"/>
 <path d="M4917 2865 c-110 -22 -232 -74 -324 -136 -23 -16 -46 -29 -52 -29 -5 0 -18 -11 -29 -25 -11 -14 -24 -25 -29 -25 -10 0 -73 -62 -73 -72 0 -3 -13 -20 -30 -38 -16 -18 -30 -38 -30 -45 0 -7 -7 -18 -16 -26 -28 -23 -131 -242 -139 -294 -2 -11 -12 -49 -23 -85 -56 -175 -103 -363 -142 -565 -20 -101 -29 -220 -18 -232 12 -15 64 -17 73 -3 3 6 17 7 30 4 13 -3 30 -2 37 2 7 5 37 10 67 11 31 2 100 14 156 27 55 14 156 36 225 51 126 27 280 72 355 104 22 10 60 25 85 35 126 50 238 115 303 178 86 82 178 203 221 289 25 50 46 99 46 109 0 11 5 22 10 25 6 4 8 11 4 16 -3 5 2 23 10 41 9 17 14 40 10 50 -3 10 -2 23 3 30 10 17 11 238 0 245 -4 2 -5 12 -3 21 9 29 -27 146 -46 150 -11 2 -38 -23 -78 -73 -182 -230 -556 -611 -790 -806 -254 -211 -561 -431 -579 -414 -3 4 2 11 11 16 9 5 95 72 190 148 177 141 362 310 503 460 109 115 101 106 186 207 163 190 220 261 372 464 l79 104 -22 18 c-76 62 -383 96 -553 63z"/>
 </g>
<g id="layer101" fill="#6b5e3c" stroke="none">
 <path d="M6265 9520 l-2560 -5 0 -1705 0 -1705 1175 -7 c1435 -9 1331 -9 2785 0 l1190 7 0 1710 c0 1513 -2 1710 -15 1710 -8 0 -1167 -2 -2575 -5z"/>
 <path d="M7020 3725 c-10 -12 -3 -18 42 -40 291 -143 755 -220 1181 -195 155 9 353 30 432 46 20 4 27 3 20 -4 -28 -27 -457 -95 -706 -112 -280 -18 -665 32 -897 117 -32 12 -46 13 -54 5 -17 -17 -4 -26 72 -52 364 -123 933 -137 1430 -34 91 19 201 41 245 50 44 9 87 20 95 24 21 10 24 44 5 60 -13 11 -43 9 -183 -13 -531 -83 -1006 -65 -1387 53 -81 25 -188 66 -235 90 -47 24 -45 24 -60 5z"/>
 <path d="M5492 2807 c-11 -7 -56 -59 -99 -117 -143 -192 -261 -339 -367 -459 -27 -31 -63 -72 -80 -91 -160 -183 -386 -397 -596 -565 -91 -72 -178 -140 -193 -150 -31 -20 -34 -57 -6 -63 37 -7 319 192 589 417 236 197 604 571 803 818 56 70 63 84 51 94 -17 14 -11 20 -104 -91 -143 -171 -305 -349 -415 -455 -107 -104 -230 -218 -290 -270 -32 -27 -79 -68 -104 -90 -97 -83 -92 -74 19 36 149 149 254 261 343 368 40 47 77 91 83 96 12 11 137 163 169 206 11 14 61 80 111 145 111 146 127 171 116 177 -4 3 -18 0 -30 -6z"/>
 </g>
<g id="layer102" fill="#926653" stroke="none">
 <path d="M3707 6114 c-4 -4 -4 -11 -1 -15 3 -5 531 -9 1173 -9 l1168 0 7 -72 c3 -40 10 -201 16 -358 9 -260 13 -338 25 -500 6 -66 20 -361 36 -710 12 -281 9 -349 -19 -436 -11 -33 -32 -97 -47 -144 -75 -236 -274 -621 -474 -918 -42 -62 -85 -128 -96 -145 -10 -18 -60 -86 -110 -151 -49 -65 -99 -131 -110 -145 -18 -25 -141 -173 -271 -327 -150 -178 -480 -500 -615 -600 -15 -10 -75 -56 -133 -102 -101 -79 -127 -113 -69 -91 61 23 397 271 546 403 51 45 105 91 121 104 107 82 407 391 600 617 66 77 126 145 134 152 8 7 20 21 26 31 6 10 53 74 104 142 172 227 342 500 470 755 61 123 141 316 156 378 7 29 7 28 115 -76 112 -108 270 -221 389 -277 211 -101 230 -109 342 -139 251 -68 557 -98 808 -81 197 13 441 46 602 82 74 16 164 36 199 44 63 13 86 28 74 47 -3 5 -28 6 -57 3 -28 -4 -82 -11 -121 -16 -38 -5 -122 -16 -185 -25 -450 -61 -922 -21 -1288 109 -115 41 -291 131 -377 192 -193 137 -331 317 -408 530 -44 124 -44 117 -2 1024 8 173 19 394 25 490 5 96 10 184 10 195 0 20 7 20 1182 20 779 0 1185 3 1188 10 6 12 -2347 19 -2364 7 -6 -4 -119 -5 -251 -1 -308 9 -2510 11 -2518 3z"/>
 </g>
<g id="layer103" fill="#889e43" stroke="none">
 <path d="M5485 11959 c-150 -8 -339 -25 -445 -41 -36 -5 -103 -14 -150 -19 -91 -11 -264 -46 -540 -108 -263 -60 -713 -209 -925 -306 -44 -20 -102 -47 -130 -60 -27 -12 -63 -26 -80 -29 -16 -4 -57 -25 -90 -46 -33 -21 -114 -65 -180 -98 -218 -110 -520 -301 -735 -467 -246 -189 -589 -507 -732 -678 -29 -35 -91 -107 -137 -161 -130 -150 -314 -401 -376 -511 -16 -27 -39 -64 -51 -82 -75 -101 -296 -530 -403 -779 -227 -531 -369 -1129 -421 -1771 -21 -257 -10 -898 19 -1123 26 -195 35 -252 53 -338 11 -52 25 -131 32 -175 19 -117 55 -277 68 -301 7 -12 28 -88 49 -171 126 -510 424 -1168 754 -1665 361 -546 798 -1024 1320 -1445 159 -129 439 -324 647 -452 157 -96 509 -284 588 -314 30 -11 102 -42 160 -68 268 -123 740 -277 1044 -341 50 -11 141 -31 202 -45 363 -82 827 -121 1338 -112 410 8 722 38 1016 97 261 52 269 54 385 83 204 51 544 161 715 232 58 24 137 55 175 70 39 15 90 38 115 51 25 12 101 50 170 83 749 360 1435 903 1982 1569 135 163 459 627 487 697 2 6 16 28 30 50 49 76 192 360 316 630 100 218 206 538 296 895 97 381 148 768 164 1235 6 199 -9 622 -30 780 -7 61 -16 137 -20 170 -23 217 -124 664 -216 957 -201 645 -560 1309 -1003 1858 -204 253 -590 646 -766 780 -25 19 -56 46 -70 60 -14 15 -96 74 -182 133 -87 59 -160 112 -163 117 -12 19 -153 119 -206 146 -30 15 -94 55 -144 89 -49 34 -115 75 -145 90 -30 15 -66 36 -80 45 -31 22 -315 164 -430 215 -47 21 -103 46 -125 55 -61 27 -362 145 -430 168 -396 135 -963 267 -1325 306 -80 9 -183 21 -230 26 -219 27 -846 37 -1165 19z m1320 -685 c245 -19 586 -61 599 -74 6 -6 32 -10 58 -10 27 0 65 -7 85 -15 19 -8 51 -15 70 -15 19 0 49 -6 66 -14 18 -8 55 -17 82 -19 45 -4 404 -122 447 -147 10 -6 26 -10 35 -10 22 0 132 -36 188 -61 22 -10 56 -22 75 -25 40 -8 105 -39 115 -54 3 -5 15 -10 26 -10 11 0 59 -20 107 -44 305 -152 401 -203 423 -222 8 -8 19 -14 22 -14 16 0 175 -102 382 -246 331 -229 614 -480 897 -795 142 -158 185 -213 387 -492 69 -94 171 -250 171 -261 0 -3 14 -25 30 -49 17 -25 30 -48 30 -53 0 -4 6 -15 14 -23 17 -19 67 -112 132 -243 9 -18 21 -44 28 -58 7 -14 33 -65 58 -115 26 -49 54 -117 64 -150 9 -33 34 -94 55 -135 21 -41 49 -118 63 -170 14 -53 30 -109 37 -125 6 -17 20 -59 29 -95 10 -36 26 -85 35 -110 9 -25 21 -70 26 -100 16 -92 41 -194 50 -204 5 -6 9 -26 9 -46 0 -49 19 -153 31 -164 5 -6 9 -35 9 -66 0 -31 4 -60 9 -65 5 -6 11 -39 14 -75 15 -217 20 -266 29 -277 6 -8 7 -44 3 -98 -5 -60 -4 -89 4 -99 9 -10 10 -57 7 -163 -3 -81 -7 -197 -9 -258 -1 -60 -6 -116 -10 -122 -4 -7 -8 -29 -8 -50 1 -70 -31 -348 -44 -393 -7 -25 -21 -94 -30 -155 -10 -60 -21 -119 -26 -130 -5 -11 -18 -63 -29 -115 -21 -97 -35 -146 -102 -355 -21 -66 -38 -127 -38 -135 0 -9 -6 -24 -14 -35 -7 -11 -19 -38 -25 -60 -7 -22 -16 -49 -22 -60 -19 -43 -89 -220 -89 -226 0 -6 -74 -163 -99 -209 -11 -21 -30 -57 -40 -77 -11 -24 -39 -77 -73 -138 -15 -27 -35 -65 -44 -84 -8 -19 -26 -49 -39 -65 -12 -17 -33 -51 -46 -76 -13 -25 -36 -63 -51 -85 -74 -106 -138 -205 -138 -211 0 -3 -17 -27 -38 -53 -21 -25 -54 -68 -72 -96 -19 -27 -57 -75 -86 -105 -28 -30 -69 -81 -91 -112 -109 -156 -575 -623 -713 -714 -27 -18 -80 -59 -117 -91 -37 -32 -86 -69 -108 -82 -22 -14 -67 -46 -100 -71 -64 -50 -260 -180 -271 -180 -3 0 -27 -15 -53 -34 -25 -18 -67 -42 -92 -53 -25 -11 -83 -46 -128 -77 -45 -31 -87 -56 -93 -56 -6 0 -43 -15 -82 -34 -39 -19 -87 -42 -106 -50 -19 -9 -42 -20 -50 -25 -18 -13 -147 -71 -155 -71 -7 0 -76 -30 -160 -70 -33 -16 -85 -36 -115 -44 -30 -8 -86 -25 -125 -39 -38 -13 -122 -39 -185 -57 -63 -18 -119 -36 -125 -40 -5 -4 -23 -10 -40 -13 -16 -3 -77 -18 -135 -32 -58 -15 -141 -33 -185 -41 -44 -8 -90 -19 -103 -24 -13 -6 -40 -10 -62 -10 -21 0 -42 -4 -45 -10 -3 -5 -32 -10 -63 -10 -31 -1 -88 -7 -127 -15 -38 -8 -117 -17 -173 -20 -57 -3 -108 -8 -114 -11 -18 -11 -113 -17 -265 -15 -95 1 -154 -2 -158 -9 -8 -12 -62 -13 -69 -1 -3 5 -86 8 -185 8 -130 -1 -184 3 -194 12 -9 7 -39 12 -69 12 -103 -1 -211 8 -222 19 -5 5 -36 10 -68 10 -31 0 -77 6 -100 14 -24 8 -77 19 -118 26 -41 6 -106 19 -145 29 -38 11 -92 22 -120 26 -58 7 -224 52 -374 101 -57 19 -112 34 -123 34 -11 0 -41 11 -67 25 -51 28 -155 65 -181 65 -9 0 -53 18 -98 40 -44 22 -87 40 -94 40 -8 0 -46 16 -85 35 -39 19 -74 35 -77 35 -14 0 -336 166 -471 243 -293 167 -797 537 -970 713 -27 27 -94 90 -149 140 -54 49 -159 156 -232 239 -74 82 -139 155 -144 160 -20 20 -156 199 -205 270 -27 39 -75 105 -105 146 -31 41 -69 96 -85 122 -17 26 -48 74 -70 105 -23 31 -47 71 -54 89 -7 17 -23 41 -37 53 -13 13 -29 39 -35 59 -7 20 -29 62 -49 93 -21 31 -66 119 -99 195 -34 76 -69 154 -78 173 -9 19 -23 51 -31 70 -8 19 -25 55 -37 80 -13 25 -28 63 -35 85 -7 22 -28 72 -46 110 -18 39 -41 102 -53 140 -11 39 -31 103 -45 144 -14 40 -26 86 -26 100 0 15 -4 31 -9 37 -14 14 -78 268 -107 429 -72 392 -84 511 -91 910 -6 355 -1 466 33 700 21 149 61 387 78 460 8 33 20 90 29 126 8 36 33 122 55 190 22 68 50 156 62 194 11 39 27 86 34 105 8 19 26 67 42 105 15 39 35 88 45 111 11 22 19 44 19 48 0 28 232 480 308 601 130 206 164 257 245 364 196 258 398 478 592 646 72 63 157 139 190 169 85 80 216 182 245 191 14 4 49 30 78 56 30 27 59 49 67 49 7 0 19 7 26 16 12 15 61 51 108 79 9 5 34 21 56 35 22 15 47 30 55 33 8 4 29 15 45 25 31 19 100 58 170 97 53 29 278 142 385 194 76 36 141 62 250 101 19 7 60 23 90 36 77 32 188 74 235 89 22 7 101 31 175 55 74 23 144 46 155 50 31 13 125 38 175 45 25 4 81 18 125 31 128 37 147 42 210 54 89 16 155 30 200 41 41 9 290 44 430 60 166 18 344 30 554 37 248 9 321 7 596 -14z"/>
 <path d="M7472 4104 c-12 -8 -22 -12 -22 -8 0 3 -7 1 -15 -6 -8 -7 -15 -9 -15 -5 0 7 -145 -70 -167 -89 -7 -6 -25 -20 -39 -31 -46 -34 -87 -78 -129 -139 -22 -32 -48 -67 -57 -78 -19 -22 -16 -40 5 -32 7 2 25 27 41 54 29 47 117 142 172 185 14 11 31 25 38 31 12 12 153 93 161 94 3 0 6 0 8 1 1 0 10 2 21 4 24 5 41 21 29 28 -6 4 -19 -1 -31 -9z"/>
 <path d="M8206 4041 c-9 -13 23 -36 119 -85 50 -25 119 -62 154 -81 71 -39 102 -36 53 4 -30 26 -240 139 -294 160 -15 6 -30 7 -32 2z"/>
 <path d="M8686 3771 c-4 -5 7 -19 23 -30 16 -12 32 -17 35 -12 4 5 -7 19 -23 30 -16 12 -32 17 -35 12z"/>
 <path d="M8756 3721 c-4 -5 7 -19 23 -30 16 -12 32 -17 35 -12 4 5 -7 19 -23 30 -16 12 -32 17 -35 12z"/>
 <path d="M8912 3582 c-11 -9 -30 -24 -42 -32 -21 -14 -50 -37 -77 -60 -7 -5 -34 -23 -60 -38 -87 -52 -189 -120 -202 -135 -52 -63 122 28 224 117 17 14 33 26 36 26 3 0 15 8 27 18 11 9 30 24 42 32 12 8 31 23 42 33 12 9 24 17 28 17 12 0 20 29 11 34 -5 3 -18 -2 -29 -12z"/>
 <path d="M7147 3344 c-3 -4 -2 -16 4 -26 8 -15 14 -17 22 -9 8 8 7 15 -4 26 -8 9 -18 13 -22 9z"/>
 <path d="M8095 3103 c-33 -14 -97 -35 -143 -47 -46 -11 -83 -25 -82 -31 2 -18 90 -6 184 26 99 33 140 55 131 69 -9 14 -22 11 -90 -17z"/>
 <path d="M7475 3081 c-10 -17 105 -58 175 -63 77 -5 53 16 -43 38 -51 12 -99 24 -108 28 -10 4 -20 3 -24 -3z"/>
 <path d="M5315 2851 c-6 -11 13 -26 22 -17 3 3 12 1 19 -4 6 -6 16 -10 20 -8 5 1 30 -8 57 -22 34 -17 50 -21 58 -13 14 14 -25 41 -67 46 -16 2 -35 7 -42 11 -7 4 -16 5 -21 1 -5 -3 -12 -1 -16 5 -8 13 -22 13 -30 1z"/>
 <path d="M4795 2841 c-3 -5 -20 -13 -38 -16 -70 -16 -230 -118 -212 -137 3 -3 53 21 112 53 58 33 117 62 132 65 32 8 53 23 45 35 -7 12 -31 12 -39 0z"/>
 <path d="M4401 2572 c-13 -25 2 -38 19 -16 9 10 10 18 3 25 -8 8 -14 5 -22 -9z"/>
 <path d="M5635 2438 c-9 -24 -1 -113 10 -111 14 4 19 103 6 116 -7 7 -12 5 -16 -5z"/>
 <path d="M5624 2256 c-4 -10 -2 -22 4 -28 8 -8 13 -7 18 6 4 10 2 22 -4 28 -8 8 -13 7 -18 -6z"/>
 <path d="M5617 2188 c-19 -30 -29 -86 -17 -93 11 -7 24 17 38 67 12 44 -1 59 -21 26z"/>
 <path d="M4187 2169 c-8 -13 -30 -82 -50 -154 -53 -200 -56 -215 -41 -215 12 0 28 40 59 155 9 33 27 96 41 139 16 51 22 82 16 88 -7 7 -15 2 -25 -13z"/>
 <path d="M5440 1834 c-9 -10 -10 -18 -3 -25 8 -8 14 -5 22 9 13 25 -2 38 -19 16z"/>
 <path d="M5014 1536 c-29 -12 -59 -28 -68 -35 -9 -7 -16 -10 -16 -6 0 4 -7 2 -15 -5 -8 -7 -15 -9 -15 -5 0 4 -6 2 -13 -4 -8 -6 -17 -8 -20 -4 -4 3 -7 1 -7 -5 0 -13 27 -12 48 1 6 5 12 5 12 1 0 -3 7 -1 15 6 8 7 15 10 15 7 0 -10 127 47 129 58 4 16 -11 14 -65 -9z"/>
 <path d="M4586 1401 c-4 -6 -13 -8 -20 -5 -17 6 -31 -12 -16 -21 5 -3 16 -3 23 2 6 4 17 8 22 8 14 0 19 19 7 23 -6 2 -13 -1 -16 -7z"/>
 <path d="M4151 1317 c-6 -8 -8 -17 -5 -20 10 -9 45 13 39 24 -9 13 -21 11 -34 -4z"/>
 </g>
<g id="layer104" fill="#ae8633" stroke="none">
 <path d="M3587 10563 c-4 -3 -7 -237 -7 -518 0 -465 2 -514 17 -526 24 -21 5352 -21 5377 0 15 12 16 59 14 530 l-3 516 -2696 3 c-1483 1 -2699 -1 -2702 -5z"/>
 </g>
<g id="layer105" fill="#ece6b3" stroke="none">
 <path d="M6189 11309 c-216 -8 -397 -21 -559 -39 -121 -13 -417 -57 -470 -70 -25 -6 -70 -15 -100 -20 -134 -24 -160 -30 -250 -59 -52 -16 -115 -32 -140 -36 -49 -7 -143 -31 -175 -45 -11 -4 -81 -27 -155 -50 -147 -46 -229 -74 -330 -113 -36 -14 -81 -31 -100 -38 -19 -6 -64 -24 -100 -40 -36 -15 -76 -30 -90 -34 -40 -11 -383 -177 -515 -250 -70 -39 -139 -78 -170 -97 -16 -10 -37 -21 -45 -25 -8 -3 -33 -18 -55 -33 -22 -14 -47 -30 -56 -35 -47 -28 -96 -64 -108 -79 -7 -9 -19 -16 -26 -16 -8 0 -37 -22 -67 -49 -29 -26 -64 -52 -78 -56 -29 -9 -160 -111 -245 -191 -33 -30 -118 -106 -190 -169 -194 -168 -396 -388 -592 -646 -81 -107 -115 -158 -245 -364 -76 -121 -308 -573 -308 -601 0 -4 -8 -26 -19 -48 -20 -45 -53 -125 -83 -201 -10 -27 -35 -104 -54 -170 -19 -66 -46 -151 -59 -188 -14 -37 -32 -100 -41 -140 -9 -40 -22 -99 -30 -132 -17 -74 -57 -312 -78 -460 -29 -207 -36 -318 -37 -604 0 -428 18 -626 95 -1046 29 -161 93 -415 107 -429 5 -6 9 -22 9 -37 0 -14 12 -60 26 -100 14 -41 34 -105 45 -144 12 -38 35 -101 53 -140 18 -38 39 -88 46 -110 7 -22 22 -60 35 -85 12 -25 29 -62 38 -82 9 -21 24 -53 32 -70 8 -18 42 -95 76 -171 33 -76 78 -164 99 -195 20 -31 42 -73 49 -93 6 -20 22 -46 35 -59 14 -12 30 -36 37 -53 7 -18 31 -58 54 -89 22 -31 53 -79 70 -105 16 -26 54 -81 85 -122 30 -41 78 -107 105 -147 117 -170 450 -556 561 -651 31 -26 94 -84 139 -128 200 -196 493 -420 865 -660 131 -85 579 -325 606 -325 3 0 38 -16 77 -35 39 -19 77 -35 85 -35 7 0 50 -18 94 -40 45 -22 89 -40 98 -40 26 0 130 -37 181 -65 26 -14 56 -25 67 -25 11 0 66 -15 123 -34 159 -52 316 -94 397 -106 41 -6 90 -17 110 -26 21 -8 75 -20 122 -25 46 -5 104 -16 128 -24 23 -8 69 -15 100 -15 32 0 63 -5 69 -11 10 -10 102 -20 223 -23 30 0 61 -5 69 -10 8 -5 94 -10 193 -11 98 -1 181 -5 185 -8 9 -10 98 -9 107 1 4 4 80 8 169 9 235 2 239 2 254 14 8 7 29 9 52 5 21 -3 41 -2 45 2 4 4 33 8 64 8 32 1 89 9 127 17 39 9 95 16 125 17 31 0 60 4 65 9 6 5 30 11 55 14 48 6 181 32 240 47 19 6 87 22 150 36 63 15 120 30 125 34 6 4 62 22 125 40 63 18 147 44 185 57 39 14 95 31 125 39 30 8 82 28 115 44 84 40 153 70 160 70 8 0 137 58 155 71 8 5 31 16 50 25 19 8 67 31 106 50 39 19 76 34 82 34 6 0 48 25 93 56 45 31 103 66 128 77 25 11 67 35 92 53 26 19 50 34 53 34 11 0 207 130 271 180 33 25 78 57 100 71 22 13 71 50 108 82 37 32 90 73 117 91 138 91 604 558 713 714 22 31 63 82 91 112 29 30 67 78 86 105 18 28 51 71 72 96 21 26 38 50 38 53 0 6 64 105 138 211 15 22 38 60 51 85 13 25 34 59 46 76 13 16 31 46 39 65 9 19 29 57 44 84 34 61 62 114 73 138 10 20 29 56 40 77 25 46 99 203 99 209 0 6 70 183 89 226 6 11 15 38 22 60 6 22 18 49 25 60 8 11 14 26 14 35 0 8 17 69 38 135 67 209 81 258 102 355 11 52 24 104 29 115 5 11 16 70 26 130 9 61 23 130 30 155 12 41 43 295 48 395 1 22 5 45 9 51 4 6 8 60 8 120 1 60 3 185 6 278 3 109 1 173 -5 179 -7 7 -8 43 -4 98 4 59 2 93 -5 102 -6 7 -14 56 -17 108 -8 148 -15 223 -22 239 -4 8 -8 39 -9 68 -1 29 -6 58 -12 65 -12 15 -32 117 -32 167 0 20 -4 40 -9 46 -11 11 -41 138 -43 179 0 17 -12 62 -25 100 -14 39 -33 99 -43 135 -10 36 -23 78 -29 95 -7 16 -23 72 -37 125 -14 52 -42 129 -63 170 -21 41 -46 102 -55 135 -10 33 -38 101 -64 150 -25 50 -51 101 -58 115 -7 14 -19 40 -28 58 -65 131 -115 224 -132 243 -8 8 -14 19 -14 23 0 5 -13 28 -30 53 -16 24 -30 46 -30 49 0 11 -102 167 -171 261 -202 279 -245 334 -387 492 -283 315 -566 566 -897 795 -207 144 -366 246 -382 246 -3 0 -14 6 -22 14 -22 19 -118 70 -423 222 -48 24 -96 44 -107 44 -11 0 -23 5 -26 10 -10 15 -75 46 -115 54 -19 3 -53 15 -75 25 -56 25 -166 61 -188 61 -9 0 -25 4 -35 10 -43 25 -402 143 -447 147 -27 2 -64 11 -82 19 -17 8 -47 14 -66 14 -19 0 -52 7 -73 16 -20 9 -58 17 -83 18 -25 1 -51 5 -57 9 -18 11 -377 54 -594 71 -281 22 -398 25 -641 15z m2779 -1258 c1 -345 -1 -498 -9 -507 -6 -7 -34 -14 -62 -16 l-52 -3 -5 -1705 -5 -1705 -1185 -3 c-651 -1 -1188 -6 -1192 -10 -8 -8 -19 -180 -43 -692 -43 -919 -43 -939 1 -1061 76 -211 205 -383 391 -521 68 -50 187 -118 207 -118 8 0 27 17 42 37 88 120 115 151 174 198 165 133 322 185 557 185 99 0 125 -4 230 -35 129 -39 394 -164 503 -237 36 -25 94 -61 129 -81 51 -31 233 -158 264 -186 10 -9 -198 -161 -359 -262 -156 -98 -396 -217 -524 -261 -91 -31 -102 -33 -245 -33 -163 0 -221 13 -345 75 -145 73 -307 243 -377 396 -20 45 -33 59 -71 78 -26 13 -59 26 -73 29 -35 9 -229 127 -314 192 -38 29 -108 92 -155 139 -46 47 -90 86 -98 86 -7 0 -16 -10 -21 -22 -5 -13 -28 -75 -51 -138 -75 -203 -231 -495 -406 -761 -87 -133 -255 -362 -273 -373 -17 -11 -13 -48 11 -133 19 -65 23 -102 23 -223 0 -170 -7 -202 -80 -355 -55 -114 -77 -147 -172 -253 -106 -119 -311 -231 -553 -305 -153 -46 -492 -123 -645 -146 -38 -6 -89 -13 -111 -16 -23 -4 -44 -3 -47 2 -12 21 42 339 98 568 87 358 217 628 364 753 156 133 260 185 436 218 125 23 305 15 435 -21 52 -14 105 -28 118 -32 31 -8 50 11 136 141 203 309 397 684 471 916 15 47 37 112 47 145 34 102 34 135 3 860 -3 66 -8 163 -12 215 -4 52 -6 99 -5 103 1 4 -2 47 -8 95 -5 48 -14 231 -20 407 -6 176 -14 345 -18 375 l-7 55 -1170 5 -1170 5 -5 1705 -5 1705 -45 3 c-24 2 -50 8 -57 14 -10 8 -13 117 -13 503 0 270 3 495 7 498 3 4 1210 6 2682 5 l2676 -3 3 -494z"/>
 </g>
<g id="layer106" fill="#579d42" stroke="none">
 <path d="M7655 4148 c-214 -22 -435 -144 -559 -309 -70 -92 -75 -107 -48 -129 37 -31 234 -101 387 -139 342 -84 919 -87 1341 -6 69 13 80 13 94 0 9 -8 24 -15 32 -15 20 0 41 25 36 44 -4 19 -236 183 -358 254 -216 125 -429 231 -516 257 -49 14 -102 30 -119 35 -48 14 -192 18 -290 8z"/>
 <path d="M8760 3529 c-152 -39 -368 -81 -490 -95 -471 -54 -788 -30 -1177 87 -62 19 -71 5 -40 -57 14 -27 40 -69 59 -93 18 -24 40 -53 48 -65 8 -12 52 -56 98 -98 109 -101 192 -142 357 -178 159 -35 270 -25 475 41 105 34 360 157 424 203 23 17 107 74 188 128 137 91 177 126 161 142 -8 8 -15 7 -103 -15z"/>
 <path d="M4907 2865 c-112 -23 -233 -74 -324 -136 -23 -16 -46 -29 -52 -29 -6 0 -18 -11 -27 -25 -9 -14 -22 -25 -28 -25 -15 0 -66 -52 -66 -68 0 -6 -8 -16 -19 -21 -10 -6 -26 -26 -35 -45 -9 -19 -21 -38 -27 -41 -12 -8 -81 -145 -110 -218 -12 -29 -29 -83 -40 -122 -10 -38 -34 -126 -54 -195 -56 -195 -103 -428 -120 -588 -5 -53 -3 -63 11 -69 21 -8 243 23 369 52 55 13 156 35 225 50 126 27 280 72 355 104 22 10 60 25 85 35 127 50 238 115 300 176 88 86 172 196 214 281 25 50 46 99 46 109 0 11 5 22 10 25 6 3 10 19 10 35 0 16 5 32 11 35 6 4 9 19 8 33 -2 15 -1 32 3 37 10 18 1 288 -12 340 -28 108 -48 111 -122 18 -295 -376 -828 -872 -1221 -1138 -147 -100 -147 -93 -2 20 410 321 732 660 1117 1173 43 57 78 110 78 118 0 63 -401 117 -583 79z"/>
 </g>

</svg>