<?xml version="1.0" standalone="no"?>
<!DOCTYPE svg PUBLIC "-//W3C//DTD SVG 20010904//EN"
 "http://www.w3.org/TR/2001/REC-SVG-20010904/DTD/svg10.dtd">
<svg version="1.0" xmlns="http://www.w3.org/2000/svg"
 width="2160.000000pt" height="2160.000000pt" viewBox="0 0 2160.000000 2160.000000"
 preserveAspectRatio="xMidYMid meet">
<metadata>
Created by potrace 1.11, written by Peter Selinger 2001-2013
</metadata>
<g transform="translate(0.000000,2160.000000) scale(0.100000,-0.100000)"
fill="#000000" stroke="none">
<path d="M10350 21139 c-384 -18 -817 -62 -1160 -120 -242 -40 -893 -187
-1157 -260 -425 -118 -1025 -328 -1353 -474 -58 -26 -170 -74 -250 -106 -203
-84 -632 -308 -990 -517 -272 -159 -856 -555 -1120 -761 -144 -112 -438 -359
-595 -500 -919 -827 -1709 -1816 -2269 -2841 -413 -756 -710 -1489 -910 -2245
-30 -115 -67 -243 -81 -284 -35 -100 -76 -285 -125 -561 -22 -127 -49 -273
-60 -325 -23 -110 -74 -456 -89 -600 -52 -492 -61 -1578 -16 -2050 97 -1022
317 -1958 663 -2820 172 -430 563 -1206 761 -1514 38 -58 105 -164 150 -236
175 -275 401 -573 730 -960 284 -334 597 -647 991 -991 526 -460 1087 -841
1745 -1187 111 -57 231 -123 267 -145 93 -57 143 -82 202 -99 28 -8 123 -48
211 -88 389 -177 766 -315 1270 -466 316 -95 793 -208 1195 -283 122 -23 524
-78 770 -106 423 -47 1049 -66 1680 -51 619 15 790 27 1345 97 759 95 1789
345 2451 594 810 306 1515 647 1984 960 63 42 153 98 200 125 116 65 301 193
378 260 34 30 129 100 210 156 259 180 356 250 422 308 36 31 101 86 145 121
251 203 741 689 1092 1085 514 581 1025 1348 1410 2119 398 795 638 1495 843
2451 94 439 149 850 182 1350 17 259 17 1139 0 1365 -61 815 -151 1349 -351
2075 -152 553 -302 973 -498 1393 -125 271 -386 791 -457 915 -31 53 -82 141
-113 194 -111 193 -498 752 -720 1041 -218 284 -499 598 -813 912 -695 696
-1439 1260 -2285 1734 -66 37 -293 154 -505 260 -848 423 -1701 712 -2670 901
-535 105 -919 148 -1540 175 -271 11 -900 11 -1170 -1z m764 -663 c52 -9 194
-17 394 -20 254 -5 319 -9 343 -21 19 -10 53 -15 97 -14 84 2 235 -15 417 -45
77 -13 180 -27 228 -30 49 -4 97 -11 108 -17 11 -5 82 -21 159 -34 238 -42
730 -157 850 -199 41 -15 129 -43 195 -62 370 -110 671 -212 815 -276 85 -39
193 -85 240 -103 47 -18 195 -87 330 -153 135 -65 277 -131 315 -147 39 -15
131 -67 205 -115 74 -48 171 -106 216 -128 44 -22 109 -60 145 -84 35 -24 91
-59 124 -77 80 -45 330 -212 485 -325 69 -50 150 -108 181 -129 31 -20 99 -73
152 -117 52 -43 139 -111 194 -151 333 -246 999 -908 1274 -1269 48 -64 120
-152 159 -195 40 -44 100 -118 133 -164 34 -46 94 -125 133 -175 38 -50 83
-113 99 -141 15 -27 79 -125 141 -217 62 -91 140 -215 175 -275 34 -59 73
-123 86 -141 47 -62 419 -781 486 -937 45 -105 199 -497 223 -569 13 -38 33
-84 44 -103 11 -18 27 -63 35 -100 8 -36 53 -188 100 -337 97 -312 200 -723
245 -976 17 -96 37 -204 45 -240 18 -81 61 -422 76 -599 6 -74 15 -146 21
-160 12 -32 32 -886 23 -956 -4 -27 -10 -131 -14 -230 -5 -99 -13 -198 -19
-220 -6 -22 -18 -144 -27 -270 -9 -127 -22 -259 -30 -295 -7 -36 -16 -96 -19
-135 -3 -38 -15 -93 -25 -121 -24 -62 -51 -210 -51 -279 0 -27 -7 -63 -16 -80
-19 -37 -60 -205 -74 -305 -6 -41 -35 -151 -64 -245 -30 -93 -77 -244 -104
-335 -28 -91 -67 -219 -87 -285 -21 -66 -65 -183 -99 -260 -35 -77 -78 -185
-96 -240 -39 -115 -394 -833 -465 -940 -26 -38 -51 -80 -56 -93 -5 -13 -26
-49 -48 -80 -21 -31 -50 -81 -65 -109 -90 -179 -606 -888 -850 -1168 -424
-487 -894 -930 -1366 -1291 -248 -190 -838 -591 -957 -651 -32 -16 -87 -49
-123 -72 -87 -57 -855 -441 -882 -441 -12 0 -42 -13 -67 -29 -61 -39 -122 -66
-218 -95 -43 -13 -127 -43 -188 -66 -60 -23 -148 -51 -195 -62 -47 -11 -101
-27 -120 -35 -162 -70 -634 -223 -782 -253 -53 -11 -124 -28 -157 -40 -33 -11
-78 -20 -100 -20 -22 0 -76 -11 -120 -25 -45 -14 -116 -30 -159 -35 -42 -5
-93 -14 -112 -19 -84 -24 -700 -95 -1085 -126 -489 -38 -863 -40 -1435 -5
-484 30 -1055 98 -1421 170 -57 11 -185 36 -284 55 -99 19 -254 56 -345 83
-91 27 -226 62 -300 77 -74 15 -180 42 -235 60 -55 18 -228 74 -385 125 -335
108 -800 280 -1100 407 -171 73 -771 374 -980 494 -293 166 -509 301 -567 353
-27 24 -64 51 -83 59 -19 8 -73 47 -120 87 -47 39 -103 81 -125 92 -106 55
-234 158 -605 488 -521 463 -791 748 -1165 1230 -132 170 -356 501 -487 720
-155 258 -469 868 -527 1025 -17 44 -66 167 -111 274 -44 107 -103 269 -131
360 -28 91 -82 264 -120 384 -113 352 -186 700 -273 1303 -59 401 -82 837 -71
1334 13 588 40 883 131 1410 71 413 187 905 224 955 4 6 11 35 15 65 11 85
160 538 230 700 34 80 68 163 75 185 7 22 42 103 78 180 35 77 110 244 167
370 117 262 187 405 247 502 22 38 58 104 78 148 20 44 54 100 74 124 21 25
49 67 63 95 88 173 618 915 874 1222 372 448 662 745 1139 1165 324 286 962
749 1377 1000 270 163 832 461 976 518 42 17 108 46 145 65 38 19 93 42 123
52 30 9 110 43 179 75 69 31 154 64 190 73 87 20 200 61 283 103 38 19 105 43
150 54 45 11 159 45 253 74 236 74 446 131 578 156 108 21 208 44 312 73 27 8
114 24 192 35 78 12 163 28 189 37 26 8 101 19 167 25 65 5 127 14 137 20 34
18 121 29 304 38 99 5 193 15 209 21 17 6 161 15 340 21 171 5 327 13 346 18
52 13 85 13 174 -3z"/>
<path d="M7057 19333 c-31 -30 34 -466 128 -858 56 -236 204 -755 242 -850 47
-117 155 -334 186 -371 13 -16 37 -53 53 -83 15 -29 43 -65 61 -78 18 -14 33
-31 33 -38 0 -21 90 -115 116 -121 12 -3 35 -21 49 -40 14 -19 44 -43 66 -54
21 -11 71 -41 110 -66 144 -93 372 -185 539 -218 119 -23 243 -28 417 -16 269
17 489 62 568 115 50 35 75 28 126 -38 107 -134 377 -573 549 -892 192 -354
314 -628 424 -953 81 -239 102 -324 111 -452 11 -167 -40 -1431 -80 -1965 -19
-250 -23 -327 -40 -800 -17 -449 -32 -676 -45 -689 -6 -6 -833 -13 -2057 -19
-1127 -5 -2050 -10 -2052 -12 -3 -4 -19 -4244 -20 -5451 l-1 -541 -65 -6 c-36
-4 -78 -12 -93 -19 -25 -12 -28 -20 -35 -88 -10 -100 -4 -1666 6 -1677 11 -11
9403 -11 9414 0 10 11 16 1544 6 1662 -7 84 -10 91 -34 102 -15 7 -60 16 -101
19 l-75 7 -6 2040 c-4 1122 -7 2472 -7 2999 l0 958 -1047 1 c-1198 0 -3131 13
-3138 21 -19 19 -93 1411 -126 2373 -18 527 -3 621 142 915 169 339 408 600
740 805 140 87 213 119 238 105 14 -7 21 -21 21 -39 0 -36 82 -155 183 -266
197 -215 475 -369 782 -435 123 -27 419 -38 543 -22 98 14 313 77 438 129 200
83 637 316 882 469 246 155 522 359 522 388 0 7 -10 26 -22 41 -17 22 -27 26
-53 22 -39 -6 -50 0 -58 35 -9 36 -80 90 -402 309 -446 302 -835 486 -1220
575 -105 24 -140 28 -285 28 -142 0 -181 -4 -280 -26 -323 -74 -463 -149 -692
-368 -137 -130 -301 -355 -330 -453 -10 -34 -10 -41 5 -52 16 -12 16 -15 -9
-44 -27 -33 -108 -79 -179 -101 -79 -25 -240 -117 -445 -253 -144 -95 -209
-149 -394 -325 -87 -83 -167 -154 -179 -158 -29 -9 -37 5 -97 169 -136 369
-301 703 -558 1132 -179 298 -538 816 -653 942 -48 53 -54 104 -14 135 61 48
90 270 82 620 -4 178 -7 220 -21 239 -9 13 -16 37 -16 54 0 17 -9 47 -20 68
-11 20 -20 45 -20 54 0 31 -114 254 -175 343 -106 156 -271 337 -379 417 -179
132 -534 288 -894 394 -150 43 -738 176 -926 209 -231 39 -424 59 -439 43z"/>
</g>
</svg>
